<svg width="50" height="48" viewBox="0 0 50 48" fill="none" xmlns="http://www.w3.org/2000/svg">
<path fill-rule="evenodd" clip-rule="evenodd" d="M29.2 13.4001C28.9334 13.7556 28.9334 14.2445 29.2 14.6001L32.2 18.6001C32.5314 19.0419 33.1582 19.1314 33.6 18.8001C34.0418 18.4687 34.1314 17.8419 33.8 17.4001L31.25 14.0001L33.8 10.6001C34.1314 10.1582 34.0418 9.53142 33.6 9.20006C33.1582 8.86868 32.5314 8.95824 32.2 9.40006L29.2 13.4001Z" fill="#059669"/>
<path fill-rule="evenodd" clip-rule="evenodd" d="M42.8 13.4001C43.0666 13.7556 43.0666 14.2445 42.8 14.6001L39.8 18.6001C39.4686 19.0419 38.8418 19.1314 38.4 18.8001C37.9582 18.4687 37.8686 17.8419 38.2 17.4001L40.75 14.0001L38.2 10.6001C37.8686 10.1582 37.9582 9.53142 38.4 9.20006C38.8418 8.86868 39.4686 8.95824 39.8 9.40006L42.8 13.4001Z" fill="#059669"/>
<path fill-rule="evenodd" clip-rule="evenodd" d="M36 4C30.4772 4 26 8.47716 26 14C26 19.5228 30.4772 24 36 24C41.5228 24 46 19.5228 46 14C46 8.47716 41.5228 4 36 4ZM24 14C24 7.37258 29.3726 2 36 2C42.6274 2 48 7.37258 48 14C48 20.6274 42.6274 26 36 26C29.3726 26 24 20.6274 24 14Z" fill="#059669"/>
<path fill-rule="evenodd" clip-rule="evenodd" d="M8.09572 8.02144C9.11108 7.99202 10.4093 7.82818 11.7236 7.41902C13.2626 6.9399 14.7574 6.1462 15.8671 4.90298C15.0551 4.33346 14.067 4 13 4C10.5735 4 8.55066 5.72852 8.09572 8.02144ZM17.2466 6.359C15.8416 7.8768 14.0356 8.79392 12.3181 9.32862C10.7993 9.80146 9.30058 9.99144 8.10452 10.0219C8.57622 12.2932 10.5888 14 13 14C15.7614 14 18 11.7614 18 9C18 8.03008 17.7245 7.12546 17.2466 6.359ZM6 9C6 5.134 9.134 2 13 2C14.9348 2 16.6878 2.78624 17.9537 4.05424C19.217 5.31958 20 7.06932 20 9C20 12.866 16.866 16 13 16C9.134 16 6 12.866 6 9Z" fill="#059669"/>
<path fill-rule="evenodd" clip-rule="evenodd" d="M7 21C5.34314 21 4 22.3432 4 24V31.7648C4 32.317 4.44772 32.7648 5 32.7648H8C8.55228 32.7648 9 33.2124 9 33.7648V44C9 44.5522 9.44772 45 10 45H16C16.5523 45 17 44.5522 17 44V33.7648C17 33.2124 17.4477 32.7648 18 32.7648H21C21.5522 32.7648 22 32.317 22 31.7648V24C22 22.3432 20.6568 21 19 21H7ZM2 24C2 21.2386 4.23858 19 7 19H19C21.7614 19 24 21.2386 24 24V31.7648C24 33.4216 22.6568 34.7648 21 34.7648H19V44C19 45.6568 17.6569 47 16 47H10C8.34314 47 7 45.6568 7 44V34.7648H5C3.34314 34.7648 2 33.4216 2 31.7648V24Z" fill="#059669"/>
<path fill-rule="evenodd" clip-rule="evenodd" d="M13 19C13.4589 19 13.8589 19.3123 13.9702 19.7575L15.9702 27.7574C16.0554 28.0982 15.9555 28.4588 15.7071 28.7072L13.7071 30.7072C13.3166 31.0976 12.6834 31.0976 12.2929 30.7072L10.2929 28.7072C10.0445 28.4588 9.94468 28.0982 10.0299 27.7574L12.0299 19.7575C12.1412 19.3123 12.5412 19 13 19ZM12.1075 27.6932L13 28.5858L13.8926 27.6932L13 24.1232L12.1075 27.6932Z" fill="#059669"/>
</svg>
