<svg width="41" height="40" viewBox="0 0 41 40" fill="none" xmlns="http://www.w3.org/2000/svg">
<g clip-path="url(#clip0_1375_68)">
<path d="M38.5001 1.33337H31.1668C30.6363 1.33337 30.1276 1.54409 29.7525 1.91916C29.3775 2.29423 29.1668 2.80294 29.1668 3.33337C29.1668 3.86381 29.3775 4.37251 29.7525 4.74759C30.1276 5.12266 30.6363 5.33337 31.1668 5.33337H33.5408C28.8688 9.56071 18.3274 18.2514 1.53208 27.584C1.30067 27.7121 1.09695 27.8849 0.932741 28.0922C0.768528 28.2996 0.647077 28.5374 0.575418 28.792C0.503408 29.0437 0.482179 29.3071 0.512967 29.5671C0.543755 29.827 0.625945 30.0782 0.754751 30.306C1.01241 30.7692 1.4434 31.1112 1.95303 31.2568C2.46266 31.4025 3.00926 31.3398 3.47275 31.0827C21.0441 21.322 31.8334 12.3334 36.5001 8.06004V10.6667C36.5001 11.1971 36.7108 11.7058 37.0859 12.0809C37.4609 12.456 37.9697 12.6667 38.5001 12.6667C39.0305 12.6667 39.5392 12.456 39.9143 12.0809C40.2894 11.7058 40.5001 11.1971 40.5001 10.6667V3.33337C40.5001 2.80294 40.2894 2.29423 39.9143 1.91916C39.5392 1.54409 39.0305 1.33337 38.5001 1.33337ZM39.1668 10.6667C39.1668 10.8435 39.0965 11.0131 38.9715 11.1381C38.8465 11.2631 38.6769 11.3334 38.5001 11.3334C38.3233 11.3334 38.1537 11.2631 38.0287 11.1381C37.9037 11.0131 37.8334 10.8435 37.8334 10.6667V6.52671C37.8335 6.39628 37.7952 6.2687 37.7235 6.15978C37.6517 6.05086 37.5496 5.96538 37.4297 5.91394C37.3099 5.86249 37.1775 5.84733 37.0492 5.87034C36.9208 5.89334 36.802 5.95351 36.7074 6.04337C32.8641 9.69804 21.8681 19.34 2.82808 29.9154C2.67165 29.9977 2.48944 30.0164 2.31957 29.9674C2.14971 29.9184 2.00536 29.8057 1.91675 29.6527C1.87453 29.5777 1.84765 29.495 1.83769 29.4095C1.82773 29.324 1.83489 29.2374 1.85875 29.1547C1.88261 29.0691 1.92332 28.9892 1.9785 28.9196C2.03369 28.85 2.10222 28.7921 2.18008 28.7494C20.8228 18.3907 31.8334 8.79604 35.7041 5.15204C35.8013 5.06046 35.8688 4.94178 35.8978 4.81138C35.9268 4.68098 35.916 4.54488 35.8667 4.42072C35.8174 4.29657 35.7319 4.19008 35.6214 4.11507C35.5109 4.04006 35.3803 3.99998 35.2468 4.00004H31.1668C30.9899 4.00004 30.8204 3.9298 30.6953 3.80478C30.5703 3.67975 30.5001 3.51019 30.5001 3.33337C30.5001 3.15656 30.5703 2.98699 30.6953 2.86197C30.8204 2.73695 30.9899 2.66671 31.1668 2.66671H38.5001C38.6769 2.66671 38.8465 2.73695 38.9715 2.86197C39.0965 2.98699 39.1668 3.15656 39.1668 3.33337V10.6667Z" fill="#059669"/>
<path d="M5.83342 40C6.36385 40 6.87256 39.7892 7.24763 39.4142C7.6227 39.0391 7.83342 38.5304 7.83342 38V34.6666C7.83342 34.1362 7.6227 33.6275 7.24763 33.2524C6.87256 32.8773 6.36385 32.6666 5.83342 32.6666H3.16675C2.63632 32.6666 2.12761 32.8773 1.75253 33.2524C1.37746 33.6275 1.16675 34.1362 1.16675 34.6666V38C1.16675 38.5304 1.37746 39.0391 1.75253 39.4142C2.12761 39.7892 2.63632 40 3.16675 40H5.83342ZM2.50008 38V34.6666C2.50008 34.4898 2.57032 34.3202 2.69534 34.1952C2.82037 34.0702 2.98994 34 3.16675 34H5.83342C6.01023 34 6.17979 34.0702 6.30482 34.1952C6.42984 34.3202 6.50008 34.4898 6.50008 34.6666V38C6.50008 38.1768 6.42984 38.3463 6.30482 38.4714C6.17979 38.5964 6.01023 38.6666 5.83342 38.6666H3.16675C2.98994 38.6666 2.82037 38.5964 2.69534 38.4714C2.57032 38.3463 2.50008 38.1768 2.50008 38Z" fill="#059669"/>
<path d="M13.8334 40C14.3638 40 14.8726 39.7892 15.2476 39.4142C15.6227 39.0391 15.8334 38.5304 15.8334 38V30.6666C15.8334 30.1362 15.6227 29.6275 15.2476 29.2524C14.8726 28.8773 14.3638 28.6666 13.8334 28.6666H11.1667C10.6363 28.6666 10.1276 28.8773 9.75253 29.2524C9.37746 29.6275 9.16675 30.1362 9.16675 30.6666V38C9.16675 38.5304 9.37746 39.0391 9.75253 39.4142C10.1276 39.7892 10.6363 40 11.1667 40H13.8334ZM10.5001 38V30.6666C10.5001 30.4898 10.5703 30.3202 10.6953 30.1952C10.8204 30.0702 10.9899 30 11.1667 30H13.8334C14.0102 30 14.1798 30.0702 14.3048 30.1952C14.4298 30.3202 14.5001 30.4898 14.5001 30.6666V38C14.5001 38.1768 14.4298 38.3463 14.3048 38.4714C14.1798 38.5964 14.0102 38.6666 13.8334 38.6666H11.1667C10.9899 38.6666 10.8204 38.5964 10.6953 38.4714C10.5703 38.3463 10.5001 38.1768 10.5001 38Z" fill="#059669"/>
<path d="M29.8334 40C30.3638 40 30.8726 39.7892 31.2476 39.4142C31.6227 39.0391 31.8334 38.5304 31.8334 38V20.6666C31.8334 20.1362 31.6227 19.6275 31.2476 19.2524C30.8726 18.8773 30.3638 18.6666 29.8334 18.6666H27.1667C26.6363 18.6666 26.1276 18.8773 25.7525 19.2524C25.3775 19.6275 25.1667 20.1362 25.1667 20.6666V38C25.1667 38.5304 25.3775 39.0391 25.7525 39.4142C26.1276 39.7892 26.6363 40 27.1667 40H29.8334ZM26.5001 38V20.6666C26.5001 20.4898 26.5703 20.3202 26.6953 20.1952C26.8204 20.0702 26.9899 20 27.1667 20H29.8334C30.0102 20 30.1798 20.0702 30.3048 20.1952C30.4298 20.3202 30.5001 20.4898 30.5001 20.6666V38C30.5001 38.1768 30.4298 38.3463 30.3048 38.4714C30.1798 38.5964 30.0102 38.6666 29.8334 38.6666H27.1667C26.9899 38.6666 26.8204 38.5964 26.6953 38.4714C26.5703 38.3463 26.5001 38.1768 26.5001 38Z" fill="#059669"/>
<path d="M37.8334 40C38.3638 40 38.8726 39.7893 39.2476 39.4142C39.6227 39.0391 39.8334 38.5304 39.8334 38V16C39.8334 15.4696 39.6227 14.9609 39.2476 14.5858C38.8726 14.2107 38.3638 14 37.8334 14H35.1667C34.6363 14 34.1276 14.2107 33.7525 14.5858C33.3775 14.9609 33.1667 15.4696 33.1667 16V38C33.1667 38.5304 33.3775 39.0391 33.7525 39.4142C34.1276 39.7893 34.6363 40 35.1667 40H37.8334ZM34.5001 38V16C34.5001 15.8232 34.5703 15.6536 34.6953 15.5286C34.8204 15.4036 34.9899 15.3333 35.1667 15.3333H37.8334C38.0102 15.3333 38.1798 15.4036 38.3048 15.5286C38.4298 15.6536 38.5001 15.8232 38.5001 16V38C38.5001 38.1768 38.4298 38.3464 38.3048 38.4714C38.1798 38.5964 38.0102 38.6667 37.8334 38.6667H35.1667C34.9899 38.6667 34.8204 38.5964 34.6953 38.4714C34.5703 38.3464 34.5001 38.1768 34.5001 38Z" fill="#059669"/>
<path d="M21.8334 40C22.3638 40 22.8726 39.7893 23.2476 39.4142C23.6227 39.0391 23.8334 38.5304 23.8334 38V26C23.8334 25.4696 23.6227 24.9609 23.2476 24.5858C22.8726 24.2107 22.3638 24 21.8334 24H19.1667C18.6363 24 18.1276 24.2107 17.7525 24.5858C17.3775 24.9609 17.1667 25.4696 17.1667 26V38C17.1667 38.5304 17.3775 39.0391 17.7525 39.4142C18.1276 39.7893 18.6363 40 19.1667 40H21.8334ZM18.5001 38V26C18.5001 25.8232 18.5703 25.6536 18.6953 25.5286C18.8204 25.4036 18.9899 25.3333 19.1667 25.3333H21.8334C22.0102 25.3333 22.1798 25.4036 22.3048 25.5286C22.4298 25.6536 22.5001 25.8232 22.5001 26V38C22.5001 38.1768 22.4298 38.3464 22.3048 38.4714C22.1798 38.5964 22.0102 38.6667 21.8334 38.6667H19.1667C18.9899 38.6667 18.8204 38.5964 18.6953 38.4714C18.5703 38.3464 18.5001 38.1768 18.5001 38Z" fill="#059669"/>
<path d="M9.83333 18.6667C11.6793 18.6667 13.4838 18.1193 15.0187 17.0937C16.5535 16.0682 17.7498 14.6105 18.4562 12.9051C19.1626 11.1996 19.3475 9.32298 18.9873 7.5125C18.6272 5.70201 17.7383 4.03896 16.433 2.73367C15.1277 1.42838 13.4647 0.53947 11.6542 0.179342C9.84369 -0.180787 7.96707 0.00404406 6.26162 0.710462C4.55618 1.41688 3.09851 2.61316 2.07295 4.14802C1.04739 5.68287 0.5 7.48738 0.5 9.33334C0.502647 11.8079 1.48683 14.1803 3.23659 15.9301C4.98636 17.6798 7.35879 18.664 9.83333 18.6667ZM9.83333 1.33334C11.4156 1.33334 12.9623 1.80253 14.2779 2.68158C15.5935 3.56063 16.6189 4.81006 17.2244 6.27187C17.8299 7.73368 17.9883 9.34221 17.6796 10.8941C17.3709 12.4459 16.609 13.8714 15.4902 14.9902C14.3714 16.109 12.9459 16.8709 11.3941 17.1796C9.84221 17.4883 8.23368 17.3299 6.77187 16.7244C5.31006 16.1189 4.06063 15.0935 3.18158 13.7779C2.30253 12.4623 1.83333 10.9156 1.83333 9.33334C1.83563 7.21231 2.67922 5.17881 4.17901 3.67902C5.67881 2.17922 7.71231 1.33563 9.83333 1.33334Z" fill="#059669"/>
<path d="M7.83326 12C7.83326 11.8231 7.76302 11.6536 7.63799 11.5286C7.51297 11.4035 7.3434 11.3333 7.16659 11.3333C6.98978 11.3333 6.82021 11.4035 6.69519 11.5286C6.57016 11.6536 6.49992 11.8231 6.49992 12C6.50089 12.7681 6.76665 13.5124 7.2524 14.1075C7.73815 14.7025 8.4142 15.1119 9.16659 15.2666V15.3333C9.16659 15.5101 9.23683 15.6797 9.36185 15.8047C9.48688 15.9297 9.65645 16 9.83326 16C10.0101 16 10.1796 15.9297 10.3047 15.8047C10.4297 15.6797 10.4999 15.5101 10.4999 15.3333V15.2666C11.2534 15.1136 11.9309 14.7048 12.4175 14.1095C12.9041 13.5141 13.1699 12.7689 13.1699 12C13.1699 11.2311 12.9041 10.4858 12.4175 9.89045C11.9309 9.29511 11.2534 8.8863 10.4999 8.73329V4.78929C10.8885 4.92668 11.2252 5.18078 11.4639 5.51683C11.7025 5.85287 11.8315 6.25445 11.8333 6.66663C11.8333 6.84344 11.9035 7.01301 12.0285 7.13803C12.1535 7.26305 12.3231 7.33329 12.4999 7.33329C12.6767 7.33329 12.8463 7.26305 12.9713 7.13803C13.0964 7.01301 13.1666 6.84344 13.1666 6.66663C13.1656 5.89849 12.8999 5.15417 12.4141 4.55913C11.9284 3.96408 11.2523 3.55469 10.4999 3.39996V3.33329C10.4999 3.15648 10.4297 2.98691 10.3047 2.86189C10.1796 2.73686 10.0101 2.66663 9.83326 2.66663C9.65645 2.66663 9.48688 2.73686 9.36185 2.86189C9.23683 2.98691 9.16659 3.15648 9.16659 3.33329V3.39996C8.41306 3.55297 7.73561 3.96178 7.24901 4.55712C6.7624 5.15246 6.49658 5.89772 6.49658 6.66663C6.49658 7.43553 6.7624 8.18079 7.24901 8.77613C7.73561 9.37147 8.41306 9.78028 9.16659 9.93329V13.878C8.77788 13.7405 8.44114 13.4863 8.20246 13.1502C7.96378 12.814 7.83483 12.4122 7.83326 12ZM11.8333 12C11.8315 12.4121 11.7025 12.8137 11.4639 13.1498C11.2252 13.4858 10.8885 13.7399 10.4999 13.8773V10.1226C10.8885 10.26 11.2252 10.5141 11.4639 10.8502C11.7025 11.1862 11.8315 11.5878 11.8333 12ZM7.83326 6.66663C7.83497 6.25445 7.96398 5.85287 8.20265 5.51683C8.44132 5.18078 8.77798 4.92668 9.16659 4.78929V8.54396C8.77798 8.40657 8.44132 8.15247 8.20265 7.81643C7.96398 7.48038 7.83497 7.0788 7.83326 6.66663Z" fill="#059669"/>
</g>
<defs>
<clipPath id="clip0_1375_68">
<rect width="40" height="40" fill="white" transform="translate(0.5)"/>
</clipPath>
</defs>
</svg>
