<svg width="41" height="40" viewBox="0 0 41 40" fill="none" xmlns="http://www.w3.org/2000/svg">
<g clip-path="url(#clip0_978_6510)">
<path d="M30.7458 0.0790787C25.8106 0.147907 21.773 4.22009 21.7451 9.1565C21.7296 11.9113 22.9401 14.4978 25.0663 16.2529C26.1207 17.1234 26.7255 18.4253 26.7255 19.8249V23.3203H35.0262V19.8251C35.0262 18.4406 35.6527 17.1206 36.7449 16.2034C38.8178 14.4626 40.0067 11.9132 40.0067 9.209C40.0068 4.11213 35.8443 0.00626618 30.7458 0.0790787ZM28.3857 21.6602V20H33.3662V21.6602H28.3857ZM35.6773 14.932C34.6037 15.8336 33.8653 17.0292 33.5454 18.3399H31.7059V11.6993C31.7059 10.3262 32.823 9.20908 34.1962 9.20908V7.54892C32.8399 7.54892 31.6337 8.20291 30.8758 9.21197C30.118 8.20291 28.9118 7.54892 27.5555 7.54892V9.20908C28.9287 9.20908 30.0458 10.3262 30.0458 11.6993V18.3399H28.2123C27.9003 17.0243 27.1766 15.8424 26.1233 14.9727C24.3833 13.5363 23.3926 11.4199 23.4053 9.16595C23.428 5.12713 26.7313 1.79541 30.7689 1.73908C34.9573 1.68595 38.3465 5.049 38.3465 9.20908C38.3466 11.4216 37.3737 13.5074 35.6773 14.932Z" fill="#059669"/>
<path d="M30.876 25.2125L25.7596 32.3754L27.5557 35.9675V39.9219H34.1963V35.9675L35.9923 32.3754L30.876 25.2125ZM30.0459 29.231V32.4513H31.706V29.231L34.0604 32.5271L32.8532 34.9415H28.8988L27.6915 32.5271L30.0459 29.231ZM32.5361 38.2617H29.2158V36.6016H32.5361V38.2617Z" fill="#059669"/>
<path d="M14.634 27.4707H13.4443V26.0788C15.4055 25.1445 16.7646 23.1433 16.7646 20.8301C16.7646 17.9659 16.7646 15.4913 16.7646 12.5016C16.7646 9.77062 14.5427 7.54883 11.8118 7.54883H11.6529L8.03535 8.98625L7.31668 7.54883H1.82324V11.7269C1.82324 13.8859 3.21246 15.7256 5.14355 16.402V20.8301C5.14355 23.1433 6.50262 25.1445 8.46387 26.0788V27.4707H7.2741C3.81082 27.4707 0.993164 30.2884 0.993164 33.7516V39.9219H20.915V33.7516C20.915 30.2884 18.0974 27.4707 14.634 27.4707ZM3.4834 11.7269V9.20898H6.29066L7.23215 11.0919L11.9622 9.21234C13.7082 9.29125 15.1045 10.7365 15.1045 12.5016V15.0195H6.77605C4.96051 15.0195 3.4834 13.5424 3.4834 11.7269ZM6.80371 20.8301V16.6797H15.1045V20.8301C15.1045 23.1186 13.2426 24.9805 10.9541 24.9805C8.66559 24.9805 6.80371 23.1187 6.80371 20.8301ZM19.2549 38.2617H16.7646V34.1113H15.1045V38.2617H6.80371V34.1113H5.14355V38.2617H2.65332V33.7516C2.65332 31.2037 4.72613 29.1309 7.2741 29.1309H10.124V26.5804C10.6824 26.6606 11.225 26.6607 11.7842 26.5804V29.1309H14.6341C17.1821 29.1309 19.2549 31.2037 19.2549 33.7516V38.2617Z" fill="#059669"/>
</g>
<defs>
<clipPath id="clip0_978_6510">
<rect width="40" height="40" fill="white" transform="translate(0.5)"/>
</clipPath>
</defs>
</svg>
