<svg width="41" height="40" viewBox="0 0 41 40" fill="none" xmlns="http://www.w3.org/2000/svg">
<g clip-path="url(#clip0_942_7669)">
<path d="M28.8333 21.6667C26.995 21.6667 25.5 20.1717 25.5 18.3333C25.5 16.495 26.995 15 28.8333 15C30.6717 15 32.1667 16.495 32.1667 18.3333C32.1667 20.1717 30.6717 21.6667 28.8333 21.6667ZM28.8333 17.5C28.3733 17.5 28 17.8733 28 18.3333C28 18.7933 28.3733 19.1667 28.8333 19.1667C29.2933 19.1667 29.6667 18.7933 29.6667 18.3333C29.6667 17.8733 29.2933 17.5 28.8333 17.5Z" fill="#059669"/>
<path d="M34.25 30C33.56 30 33 29.44 33 28.75V27.9167C33 26.7684 32.065 25.8334 30.9167 25.8334H26.75C26.06 25.8334 25.5 25.2734 25.5 24.5834C25.5 23.8934 26.06 23.3334 26.75 23.3334H30.9167C33.445 23.3334 35.5 25.3884 35.5 27.9167V28.75C35.5 29.44 34.94 30 34.25 30Z" fill="#059669"/>
<path d="M15.5 21.6666C12.7433 21.6666 10.5 19.4233 10.5 16.6666C10.5 13.91 12.7433 11.6666 15.5 11.6666C18.2567 11.6666 20.5 13.91 20.5 16.6666C20.5 19.4233 18.2567 21.6666 15.5 21.6666ZM15.5 14.1666C14.1217 14.1666 13 15.2883 13 16.6666C13 18.045 14.1217 19.1666 15.5 19.1666C16.8783 19.1666 18 18.045 18 16.6666C18 15.2883 16.8783 14.1666 15.5 14.1666Z" fill="#059669"/>
<path d="M23.4154 33.3333C22.7254 33.3333 22.1654 32.7733 22.1654 32.0833V29.5833C22.1654 28.435 21.2304 27.5 20.082 27.5H10.9154C9.76703 27.5 8.83203 28.435 8.83203 29.5833V32.0833C8.83203 32.7733 8.27203 33.3333 7.58203 33.3333C6.89203 33.3333 6.33203 32.7733 6.33203 32.0833V29.5833C6.33203 27.055 8.38703 25 10.9154 25H20.082C22.6104 25 24.6654 27.055 24.6654 29.5833V32.0833C24.6654 32.7733 24.1054 33.3333 23.4154 33.3333Z" fill="#059669"/>
<path d="M35.9167 38.3333H5.08333C2.555 38.3333 0.5 36.2783 0.5 33.75V6.24996C0.5 3.72163 2.555 1.66663 5.08333 1.66663H35.9167C38.445 1.66663 40.5 3.72163 40.5 6.24996V33.75C40.5 36.2783 38.445 38.3333 35.9167 38.3333ZM5.08333 4.16663C3.935 4.16663 3 5.10163 3 6.24996V33.75C3 34.8983 3.935 35.8333 5.08333 35.8333H35.9167C37.065 35.8333 38 34.8983 38 33.75V6.24996C38 5.10163 37.065 4.16663 35.9167 4.16663H5.08333Z" fill="#059669"/>
<path d="M39.25 10H1.75C1.06 10 0.5 9.44 0.5 8.75C0.5 8.06 1.06 7.5 1.75 7.5H39.25C39.94 7.5 40.5 8.06 40.5 8.75C40.5 9.44 39.94 10 39.25 10Z" fill="#059669"/>
</g>
<defs>
<clipPath id="clip0_942_7669">
<rect width="40" height="40" fill="white" transform="translate(0.5)"/>
</clipPath>
</defs>
</svg>
