<svg width="41" height="40" viewBox="0 0 41 40" fill="none" xmlns="http://www.w3.org/2000/svg">
<path fill-rule="evenodd" clip-rule="evenodd" d="M10.5 5V10C10.5 10.69 11.06 11.25 11.75 11.25C12.44 11.25 13 10.69 13 10V5C13 4.31 12.44 3.75 11.75 3.75C11.06 3.75 10.5 4.31 10.5 5Z" fill="#059669"/>
<path fill-rule="evenodd" clip-rule="evenodd" d="M28 5V10C28 10.69 28.56 11.25 29.25 11.25C29.94 11.25 30.5 10.69 30.5 10V5C30.5 4.31 29.94 3.75 29.25 3.75C28.56 3.75 28 4.31 28 5Z" fill="#059669"/>
<path fill-rule="evenodd" clip-rule="evenodd" d="M38 10C38 9.0056 37.6048 8.0516 36.9016 7.3484C36.1984 6.6452 35.2444 6.25 34.25 6.25H6.75C4.6788 6.25 3 7.9288 3 10V32.5C3 33.4944 3.3952 34.4484 4.0984 35.1516C4.8016 35.8548 5.7556 36.25 6.75 36.25H34.25C36.3212 36.25 38 34.5712 38 32.5V10ZM35.5 16.25V32.5C35.5 33.1904 34.9404 33.75 34.25 33.75H6.75C6.4184 33.75 6.1004 33.6184 5.866 33.384C5.6316 33.1496 5.5 32.8316 5.5 32.5V16.25H35.5ZM35.5 13.75H5.5V10C5.5 9.3096 6.0596 8.75 6.75 8.75H34.25C34.5816 8.75 34.8996 8.8816 35.134 9.116C35.3684 9.3504 35.5 9.6684 35.5 10V13.75Z" fill="#059669"/>
<path fill-rule="evenodd" clip-rule="evenodd" d="M20.5 17.5C18.0852 17.5 16.1248 19.4604 16.1248 21.8752C16.1248 24.2896 18.0852 26.25 20.5 26.25C22.9148 26.25 24.8752 24.2896 24.8752 21.8752C24.8752 19.4604 22.9148 17.5 20.5 17.5ZM20.5 20C21.5348 20 22.3752 20.84 22.3752 21.8752C22.3752 22.91 21.5348 23.75 20.5 23.75C19.4652 23.75 18.6248 22.91 18.6248 21.8752C18.6248 20.84 19.4652 20 20.5 20Z" fill="#059669"/>
<path fill-rule="evenodd" clip-rule="evenodd" d="M16.2864 32.5C18.4504 32.5 22.5604 32.5 24.7244 32.4812C25.4992 32.4812 26.2384 32.1088 26.7064 31.478C27.174 30.8472 27.3156 30.0328 27.0884 29.2812C26.2408 26.4452 23.6104 24.3748 20.5 24.3748C17.3924 24.3748 14.7628 26.4424 13.8948 29.27C13.8944 29.2712 13.894 29.2724 13.8936 29.2732C13.6636 30.0312 13.806 30.8532 14.278 31.4896C14.75 32.1256 15.4952 32.5004 16.2872 32.5H16.2864ZM24.688 29.9812C22.5256 30 18.44 30 16.2864 30C16.8392 28.198 18.5156 26.8748 20.5 26.8748C22.4736 26.8748 24.1436 28.1844 24.688 29.9812Z" fill="#059669"/>
</svg>
