<svg width="41" height="40" viewBox="0 0 41 40" fill="none" xmlns="http://www.w3.org/2000/svg">
<path fill-rule="evenodd" clip-rule="evenodd" d="M37.9806 8.67078C37.9806 6.6004 36.3028 4.92053 34.2312 4.92053H6.73808C4.66648 4.92053 2.98877 6.6004 2.98877 8.67078V33.6311C2.98877 35.7014 4.66648 37.3813 6.73808 37.3813H34.2312C36.3028 37.3813 37.9806 35.7014 37.9806 33.6311V8.67078ZM35.4819 8.67078V33.6311C35.4819 34.3212 34.9222 34.8812 34.2312 34.8812H6.73808C6.0471 34.8812 5.48743 34.3212 5.48743 33.6311V8.67078C5.48743 7.98065 6.0471 7.42068 6.73808 7.42068H34.2312C34.9222 7.42068 35.4819 7.98065 35.4819 8.67078Z" fill="#059669"/>
<path fill-rule="evenodd" clip-rule="evenodd" d="M4.95378 15.0312H35.5538C36.2162 15.0312 36.7538 14.4712 36.7538 13.7812C36.7538 13.0913 36.2162 12.5312 35.5538 12.5312H4.95378C4.29138 12.5312 3.75378 13.0913 3.75378 13.7812C3.75378 14.4712 4.29138 15.0312 4.95378 15.0312Z" fill="#059669"/>
<path fill-rule="evenodd" clip-rule="evenodd" d="M33 20.625C33 19.7969 32.67 19 32.085 18.4156C31.4975 17.8281 30.705 17.5 29.875 17.5C28.0875 17.5 25.4125 17.5 23.625 17.5C22.795 17.5 22.0025 17.8281 21.415 18.4156C20.83 19 20.5 19.7969 20.5 20.625V29.375C20.5 30.2031 20.83 31 21.415 31.5843C22.0025 32.1718 22.795 32.5 23.625 32.5H29.875C30.705 32.5 31.4975 32.1718 32.085 31.5843C32.67 31 33 30.2031 33 29.375V20.625ZM30.5 20.625V29.375C30.5 29.5406 30.435 29.7 30.3175 29.8156C30.2 29.9344 30.04 30 29.875 30H23.625C23.46 30 23.3 29.9344 23.1825 29.8156C23.065 29.7 23 29.5406 23 29.375V20.625C23 20.4594 23.065 20.3 23.1825 20.1844C23.3 20.0656 23.46 20 23.625 20H29.875C30.04 20 30.2 20.0656 30.3175 20.1844C30.435 20.3 30.5 20.4594 30.5 20.625Z" fill="#059669"/>
<path fill-rule="evenodd" clip-rule="evenodd" d="M10.5 3.78125V8.78125C10.5 9.47125 11.06 10.0312 11.75 10.0312C12.44 10.0312 13 9.47125 13 8.78125V3.78125C13 3.09125 12.44 2.53125 11.75 2.53125C11.06 2.53125 10.5 3.09125 10.5 3.78125Z" fill="#059669"/>
<path fill-rule="evenodd" clip-rule="evenodd" d="M28 3.78125V8.78125C28 9.47125 28.56 10.0312 29.25 10.0312C29.94 10.0312 30.5 9.47125 30.5 8.78125V3.78125C30.5 3.09125 29.94 2.53125 29.25 2.53125C28.56 2.53125 28 3.09125 28 3.78125Z" fill="#059669"/>
<path fill-rule="evenodd" clip-rule="evenodd" d="M16.75 28.75H9.25C8.56 28.75 8 29.31 8 30C8 30.69 8.56 31.25 9.25 31.25H16.75C17.44 31.25 18 30.69 18 30C18 29.31 17.44 28.75 16.75 28.75Z" fill="#059669"/>
<path fill-rule="evenodd" clip-rule="evenodd" d="M16.75 23.75H9.25C8.56 23.75 8 24.31 8 25C8 25.69 8.56 26.25 9.25 26.25H16.75C17.44 26.25 18 25.69 18 25C18 24.31 17.44 23.75 16.75 23.75Z" fill="#059669"/>
<path fill-rule="evenodd" clip-rule="evenodd" d="M16.75 18.75H9.25C8.56 18.75 8 19.31 8 20C8 20.69 8.56 21.25 9.25 21.25H16.75C17.44 21.25 18 20.69 18 20C18 19.31 17.44 18.75 16.75 18.75Z" fill="#059669"/>
</svg>
