<svg width="48" height="48" viewBox="0 0 48 48" fill="none" xmlns="http://www.w3.org/2000/svg">
<path d="M43.4001 16.8C42.8001 16.8 42.4001 16.4 42.4001 15.8V12.8C42.4001 11.6 41.4001 10.6 40.2001 10.6H20.8001C20.4001 10.6 20.0001 10.4 20.0001 10L18.4001 7.00005C18.0001 6.20005 17.2001 5.80005 16.4001 5.80005H7.8001C6.6001 5.80005 5.6001 6.80005 5.6001 8.00005V15.8C5.6001 16.4 5.2001 16.8 4.6001 16.8C4.0001 16.8 3.6001 16.4 3.6001 15.8V8.00005C3.6001 5.60005 5.6001 3.80005 7.8001 3.80005H16.4001C18.0001 3.80005 19.4001 4.60005 20.2001 6.00005L21.4001 8.40005H40.2001C42.6001 8.40005 44.4001 10.4 44.4001 12.6V15.8C44.4001 16.4 44.0001 16.8 43.4001 16.8Z" fill="#059669"/>
<path d="M41 44.2001H7.00005C5.40005 44.2001 4.00005 43.0001 3.80005 41.4001L0.800049 18.6C0.800049 17.6 1.00005 16.8 1.60005 16C2.20005 15.2 3.20005 14.8 4.00005 14.8H44C45 14.8 45.8001 15.2 46.4001 16C47 16.6 47.2001 17.6 47.2001 18.6L44.2001 41.4001C43.8 43.0001 42.6 44.2001 41 44.2001ZM4.00005 16.8C3.60005 16.8 3.20005 17 3.00005 17.2C3.00005 17.6 2.80005 18 2.80005 18.2L5.80005 41.2001C5.80005 41.8001 6.40005 42.2001 7.00005 42.2001H41C41.6 42.2001 42.2001 41.8001 42.2001 41.2001L45.2001 18.4C45.2001 18 45.2001 17.6 45 17.4C44.8 17.2 44.4001 17 44 17H4.00005V16.8Z" fill="#059669"/>
<path d="M24 40.8001C17.8 40.8001 12.8 35.8001 12.8 29.6001C12.8 23.4001 17.8 18.4001 24 18.4001C30.2 18.4001 35.2001 23.4001 35.2001 29.6001C35.2001 35.8001 30.2 40.8001 24 40.8001ZM24 20.2001C18.8 20.2001 14.8 24.4001 14.8 29.4001C14.8 34.6001 19 38.6001 24 38.6001C29 38.6001 33.2001 34.4001 33.2001 29.4001C33.2001 24.4001 29 20.2001 24 20.2001Z" fill="#059669"/>
<path d="M24.0001 40.8001C20.8001 40.8001 18.2001 36.0001 18.2001 29.6001C18.2001 23.2001 20.6001 18.4001 24.0001 18.4001C27.2001 18.4001 29.8001 23.2001 29.8001 29.6001C29.8001 36.0001 27.2001 40.8001 24.0001 40.8001ZM24.0001 20.2001C22.2001 20.2001 20.2001 24.2001 20.2001 29.4001C20.2001 34.8001 22.2001 38.6001 24.0001 38.6001C25.8001 38.6001 27.8001 34.8001 27.8001 29.4001C27.8001 24.0001 25.8001 20.2001 24.0001 20.2001Z" fill="#059669"/>
<path d="M34.2001 30.6001H13.8C13.2 30.6001 12.8 30.2001 12.8 29.6001C12.8 29.0001 13.2 28.6001 13.8 28.6001H34.4001C35.0001 28.6001 35.4001 29.0001 35.4001 29.6001C35.4001 30.2001 34.8001 30.6001 34.2001 30.6001Z" fill="#059669"/>
</svg>
