<svg width="41" height="40" viewBox="0 0 41 40" fill="none" xmlns="http://www.w3.org/2000/svg">
<path d="M30.5 1.25H10.5C8.17936 1.25 5.95376 2.17187 4.31282 3.81282C2.67187 5.45376 1.75 7.67936 1.75 10V30C1.75 32.3206 2.67187 34.5462 4.31282 36.1872C5.95376 37.8281 8.17936 38.75 10.5 38.75H30.5C32.8206 38.75 35.0462 37.8281 36.6872 36.1872C38.3281 34.5462 39.25 32.3206 39.25 30V10C39.25 7.67936 38.3281 5.45376 36.6872 3.81282C35.0462 2.17187 32.8206 1.25 30.5 1.25ZM36.75 30C36.75 31.6576 36.0915 33.2473 34.9194 34.4194C33.7473 35.5915 32.1576 36.25 30.5 36.25H10.5C8.8424 36.25 7.25269 35.5915 6.08058 34.4194C4.90848 33.2473 4.25 31.6576 4.25 30V10C4.25 8.3424 4.90848 6.75269 6.08058 5.58058C7.25269 4.40848 8.8424 3.75 10.5 3.75H30.5C32.1576 3.75 33.7473 4.40848 34.9194 5.58058C36.0915 6.75269 36.75 8.3424 36.75 10V30Z" fill="#059669"/>
<path d="M10.5 6.25C9.75832 6.25 9.0333 6.46993 8.41661 6.88199C7.79993 7.29404 7.31928 7.87971 7.03545 8.56494C6.75162 9.25016 6.67736 10.0042 6.82206 10.7316C6.96675 11.459 7.3239 12.1272 7.84835 12.6517C8.3728 13.1761 9.04098 13.5333 9.76841 13.6779C10.4958 13.8226 11.2498 13.7484 11.9351 13.4645C12.6203 13.1807 13.206 12.7001 13.618 12.0834C14.0301 11.4667 14.25 10.7417 14.25 10C14.25 9.00544 13.8549 8.05161 13.1517 7.34835C12.4484 6.64509 11.4946 6.25 10.5 6.25ZM10.5 11.25C10.2528 11.25 10.0111 11.1767 9.80554 11.0393C9.59998 10.902 9.43976 10.7068 9.34515 10.4784C9.25054 10.2499 9.22579 9.99861 9.27402 9.75614C9.32225 9.51366 9.4413 9.29093 9.61612 9.11612C9.79093 8.9413 10.0137 8.82225 10.2561 8.77402C10.4986 8.72579 10.7499 8.75054 10.9784 8.84515C11.2068 8.93976 11.402 9.09998 11.5393 9.30554C11.6767 9.5111 11.75 9.75277 11.75 10C11.75 10.3315 11.6183 10.6495 11.3839 10.8839C11.1495 11.1183 10.8315 11.25 10.5 11.25Z" fill="#059669"/>
<path d="M33 8.75H18C17.6685 8.75 17.3505 8.8817 17.1161 9.11612C16.8817 9.35054 16.75 9.66848 16.75 10C16.75 10.3315 16.8817 10.6495 17.1161 10.8839C17.3505 11.1183 17.6685 11.25 18 11.25H33C33.3315 11.25 33.6495 11.1183 33.8839 10.8839C34.1183 10.6495 34.25 10.3315 34.25 10C34.25 9.66848 34.1183 9.35054 33.8839 9.11612C33.6495 8.8817 33.3315 8.75 33 8.75Z" fill="#059669"/>
<path d="M10.5 16.25C9.75832 16.25 9.0333 16.4699 8.41661 16.882C7.79993 17.294 7.31928 17.8797 7.03545 18.5649C6.75162 19.2502 6.67736 20.0042 6.82206 20.7316C6.96675 21.459 7.3239 22.1272 7.84835 22.6517C8.3728 23.1761 9.04098 23.5333 9.76841 23.6779C10.4958 23.8226 11.2498 23.7484 11.9351 23.4645C12.6203 23.1807 13.206 22.7001 13.618 22.0834C14.0301 21.4667 14.25 20.7417 14.25 20C14.25 19.0054 13.8549 18.0516 13.1517 17.3483C12.4484 16.6451 11.4946 16.25 10.5 16.25ZM10.5 21.25C10.2528 21.25 10.0111 21.1767 9.80554 21.0393C9.59998 20.902 9.43976 20.7068 9.34515 20.4784C9.25054 20.2499 9.22579 19.9986 9.27402 19.7561C9.32225 19.5137 9.4413 19.2909 9.61612 19.1161C9.79093 18.9413 10.0137 18.8222 10.2561 18.774C10.4986 18.7258 10.7499 18.7505 10.9784 18.8452C11.2068 18.9398 11.402 19.1 11.5393 19.3055C11.6767 19.5111 11.75 19.7528 11.75 20C11.75 20.3315 11.6183 20.6495 11.3839 20.8839C11.1495 21.1183 10.8315 21.25 10.5 21.25Z" fill="#059669"/>
<path d="M33 18.75H18C17.6685 18.75 17.3505 18.8817 17.1161 19.1161C16.8817 19.3505 16.75 19.6685 16.75 20C16.75 20.3315 16.8817 20.6495 17.1161 20.8839C17.3505 21.1183 17.6685 21.25 18 21.25H33C33.3315 21.25 33.6495 21.1183 33.8839 20.8839C34.1183 20.6495 34.25 20.3315 34.25 20C34.25 19.6685 34.1183 19.3505 33.8839 19.1161C33.6495 18.8817 33.3315 18.75 33 18.75Z" fill="#059669"/>
<path d="M10.5 26.25C9.75832 26.25 9.0333 26.4699 8.41661 26.882C7.79993 27.294 7.31928 27.8797 7.03545 28.5649C6.75162 29.2502 6.67736 30.0042 6.82206 30.7316C6.96675 31.459 7.3239 32.1272 7.84835 32.6517C8.3728 33.1761 9.04098 33.5333 9.76841 33.6779C10.4958 33.8226 11.2498 33.7484 11.9351 33.4645C12.6203 33.1807 13.206 32.7001 13.618 32.0834C14.0301 31.4667 14.25 30.7417 14.25 30C14.25 29.0054 13.8549 28.0516 13.1517 27.3483C12.4484 26.6451 11.4946 26.25 10.5 26.25ZM10.5 31.25C10.2528 31.25 10.0111 31.1767 9.80554 31.0393C9.59998 30.902 9.43976 30.7068 9.34515 30.4784C9.25054 30.2499 9.22579 29.9986 9.27402 29.7561C9.32225 29.5137 9.4413 29.2909 9.61612 29.1161C9.79093 28.9413 10.0137 28.8222 10.2561 28.774C10.4986 28.7258 10.7499 28.7505 10.9784 28.8452C11.2068 28.9398 11.402 29.1 11.5393 29.3055C11.6767 29.5111 11.75 29.7528 11.75 30C11.75 30.3315 11.6183 30.6495 11.3839 30.8839C11.1495 31.1183 10.8315 31.25 10.5 31.25Z" fill="#059669"/>
<path d="M33 28.75H18C17.6685 28.75 17.3505 28.8817 17.1161 29.1161C16.8817 29.3505 16.75 29.6685 16.75 30C16.75 30.3315 16.8817 30.6495 17.1161 30.8839C17.3505 31.1183 17.6685 31.25 18 31.25H33C33.3315 31.25 33.6495 31.1183 33.8839 30.8839C34.1183 30.6495 34.25 30.3315 34.25 30C34.25 29.6685 34.1183 29.3505 33.8839 29.1161C33.6495 28.8817 33.3315 28.75 33 28.75Z" fill="#059669"/>
</svg>
