<svg width="48" height="48" viewBox="0 0 48 48" fill="none" xmlns="http://www.w3.org/2000/svg">
<path d="M6.11341 21.1357C5.91329 21.2139 5.74671 21.3594 5.64238 21.5473C5.53805 21.7351 5.50251 21.9534 5.54188 22.1646C5.58124 22.3759 5.69306 22.5667 5.85805 22.7043C6.02304 22.842 6.23087 22.9177 6.44572 22.9186C6.55948 22.9185 6.67221 22.897 6.77803 22.8553C7.42682 22.6074 22.7393 16.5889 31.8541 3.33879C31.9571 3.18723 32.0127 3.00844 32.0138 2.82518C32.0148 2.64192 31.9613 2.46249 31.8601 2.30975C31.7588 2.15701 31.6144 2.03786 31.4452 1.96749C31.2759 1.89712 31.0896 1.87871 30.9099 1.91461L24.2004 3.23857C23.9661 3.29237 23.7619 3.43551 23.6315 3.63754C23.501 3.83957 23.4546 4.08453 23.502 4.32029C23.5494 4.55605 23.687 4.76399 23.8854 4.89987C24.0838 5.03574 24.3274 5.08882 24.5644 5.0478L28.9477 4.16692C20.044 15.6553 6.2611 21.0988 6.11341 21.1357Z" fill="#059669"/>
<path d="M39.9877 3.52859C39.8991 3.43605 39.7926 3.3624 39.6748 3.31209C39.5569 3.26178 39.4301 3.23584 39.302 3.23584C39.1738 3.23584 39.047 3.26178 38.9292 3.31209C38.8113 3.3624 38.7049 3.43605 38.6163 3.52859L31.1842 11.8416C31.0649 11.9742 30.9867 12.1385 30.9588 12.3146C30.931 12.4908 30.9548 12.6712 31.0273 12.8341C31.0999 12.9971 31.218 13.1355 31.3676 13.2327C31.5171 13.3298 31.6915 13.3816 31.8699 13.3818H35.2088V43.4477H30.182V19.3528C30.182 19.2315 30.1581 19.1115 30.1117 18.9995C30.0653 18.8875 29.9973 18.7858 29.9116 18.7001C29.8259 18.6143 29.7241 18.5463 29.6121 18.5C29.5001 18.4536 29.3801 18.4297 29.2589 18.4297H22.9292C22.6844 18.4297 22.4496 18.5269 22.2765 18.7001C22.1034 18.8732 22.0061 19.108 22.0061 19.3528V43.4583H11.251C13.5673 43.178 15.6893 42.0242 17.1836 40.2323C18.6779 38.4404 19.4319 36.1457 19.2915 33.8167C19.1512 31.4878 18.1271 29.3002 16.4283 27.7008C14.7296 26.1014 12.4844 25.2107 10.1512 25.2107C7.818 25.2107 5.57279 26.1014 3.87407 27.7008C2.17534 29.3002 1.15123 31.4878 1.01086 33.8167C0.870494 36.1457 1.62446 38.4404 3.11879 40.2323C4.61312 42.0242 6.7351 43.178 9.05142 43.4583H3.00658C2.76177 43.4583 2.52698 43.5555 2.35387 43.7286C2.18076 43.9017 2.08351 44.1365 2.08351 44.3813C2.08351 44.6262 2.18076 44.8609 2.35387 45.0341C2.52698 45.2072 2.76177 45.3044 3.00658 45.3044H46.5283C46.7732 45.3044 47.0079 45.2072 47.1811 45.0341C47.3542 44.8609 47.4514 44.6262 47.4514 44.3813C47.4514 44.1365 47.3542 43.9017 47.1811 43.7286C47.0079 43.5555 46.7732 43.4583 46.5283 43.4583H43.4004V13.3923H46.7341C46.9119 13.391 47.0855 13.3386 47.2344 13.2413C47.3833 13.1441 47.5011 13.0062 47.5739 12.844C47.6467 12.6818 47.6713 12.5021 47.645 12.3262C47.6186 12.1504 47.5422 11.9858 47.425 11.8521L39.9877 3.52859ZM10.1538 41.6701C9.19707 41.6778 8.24832 41.4952 7.36273 41.1329C6.47714 40.7707 5.67236 40.2362 4.99515 39.5602C3.62559 38.1942 2.85478 36.34 2.85231 34.4056C2.84984 32.4712 3.6159 30.6151 4.98197 29.2455C6.34804 27.8759 8.20221 27.1051 10.1366 27.1027C12.071 27.1002 13.9271 27.8663 15.2967 29.2323C16.3107 30.2524 17.0006 31.5495 17.2795 32.9605C17.5584 34.3715 17.414 35.8335 16.8644 37.1627C16.3148 38.4919 15.3846 39.629 14.1906 40.431C12.9966 41.2329 11.5922 41.6641 10.1538 41.6701ZM28.3358 43.4477H23.8417V20.2758H28.3358V43.4477ZM42.4774 11.5356C42.2325 11.5356 41.9977 11.6329 41.8246 11.806C41.6515 11.9791 41.5543 12.2139 41.5543 12.4587V43.4583H37.0549V12.4587C37.0549 12.2139 36.9577 11.9791 36.7846 11.806C36.6115 11.6329 36.3767 11.5356 36.1319 11.5356H33.9323L39.302 5.52771L44.6716 11.5356H42.4774Z" fill="#059669"/>
<path d="M12.4642 32.3814C12.4642 32.6262 12.5614 32.861 12.7345 33.0341C12.9077 33.2072 13.1424 33.3045 13.3873 33.3045C13.6321 33.3045 13.8669 33.2072 14.04 33.0341C14.2131 32.861 14.3103 32.6262 14.3103 32.3814C14.3103 30.8517 12.9336 29.6016 11.2141 29.5383V29.3379C11.2141 29.0931 11.1168 28.8583 10.9437 28.6852C10.7706 28.512 10.5358 28.4148 10.291 28.4148C10.0462 28.4148 9.81139 28.512 9.63828 28.6852C9.46517 28.8583 9.36792 29.0931 9.36792 29.3379V29.5383H9.22022C7.43737 29.5383 5.99209 30.8148 5.99209 32.3867V32.4869C6.01794 33.0578 6.2323 33.6041 6.60166 34.0403C6.97101 34.4764 7.47451 34.7779 8.03341 34.8974L9.36792 35.1717V37.4188H9.22022C8.47121 37.4188 7.83297 36.9546 7.83297 36.4113C7.83297 36.1665 7.73572 35.9317 7.56261 35.7586C7.3895 35.5855 7.15471 35.4882 6.90989 35.4882C6.66508 35.4882 6.43029 35.5855 6.25718 35.7586C6.08407 35.9317 5.98682 36.1665 5.98682 36.4113C5.98682 37.9937 7.43737 39.2649 9.22022 39.2649H9.36792V39.5603C9.36792 39.8051 9.46517 40.0399 9.63828 40.213C9.81139 40.3861 10.0462 40.4834 10.291 40.4834C10.5358 40.4834 10.7706 40.3861 10.9437 40.213C11.1168 40.0399 11.2141 39.8051 11.2141 39.5603V39.2702C12.9284 39.2069 14.3051 37.9515 14.3051 36.4218V36.3216C14.2897 35.739 14.075 35.1792 13.6967 34.7357C13.3185 34.2923 12.7997 33.9919 12.2268 33.8847L11.2141 33.679V31.3897C11.9051 31.4425 12.4642 31.875 12.4642 32.3814ZM9.36792 33.2781L8.43956 33.0829C8.29662 33.0493 8.16639 32.9751 8.06444 32.8695C7.96249 32.7638 7.89312 32.6309 7.86462 32.4869V32.3814C7.86462 31.8539 8.49759 31.3792 9.2466 31.3792H9.39429L9.36792 33.2781ZM11.8207 35.6675C12.211 35.7625 12.4589 36.0104 12.4589 36.3005V36.3955C12.4589 36.9229 11.8998 37.3396 11.2141 37.3924V35.5462L11.8207 35.6675Z" fill="#059669"/>
</svg>
