<svg width="164" height="32" viewBox="0 0 215 42" fill="none" xmlns="http://www.w3.org/2000/svg">
<path d="M55.398 29.978C56.8287 29.978 57.877 29.7067 58.543 29.164C59.209 28.5967 59.542 27.8937 59.542 27.055C59.542 26.2903 59.283 25.686 58.765 25.242C58.247 24.7733 57.4577 24.3787 56.397 24.058L54.029 23.318C53.0917 23.022 52.2407 22.689 51.476 22.319C50.7113 21.949 50.0577 21.5173 49.515 21.024C48.9723 20.506 48.553 19.914 48.257 19.248C47.961 18.5573 47.813 17.7433 47.813 16.806C47.813 14.808 48.5653 13.2293 50.07 12.07C51.5747 10.886 53.6343 10.294 56.249 10.294C57.285 10.294 58.2347 10.3803 59.098 10.553C59.986 10.701 60.7507 10.923 61.392 11.219C62.0333 11.4903 62.5267 11.8357 62.872 12.255C63.242 12.6743 63.427 13.143 63.427 13.661C63.427 14.1543 63.3037 14.586 63.057 14.956C62.835 15.3013 62.5513 15.585 62.206 15.807C61.614 15.3877 60.8247 15.03 59.838 14.734C58.876 14.4133 57.8153 14.253 56.656 14.253C55.3733 14.253 54.399 14.4873 53.733 14.956C53.067 15.4 52.734 16.0167 52.734 16.806C52.734 17.4473 52.956 17.9407 53.4 18.286C53.8687 18.6313 54.5963 18.9643 55.583 19.285L57.692 19.951C59.838 20.5923 61.503 21.468 62.687 22.578C63.871 23.688 64.463 25.1927 64.463 27.092C64.463 28.1033 64.2657 29.0283 63.871 29.867C63.4763 30.7057 62.8967 31.4333 62.132 32.05C61.392 32.642 60.4547 33.0983 59.32 33.419C58.21 33.7643 56.9397 33.937 55.509 33.937C54.3743 33.937 53.326 33.8383 52.364 33.641C51.4267 33.4437 50.6127 33.1847 49.922 32.864C49.2313 32.5187 48.6887 32.124 48.294 31.68C47.924 31.2113 47.739 30.7057 47.739 30.163C47.739 29.5957 47.8993 29.1147 48.22 28.72C48.5653 28.3007 48.96 27.9923 49.404 27.795C50.0207 28.3377 50.8347 28.8433 51.846 29.312C52.8573 29.756 54.0413 29.978 55.398 29.978Z" fill="#fff"/>
<path d="M72.5331 27.906C72.5331 28.6953 72.7674 29.2627 73.2361 29.608C73.7294 29.9533 74.4077 30.126 75.2711 30.126C75.6904 30.126 76.1097 30.0767 76.5291 29.978C76.9731 29.8793 77.3677 29.756 77.7131 29.608C77.9104 29.8053 78.0707 30.052 78.1941 30.348C78.3421 30.6193 78.4161 30.94 78.4161 31.31C78.4161 32.05 78.0831 32.6667 77.4171 33.16C76.7511 33.6287 75.6781 33.863 74.1981 33.863C72.2494 33.863 70.7077 33.4313 69.5731 32.568C68.4631 31.68 67.9081 30.2247 67.9081 28.202V11.219C68.1054 11.1697 68.3891 11.108 68.7591 11.034C69.1537 10.96 69.5731 10.923 70.0171 10.923C70.8804 10.923 71.5094 11.0833 71.9041 11.404C72.3234 11.7247 72.5331 12.292 72.5331 13.106V16.177H77.9721C78.0954 16.3743 78.2064 16.6333 78.3051 16.954C78.4037 17.2747 78.4531 17.62 78.4531 17.99C78.4531 18.6313 78.3051 19.1 78.0091 19.396C77.7131 19.692 77.3184 19.84 76.8251 19.84H72.5331V27.906Z" fill="#fff"/>
<path d="M88.7278 30.348C89.4431 30.348 90.0968 30.2863 90.6888 30.163C91.2808 30.015 91.7125 29.8423 91.9838 29.645V25.538L88.3948 25.871C87.4081 25.9697 86.6558 26.1917 86.1378 26.537C85.6198 26.8577 85.3608 27.3757 85.3608 28.091C85.3608 28.8063 85.6198 29.3613 86.1378 29.756C86.6805 30.1507 87.5438 30.348 88.7278 30.348ZM88.5798 15.289C90.9971 15.289 92.9211 15.807 94.3518 16.843C95.8071 17.879 96.5348 19.4823 96.5348 21.653V30.2C96.5348 30.792 96.3868 31.2607 96.0908 31.606C95.7948 31.9513 95.4248 32.2597 94.9808 32.531C94.2901 32.9503 93.4145 33.2833 92.3538 33.53C91.2931 33.7767 90.0845 33.9 88.7278 33.9C86.2611 33.9 84.3125 33.4313 82.8818 32.494C81.4758 31.532 80.7728 30.1013 80.7728 28.202C80.7728 26.5493 81.2908 25.2913 82.3268 24.428C83.3875 23.54 84.9168 22.9973 86.9148 22.8L91.9838 22.282V21.616C91.9838 20.6787 91.6385 19.988 90.9478 19.544C90.2818 19.1 89.3321 18.878 88.0988 18.878C87.1368 18.878 86.1995 19.0013 85.2868 19.248C84.3741 19.47 83.5601 19.7537 82.8448 20.099C82.5735 19.9017 82.3391 19.6427 82.1418 19.322C81.9691 18.9767 81.8828 18.6067 81.8828 18.212C81.8828 17.7187 81.9938 17.324 82.2158 17.028C82.4625 16.7073 82.8448 16.4237 83.3628 16.177C84.0781 15.881 84.8921 15.659 85.8048 15.511C86.7175 15.363 87.6425 15.289 88.5798 15.289Z" fill="#fff"/>
<path d="M105.469 27.906C105.469 28.6953 105.703 29.2627 106.172 29.608C106.665 29.9533 107.344 30.126 108.207 30.126C108.626 30.126 109.046 30.0767 109.465 29.978C109.909 29.8793 110.304 29.756 110.649 29.608C110.846 29.8053 111.007 30.052 111.13 30.348C111.278 30.6193 111.352 30.94 111.352 31.31C111.352 32.05 111.019 32.6667 110.353 33.16C109.687 33.6287 108.614 33.863 107.134 33.863C105.185 33.863 103.644 33.4313 102.509 32.568C101.399 31.68 100.844 30.2247 100.844 28.202V11.219C101.041 11.1697 101.325 11.108 101.695 11.034C102.09 10.96 102.509 10.923 102.953 10.923C103.816 10.923 104.445 11.0833 104.84 11.404C105.259 11.7247 105.469 12.292 105.469 13.106V16.177H110.908C111.031 16.3743 111.142 16.6333 111.241 16.954C111.34 17.2747 111.389 17.62 111.389 17.99C111.389 18.6313 111.241 19.1 110.945 19.396C110.649 19.692 110.254 19.84 109.761 19.84H105.469V27.906Z" fill="#fff"/>
<path d="M114.821 15.955C115.019 15.9057 115.302 15.844 115.672 15.77C116.067 15.696 116.486 15.659 116.93 15.659C117.818 15.659 118.46 15.8193 118.854 16.14C119.274 16.4607 119.483 17.028 119.483 17.842V33.308C119.286 33.3573 118.99 33.419 118.595 33.493C118.225 33.567 117.818 33.604 117.374 33.604C116.486 33.604 115.833 33.4437 115.413 33.123C115.019 32.8023 114.821 32.235 114.821 31.421V15.955ZM114.451 10.59C114.451 9.87467 114.698 9.27033 115.191 8.777C115.709 8.259 116.363 8 117.152 8C117.942 8 118.583 8.259 119.076 8.777C119.57 9.27033 119.816 9.87467 119.816 10.59C119.816 11.33 119.57 11.959 119.076 12.477C118.583 12.9703 117.942 13.217 117.152 13.217C116.363 13.217 115.709 12.9703 115.191 12.477C114.698 11.959 114.451 11.33 114.451 10.59Z" fill="#fff"/>
<path d="M133.015 19.026C132.275 19.026 131.584 19.1493 130.943 19.396C130.326 19.6427 129.783 20.0003 129.315 20.469C128.871 20.9377 128.513 21.5173 128.242 22.208C127.97 22.8987 127.835 23.7003 127.835 24.613C127.835 26.4383 128.316 27.8197 129.278 28.757C130.24 29.6697 131.485 30.126 133.015 30.126C133.878 30.126 134.618 30.015 135.235 29.793C135.876 29.5463 136.443 29.2873 136.937 29.016C137.282 29.2627 137.553 29.5463 137.751 29.867C137.973 30.1877 138.084 30.5577 138.084 30.977C138.084 31.8157 137.59 32.5063 136.604 33.049C135.617 33.5917 134.285 33.863 132.608 33.863C131.202 33.863 129.907 33.678 128.723 33.308C127.563 32.9133 126.564 32.3337 125.726 31.569C124.887 30.7797 124.233 29.8053 123.765 28.646C123.321 27.4867 123.099 26.1423 123.099 24.613C123.099 23.059 123.345 21.7023 123.839 20.543C124.332 19.359 124.998 18.3847 125.837 17.62C126.7 16.8307 127.699 16.251 128.834 15.881C129.968 15.4863 131.177 15.289 132.46 15.289C134.112 15.289 135.432 15.585 136.419 16.177C137.405 16.7443 137.899 17.4473 137.899 18.286C137.899 18.6807 137.788 19.0383 137.566 19.359C137.368 19.6797 137.134 19.9387 136.863 20.136C136.369 19.8647 135.814 19.618 135.198 19.396C134.606 19.1493 133.878 19.026 133.015 19.026Z" fill="#fff"/>
<path d="M146.275 33.308C146.053 33.3573 145.757 33.419 145.387 33.493C145.017 33.567 144.597 33.604 144.129 33.604C143.265 33.604 142.624 33.4437 142.205 33.123C141.785 32.8023 141.576 32.235 141.576 31.421V9.295C141.773 9.221 142.057 9.15933 142.427 9.11C142.821 9.036 143.253 8.999 143.722 8.999C144.585 8.999 145.226 9.15933 145.646 9.48C146.065 9.80067 146.275 10.368 146.275 11.182V16.288C146.817 16.0167 147.434 15.7823 148.125 15.585C148.84 15.3877 149.629 15.289 150.493 15.289C152.737 15.289 154.526 15.8687 155.858 17.028C157.19 18.1873 157.856 19.9387 157.856 22.282V33.308C157.658 33.3573 157.362 33.419 156.968 33.493C156.598 33.567 156.191 33.604 155.747 33.604C154.859 33.604 154.205 33.4437 153.786 33.123C153.366 32.8023 153.157 32.235 153.157 31.421V22.504C153.157 21.2707 152.836 20.3827 152.195 19.84C151.553 19.2727 150.715 18.989 149.679 18.989C149.013 18.989 148.396 19.1 147.829 19.322C147.261 19.5193 146.743 19.766 146.275 20.062V33.308Z" fill="#fff"/>
<path d="M178.477 29.904C178.477 30.4713 178.378 30.9523 178.181 31.347C177.984 31.717 177.626 32.05 177.108 32.346C176.393 32.79 175.48 33.16 174.37 33.456C173.285 33.752 172.039 33.9 170.633 33.9C169.35 33.9 168.191 33.752 167.155 33.456C166.119 33.1847 165.231 32.753 164.491 32.161C163.751 31.569 163.184 30.8167 162.789 29.904C162.394 28.9913 162.197 27.906 162.197 26.648V15.881C162.394 15.807 162.678 15.7453 163.048 15.696C163.443 15.622 163.874 15.585 164.343 15.585C165.206 15.585 165.848 15.7453 166.267 16.066C166.686 16.362 166.896 16.9293 166.896 17.768V26.574C166.896 27.8567 167.217 28.7817 167.858 29.349C168.524 29.8917 169.461 30.163 170.67 30.163C171.435 30.163 172.076 30.089 172.594 29.941C173.137 29.793 173.544 29.6327 173.815 29.46V15.881C174.012 15.807 174.296 15.7453 174.666 15.696C175.061 15.622 175.48 15.585 175.924 15.585C176.812 15.585 177.453 15.7453 177.848 16.066C178.267 16.362 178.477 16.9293 178.477 17.768V29.904Z" fill="#fff"/>
<path d="M194.402 22.06C194.402 20.9993 194.094 20.2223 193.477 19.729C192.885 19.2357 192.071 18.989 191.035 18.989C190.32 18.989 189.654 19.0753 189.037 19.248C188.445 19.4207 187.927 19.6427 187.483 19.914V33.308C187.261 33.3573 186.965 33.419 186.595 33.493C186.225 33.567 185.806 33.604 185.337 33.604C184.474 33.604 183.832 33.4437 183.413 33.123C182.994 32.8023 182.784 32.235 182.784 31.421V19.544C182.784 18.952 182.907 18.471 183.154 18.101C183.401 17.731 183.783 17.3733 184.301 17.028C185.016 16.5347 185.966 16.1277 187.15 15.807C188.334 15.4617 189.641 15.289 191.072 15.289C193.613 15.289 195.574 15.8563 196.955 16.991C198.361 18.101 199.064 19.7413 199.064 21.912V33.308C198.867 33.3573 198.571 33.419 198.176 33.493C197.806 33.567 197.399 33.604 196.955 33.604C196.067 33.604 195.413 33.4437 194.994 33.123C194.599 32.8023 194.402 32.235 194.402 31.421V22.06Z" fill="#fff"/>
<path d="M208.106 27.906C208.106 28.6953 208.341 29.2627 208.809 29.608C209.303 29.9533 209.981 30.126 210.844 30.126C211.264 30.126 211.683 30.0767 212.102 29.978C212.546 29.8793 212.941 29.756 213.286 29.608C213.484 29.8053 213.644 30.052 213.767 30.348C213.915 30.6193 213.989 30.94 213.989 31.31C213.989 32.05 213.656 32.6667 212.99 33.16C212.324 33.6287 211.251 33.863 209.771 33.863C207.823 33.863 206.281 33.4313 205.146 32.568C204.036 31.68 203.481 30.2247 203.481 28.202V11.219C203.679 11.1697 203.962 11.108 204.332 11.034C204.727 10.96 205.146 10.923 205.59 10.923C206.454 10.923 207.083 11.0833 207.477 11.404C207.897 11.7247 208.106 12.292 208.106 13.106V16.177H213.545C213.669 16.3743 213.78 16.6333 213.878 16.954C213.977 17.2747 214.026 17.62 214.026 17.99C214.026 18.6313 213.878 19.1 213.582 19.396C213.286 19.692 212.892 19.84 212.398 19.84H208.106V27.906Z" fill="#fff"/>
<path d="M35.8492 6.15075C27.6482 -2.05026 14.3518 -2.05025 6.15076 6.15076C-2.05025 14.3518 -2.05026 27.6482 6.15075 35.8492C14.3518 44.0503 27.6482 44.0502 35.8492 35.8492C44.0502 27.6482 44.0503 14.3518 35.8492 6.15075Z" fill="url(#paint0_linear_69_18)"/>
<path d="M17 20.3684V22.5577C17 22.5577 11.5886 22.5933 11.1475 22.5723C10.4746 22.541 10.0203 22.0966 10.0008 21.5421C9.97978 20.916 10.3851 20.4885 11.1046 20.4102C11.418 20.3758 11.7367 20.3858 12.2299 20.3684H17Z" fill="white"/>
<path d="M21.4209 20.3684V22.5577C21.4209 22.5577 16.2943 22.5933 15.8765 22.5723C15.2389 22.541 14.8085 22.0966 14.79 21.5421C14.7702 20.916 15.1541 20.4885 15.8357 20.4102C16.1326 20.3758 16.4346 20.3858 16.9019 20.3684H21.4209Z" fill="white"/>
<path d="M26.9473 20.3684V22.5577C26.9473 22.5577 21.5359 22.5933 21.0948 22.5723C20.4218 22.541 19.9675 22.0966 19.948 21.5421C19.927 20.916 20.3324 20.4885 21.0518 20.4102C21.3652 20.3758 21.684 20.3858 22.1772 20.3684H26.9473Z" fill="white"/>
<path d="M25.105 22.579L25.105 20.3897C25.105 20.3897 30.5164 20.3541 30.9574 20.3751C31.6304 20.4064 32.0847 20.8508 32.1042 21.4053C32.1252 22.0314 31.7199 22.4588 31.0004 22.5372C30.687 22.5715 30.3683 22.5616 29.8751 22.579L25.105 22.579Z" fill="white"/>
<path d="M21.7893 13.004C21.7893 13.004 24.4457 13.004 30.5271 13.004C30.8276 13.004 31.1393 12.9663 31.4148 13.1226C31.8151 13.3496 32.0849 13.6725 32.1042 14.1619C32.1234 14.6809 31.8434 15.0254 31.433 15.2696C30.2459 15.9746 29.0521 16.6659 27.8594 17.3606C27.4841 17.5796 27.1123 17.8066 26.7257 18.0051C26.1361 18.3086 25.491 18.1466 25.177 17.6378C24.8232 17.0629 24.9389 16.4628 25.5091 16.0339C25.7574 15.8468 26.0341 15.6985 26.4445 15.4384C22.9956 15.4384 21.7893 15.4384 21.7893 15.4384L21.7893 13.004Z" fill="white"/>
<path d="M18.842 13L23.6315 13V15.5789H18.842L18.842 13Z" fill="white"/>
<path d="M20.3157 13.004C20.3157 13.004 17.6593 13.004 11.5779 13.004C11.2774 13.004 10.9656 12.9663 10.6901 13.1226C10.2899 13.3496 10.0201 13.6725 10.0008 14.1619C9.98155 14.6809 10.2616 15.0254 10.672 15.2696C11.859 15.9746 13.0529 16.6659 14.2456 17.3606C14.6208 17.5796 14.9927 17.8066 15.3793 18.0051C15.9689 18.3086 16.614 18.1466 16.928 17.6378C17.2818 17.0629 17.1661 16.4628 16.5958 16.0339C16.3476 15.8468 16.0709 15.6985 15.6605 15.4384C19.1094 15.4384 20.3157 15.4384 20.3157 15.4384L20.3157 13.004Z" fill="white"/>
<path d="M20.3159 29.9434C20.3159 29.9434 17.6595 29.9434 11.5781 29.9434C11.2777 29.9434 10.9659 29.9811 10.6904 29.8248C10.2902 29.5978 10.0203 29.2749 10.0011 28.7855C9.98179 28.2665 10.2618 27.922 10.6722 27.6778C11.8593 26.9728 13.0531 26.2815 14.2458 25.5868C14.6211 25.3678 14.993 25.1408 15.3796 24.9423C15.9691 24.6388 16.6142 24.8008 16.9283 25.3096C17.282 25.8845 17.1664 26.4846 16.5961 26.9135C16.3478 27.1006 16.0712 27.2489 15.6607 27.509C19.1096 27.509 20.3159 27.509 20.3159 27.509L20.3159 29.9434Z" fill="white"/>
<path d="M23.2632 29.9474L18.8421 29.9474L18.8421 27.3684L23.2632 27.3684L23.2632 29.9474Z" fill="white"/>
<path d="M21.7896 29.9434C21.7896 29.9434 24.4459 29.9434 30.5274 29.9434C30.8278 29.9434 31.1396 29.9811 31.4151 29.8248C31.8153 29.5978 32.0851 29.2749 32.1044 28.7855C32.1237 28.2665 31.8436 27.922 31.4332 27.6778C30.2462 26.9728 29.0524 26.2815 27.8596 25.5868C27.4844 25.3678 27.1125 25.1408 26.7259 24.9423C26.1363 24.6388 25.4912 24.8008 25.1772 25.3096C24.8235 25.8845 24.9391 26.4846 25.5094 26.9135C25.7577 27.1006 26.0343 27.2489 26.4447 27.509C22.9959 27.509 21.7896 27.509 21.7896 27.509L21.7896 29.9434Z" fill="white"/>
<defs>
<linearGradient id="paint0_linear_69_18" x1="0" y1="21" x2="42" y2="21" gradientUnits="userSpaceOnUse">
<stop stop-color="#05966A"/>
<stop offset="1" stop-color="#24B0C7"/>
</linearGradient>
</defs>
</svg>
