<svg width="400" height="400" viewBox="0 0 400 400" fill="none" xmlns="http://www.w3.org/2000/svg">
<path d="M277.782 122.218C234.824 79.2606 165.176 79.2606 122.218 122.218C79.2606 165.176 79.2606 234.824 122.218 277.782C165.176 320.739 234.824 320.739 277.782 277.782C320.739 234.824 320.739 165.176 277.782 122.218Z" fill="url(#paint0_linear_1106_277)"/>
<path d="M179.048 196.691V208.159C179.048 208.159 150.703 208.345 148.392 208.235C144.867 208.071 142.487 205.743 142.385 202.839C142.275 199.559 144.399 197.32 148.167 196.91C149.809 196.73 151.478 196.782 154.062 196.691H179.048Z" fill="white"/>
<path d="M202.209 196.691V208.159C202.209 208.159 175.356 208.345 173.167 208.235C169.828 208.071 167.573 205.743 167.477 202.839C167.372 199.559 169.384 197.32 172.954 196.91C174.509 196.73 176.091 196.782 178.538 196.691H202.209Z" fill="white"/>
<path d="M231.156 196.691V208.159C231.156 208.159 202.811 208.345 200.5 208.235C196.975 208.071 194.595 205.743 194.493 202.839C194.383 199.559 196.506 197.32 200.275 196.91C201.917 196.73 203.586 196.782 206.17 196.691H231.156Z" fill="white"/>
<path d="M221.502 208.272L221.502 196.804C221.502 196.804 249.848 196.618 252.158 196.728C255.683 196.892 258.063 199.22 258.165 202.124C258.275 205.404 256.152 207.643 252.383 208.053C250.742 208.233 249.072 208.181 246.488 208.272L221.502 208.272Z" fill="white"/>
<path d="M204.136 158.119C204.136 158.119 218.05 158.119 249.905 158.119C251.479 158.119 253.112 157.922 254.555 158.74C256.652 159.93 258.065 161.621 258.166 164.184C258.267 166.903 256.8 168.708 254.65 169.986C248.432 173.679 242.179 177.3 235.931 180.939C233.966 182.087 232.018 183.276 229.993 184.316C226.905 185.905 223.526 185.056 221.881 182.391C220.028 179.38 220.633 176.237 223.621 173.99C224.921 173.01 226.37 172.233 228.52 170.871C210.455 170.871 204.136 170.871 204.136 170.871L204.136 158.119Z" fill="white"/>
<path d="M188.694 158.098L213.782 158.098V171.607H188.694L188.694 158.098Z" fill="white"/>
<path d="M196.415 158.119C196.415 158.119 182.5 158.119 150.645 158.119C149.071 158.119 147.438 157.922 145.995 158.74C143.899 159.93 142.485 161.621 142.384 164.184C142.283 166.903 143.75 168.708 145.9 169.986C152.118 173.679 158.371 177.3 164.619 180.939C166.585 182.087 168.532 183.276 170.558 184.316C173.646 185.905 177.025 185.056 178.67 182.391C180.523 179.38 179.917 176.237 176.93 173.99C175.629 173.01 174.18 172.233 172.03 170.871C190.096 170.871 196.415 170.871 196.415 170.871L196.415 158.119Z" fill="white"/>
<path d="M196.415 246.849C196.415 246.849 182.5 246.849 150.645 246.849C149.071 246.849 147.438 247.047 145.995 246.228C143.899 245.039 142.485 243.348 142.384 240.784C142.283 238.065 143.75 236.261 145.9 234.982C152.118 231.289 158.371 227.668 164.619 224.029C166.585 222.882 168.532 221.693 170.557 220.653C173.646 219.063 177.025 219.912 178.67 222.577C180.523 225.589 179.917 228.732 176.93 230.979C175.629 231.959 174.18 232.735 172.03 234.098C190.096 234.098 196.415 234.098 196.415 234.098L196.415 246.849Z" fill="white"/>
<path d="M211.857 246.87L188.699 246.87L188.699 233.362L211.857 233.361L211.857 246.87Z" fill="white"/>
<path d="M204.136 246.849C204.136 246.849 218.05 246.849 249.905 246.849C251.479 246.849 253.112 247.047 254.555 246.228C256.652 245.039 258.065 243.348 258.166 240.784C258.267 238.065 256.8 236.261 254.65 234.982C248.432 231.289 242.179 227.668 235.931 224.029C233.966 222.882 232.018 221.693 229.993 220.653C226.905 219.063 223.526 219.912 221.881 222.577C220.028 225.589 220.633 228.732 223.621 230.979C224.921 231.959 226.37 232.735 228.52 234.098C210.455 234.098 204.136 234.098 204.136 234.098L204.136 246.849Z" fill="white"/>
<defs>
<linearGradient id="paint0_linear_1106_277" x1="90" y1="200" x2="310" y2="200" gradientUnits="userSpaceOnUse">
<stop stop-color="#05966A"/>
<stop offset="1" stop-color="#24B0C7"/>
</linearGradient>
</defs>
</svg>
