<svg width="800" height="800" viewBox="0 0 800 800" fill="none" xmlns="http://www.w3.org/2000/svg">
<rect width="800" height="800" rx="16" fill="#252F37"/>
<path d="M555.563 244.436C469.648 158.521 330.352 158.521 244.437 244.437C158.521 330.352 158.521 469.648 244.436 555.563C330.352 641.479 469.648 641.479 555.563 555.563C641.479 469.648 641.479 330.352 555.563 244.436Z" fill="url(#paint0_linear_1106_309)"/>
<path d="M358.096 393.382V416.317C358.096 416.317 301.405 416.69 296.785 416.47C289.734 416.142 284.975 411.486 284.771 405.677C284.551 399.118 288.797 394.64 296.334 393.82C299.617 393.46 302.957 393.564 308.124 393.382H358.096Z" fill="white"/>
<path d="M404.419 393.382V416.317C404.419 416.317 350.712 416.69 346.334 416.47C339.655 416.142 335.146 411.486 334.953 405.677C334.745 399.118 338.767 394.64 345.908 393.82C349.018 393.46 352.182 393.564 357.077 393.382H404.419Z" fill="white"/>
<path d="M462.312 393.382V416.317C462.312 416.317 405.621 416.69 401 416.47C393.95 416.142 389.191 411.486 388.987 405.677C388.767 399.118 393.013 394.64 400.55 393.82C403.833 393.46 407.173 393.564 412.34 393.382H462.312Z" fill="white"/>
<path d="M443.005 416.545L443.005 393.609C443.005 393.609 499.695 393.236 504.316 393.456C511.366 393.784 516.126 398.44 516.33 404.249C516.55 410.808 512.303 415.286 504.766 416.106C501.483 416.467 498.144 416.362 492.977 416.544L443.005 416.545Z" fill="white"/>
<path d="M408.271 316.238C408.271 316.238 436.1 316.238 499.81 316.238C502.958 316.238 506.224 315.844 509.11 317.481C513.303 319.859 516.13 323.241 516.332 328.368C516.534 333.806 513.6 337.415 509.3 339.973C496.865 347.358 484.358 354.601 471.863 361.879C467.932 364.173 464.036 366.552 459.986 368.631C453.809 371.81 447.051 370.113 443.761 364.783C440.055 358.76 441.267 352.473 447.241 347.98C449.842 346.02 452.74 344.466 457.04 341.741C420.909 341.741 408.272 341.741 408.272 341.741L408.271 316.238Z" fill="white"/>
<path d="M377.388 316.196L427.563 316.196V343.214H377.388L377.388 316.196Z" fill="white"/>
<path d="M392.829 316.238C392.829 316.238 365 316.238 301.29 316.238C298.143 316.238 294.876 315.844 291.99 317.481C287.797 319.859 284.971 323.241 284.769 328.368C284.567 333.806 287.501 337.415 291.8 339.973C304.236 347.358 316.743 354.601 329.238 361.879C333.169 364.173 337.065 366.552 341.115 368.631C347.291 371.81 354.049 370.113 357.339 364.783C361.045 358.76 359.834 352.473 353.859 347.98C351.258 346.02 348.36 344.466 344.061 341.741C380.192 341.741 392.829 341.741 392.829 341.741L392.829 316.238Z" fill="white"/>
<path d="M392.829 493.699C392.829 493.699 365 493.699 301.29 493.699C298.143 493.699 294.876 494.093 291.99 492.456C287.797 490.078 284.971 486.696 284.769 481.569C284.567 476.131 287.501 472.522 291.8 469.964C304.236 462.579 316.743 455.336 329.238 448.058C333.169 445.764 337.065 443.385 341.115 441.306C347.291 438.127 354.049 439.824 357.339 445.154C361.045 451.177 359.834 457.464 353.859 461.957C351.258 463.917 348.36 465.471 344.061 468.196C380.192 468.196 392.829 468.195 392.829 468.195L392.829 493.699Z" fill="white"/>
<path d="M423.714 493.741L377.398 493.741L377.398 466.723L423.714 466.723L423.714 493.741Z" fill="white"/>
<path d="M408.271 493.699C408.271 493.699 436.1 493.699 499.81 493.699C502.958 493.699 506.224 494.093 509.11 492.456C513.303 490.078 516.13 486.696 516.332 481.569C516.534 476.131 513.6 472.522 509.3 469.964C496.865 462.579 484.358 455.336 471.863 448.058C467.932 445.764 464.036 443.385 459.986 441.306C453.809 438.127 447.051 439.824 443.761 445.154C440.055 451.177 441.267 457.464 447.241 461.957C449.842 463.917 452.74 465.471 457.04 468.196C420.909 468.196 408.272 468.196 408.272 468.196L408.271 493.699Z" fill="white"/>
<defs>
<linearGradient id="paint0_linear_1106_309" x1="180" y1="400" x2="620" y2="400" gradientUnits="userSpaceOnUse">
<stop stop-color="#05966A"/>
<stop offset="1" stop-color="#24B0C7"/>
</linearGradient>
</defs>
</svg>
