<svg width="170" height="170" viewBox="0 0 170 170" fill="none" xmlns="http://www.w3.org/2000/svg">
<g filter="url(#filter0_d_88_13)">
<path d="M77.6092 19.7478C81.4744 15.1729 88.5255 15.1729 92.3908 19.7478C95.0004 22.8365 99.2556 23.9767 103.06 22.6066C108.695 20.5772 114.801 24.1028 115.861 29.9974C116.577 33.9772 119.692 37.0922 123.672 37.8078C129.566 38.8678 133.092 44.9742 131.063 50.6091C129.692 54.4135 130.833 58.6687 133.921 61.2783C138.496 65.1436 138.496 72.1947 133.921 76.0599C130.833 78.6696 129.692 82.9248 131.063 86.7292C133.092 92.364 129.566 98.4705 123.672 99.5304C119.692 100.246 116.577 103.361 115.861 107.341C114.801 113.235 108.695 116.761 103.06 114.732C99.2556 113.362 95.0004 114.502 92.3908 117.59C88.5255 122.165 81.4744 122.165 77.6092 117.59C74.9995 114.502 70.7443 113.362 66.9399 114.732C61.3051 116.761 55.1986 113.235 54.1387 107.341C53.4231 103.361 50.308 100.246 46.3282 99.5304C40.4336 98.4705 36.9081 92.364 38.9374 86.7292C40.3076 82.9248 39.1674 78.6696 36.0786 76.0599C31.5037 72.1947 31.5037 65.1436 36.0786 61.2783C39.1674 58.6687 40.3076 54.4135 38.9374 50.6091C36.9081 44.9742 40.4336 38.8678 46.3282 37.8078C50.308 37.0922 53.4231 33.9772 54.1387 29.9974C55.1986 24.1028 61.3051 20.5772 66.9399 22.6066C70.7443 23.9767 74.9995 22.8365 77.6092 19.7478Z" fill="#059669"/>
</g>
<path d="M65.9274 83.3825C65.246 85.8501 66.6498 87.4992 68.3309 87.9634C70.0274 88.4318 72.0784 87.7366 72.7597 85.2689C73.4411 82.8012 72.0373 81.1522 70.3408 80.6837C68.6597 80.2196 66.6087 80.9148 65.9274 83.3825ZM63.7176 82.7889C64.6928 79.2571 67.946 77.8149 70.9072 78.6325C73.8838 79.4544 75.9361 82.3614 74.9609 85.8933C73.99 89.4097 70.7369 90.8519 67.7603 90.03C64.7991 89.2124 62.7467 86.3054 63.7176 82.7889ZM77.4425 92.4544L75.2987 91.8625L78.3179 80.9276L85.2273 82.8353L84.6695 84.8557L79.8884 83.5357L79.1432 86.2347L83.3999 87.41L82.8591 89.3687L78.6178 88.1976L77.4425 92.4544ZM86.1028 94.8455L83.959 94.2536L86.9782 83.3188L93.8877 85.2265L93.3298 87.2469L88.5487 85.9268L87.8035 88.6258L92.0602 89.8011L91.5194 91.7598L87.2781 90.5888L86.1028 94.8455Z" fill="#fff"/>
<path d="M54.1724 65.6522L56.3889 62.1091C57.0676 62.7755 58.5621 63.735 60.1269 64.1543C64.2302 65.2538 67.5829 63.7296 69.0047 59.6754C67.6838 60.8495 65.501 61.3455 63.1364 60.7119C58.9289 59.5845 56.1299 55.7038 57.3784 51.0442C58.6177 46.4194 63.154 44.0942 68.1614 45.436C73.0644 46.7497 76.2359 51.3265 74.3072 58.5246C72.1269 66.6616 66.7726 70.3701 59.0529 68.3016C57.1404 67.7892 55.159 66.6992 54.1724 65.6522ZM69.795 54.2222C70.3913 51.9967 69.0185 50.0262 66.8974 49.4578C64.811 48.8988 62.6369 49.9189 62.0406 52.1444C61.4349 54.4046 62.7822 56.331 64.9034 56.8993C67.0246 57.4677 69.1987 56.4476 69.795 54.2222ZM75.0431 65.244L79.7991 65.4376C79.3444 67.5519 80.4874 69.6844 82.8867 70.3273C85.0427 70.905 87.1634 69.9452 87.769 67.6849C88.4585 65.1117 86.8721 63.3821 84.7857 62.8231C83.2557 62.4131 81.8522 62.7825 80.8984 63.4214C80.4929 63.1264 77.3671 61.0217 76.9176 60.7521L82.6979 49.89L95.4249 53.3002L94.3161 57.4383L84.8578 54.9039L82.4126 59.5783C83.6285 58.9351 85.3586 58.8769 86.8538 59.2776C91.3743 60.4888 93.8467 64.0584 92.5516 68.8918C91.4242 73.0994 87.2119 75.8841 81.7873 74.4306C76.8842 73.1168 74.3709 68.8654 75.0431 65.244ZM101.086 60.5195C100.695 61.98 101.442 63.2238 102.729 63.5686C104.05 63.9227 105.294 63.1751 105.676 61.7494C106.058 60.3237 105.346 59.0892 104.024 58.7351C102.738 58.3904 101.468 59.0938 101.086 60.5195ZM97.609 59.5878C98.4662 56.3886 101.78 54.5931 104.909 55.4316C108.039 56.2702 110.046 59.4913 109.188 62.6905C108.322 65.9244 104.992 67.6411 101.863 66.8025C98.6982 65.9546 96.7611 62.7521 97.609 59.5878ZM113.077 76.5533C112.686 78.0138 113.433 79.2576 114.72 79.6024C116.041 79.9564 117.285 79.2089 117.667 77.7832C118.049 76.3575 117.336 75.1229 116.015 74.7689C114.728 74.4241 113.459 75.1276 113.077 76.5533ZM109.6 75.6215C110.457 72.4224 113.771 70.6268 116.9 71.4654C120.03 72.304 122.036 75.5251 121.179 78.7242C120.313 81.9582 116.983 83.6749 113.853 82.8363C110.689 81.9884 108.752 78.7859 109.6 75.6215ZM100.429 78.8293L96.3953 77.7484L118.369 59.448L122.402 60.5288L100.429 78.8293Z" fill="#fff"/>
<defs>
<filter id="filter0_d_88_13" x="0.647446" y="0.31665" width="168.705" height="168.705" filterUnits="userSpaceOnUse" color-interpolation-filters="sRGB">
<feFlood flood-opacity="0" result="BackgroundImageFix"/>
<feColorMatrix in="SourceAlpha" type="matrix" values="0 0 0 0 0 0 0 0 0 0 0 0 0 0 0 0 0 0 127 0" result="hardAlpha"/>
<feMorphology radius="12" operator="erode" in="SourceAlpha" result="effect1_dropShadow_88_13"/>
<feOffset dy="16"/>
<feGaussianBlur stdDeviation="22"/>
<feComposite in2="hardAlpha" operator="out"/>
<feColorMatrix type="matrix" values="0 0 0 0 0.133333 0 0 0 0 0.133333 0 0 0 0 0.223529 0 0 0 0.26 0"/>
<feBlend mode="normal" in2="BackgroundImageFix" result="effect1_dropShadow_88_13"/>
<feBlend mode="normal" in="SourceGraphic" in2="effect1_dropShadow_88_13" result="shape"/>
</filter>
</defs>
</svg>
