<svg width="21" height="21" viewBox="0 0 21 21" fill="none" xmlns="http://www.w3.org/2000/svg">
<path d="M16.5672 12.1922L10.9422 17.8172C10.8841 17.8753 10.8152 17.9214 10.7393 17.9529C10.6635 17.9843 10.5821 18.0005 10.5 18.0005C10.4179 18.0005 10.3365 17.9843 10.2607 17.9529C10.1848 17.9214 10.1159 17.8753 10.0578 17.8172L4.43282 12.1922C4.34531 12.1048 4.2857 11.9934 4.26155 11.8721C4.23739 11.7508 4.24977 11.625 4.29711 11.5108C4.34446 11.3965 4.42464 11.2988 4.52752 11.2302C4.63039 11.1615 4.75132 11.1249 4.875 11.125H9.875V3.625C9.875 3.45924 9.94085 3.30027 10.0581 3.18306C10.1753 3.06585 10.3342 3 10.5 3C10.6658 3 10.8247 3.06585 10.9419 3.18306C11.0592 3.30027 11.125 3.45924 11.125 3.625V11.125H16.125C16.2487 11.1249 16.3696 11.1615 16.4725 11.2302C16.5754 11.2988 16.6555 11.3965 16.7029 11.5108C16.7502 11.625 16.7626 11.7508 16.7385 11.8721C16.7143 11.9934 16.6547 12.1048 16.5672 12.1922Z" fill="white"/>
</svg>
