<svg width="206" height="40" viewBox="0 0 206 40" fill="none" xmlns="http://www.w3.org/2000/svg">
<path d="M34.1421 5.85786C26.3316 -1.95262 13.6684 -1.95262 5.85787 5.85787C-1.95262 13.6684 -1.95262 26.3316 5.85786 34.1421C13.6683 41.9526 26.3316 41.9526 34.1421 34.1421C41.9526 26.3316 41.9526 13.6683 34.1421 5.85786Z" fill="url(#paint0_linear_1_2374)"/>
<path d="M16.1906 19.3992V21.4842C16.1906 21.4842 11.0369 21.5181 10.6168 21.4981C9.97589 21.4683 9.54322 21.0451 9.52467 20.517C9.50467 19.9207 9.89069 19.5136 10.5759 19.439C10.8744 19.4063 11.178 19.4157 11.6477 19.3992H16.1906Z" fill="white"/>
<path d="M20.4032 19.3992V21.4842C20.4032 21.4842 15.5207 21.5181 15.1228 21.4981C14.5156 21.4683 14.1057 21.0451 14.0881 20.517C14.0692 19.9207 14.4349 19.5136 15.084 19.439C15.3668 19.4063 15.6544 19.4157 16.0994 19.3992H20.4032Z" fill="white"/>
<path d="M25.6696 19.3992V21.4842C25.6696 21.4842 20.5159 21.5181 20.0958 21.4981C19.4549 21.4683 19.0222 21.0451 19.0037 20.517C18.9837 19.9207 19.3697 19.5136 20.0549 19.439C20.3534 19.4063 20.657 19.4157 21.1267 19.3992H25.6696Z" fill="white"/>
<path d="M23.9085 21.5049L23.9085 19.4198C23.9085 19.4198 29.0622 19.386 29.4823 19.4059C30.1232 19.4357 30.5559 19.859 30.5745 20.3871C30.5945 20.9834 30.2084 21.3905 29.5232 21.4651C29.2248 21.4978 28.9212 21.4883 28.4515 21.5049L23.9085 21.5049Z" fill="white"/>
<path d="M20.7549 12.3851C20.7549 12.3851 23.2848 12.3851 29.0766 12.3851C29.3627 12.3851 29.6597 12.3493 29.9221 12.4981C30.3032 12.7143 30.5602 13.0218 30.5786 13.4879C30.5969 13.9822 30.3302 14.3103 29.9393 14.5428C28.8088 15.2143 27.6718 15.8726 26.5359 16.5343C26.1785 16.7429 25.8244 16.9591 25.4562 17.1481C24.8947 17.4371 24.2803 17.2829 23.9812 16.7983C23.6443 16.2507 23.7545 15.6793 24.2976 15.2708C24.534 15.0926 24.7975 14.9513 25.1884 14.7036C21.9037 14.7036 20.7549 14.7036 20.7549 14.7036L20.7549 12.3851Z" fill="white"/>
<path d="M17.9482 12.3813L22.5096 12.3813V14.8375H17.9482L17.9482 12.3813Z" fill="white"/>
<path d="M19.3447 12.3851C19.3447 12.3851 16.8148 12.3851 11.023 12.3851C10.7369 12.3851 10.4399 12.3493 10.1776 12.4981C9.7964 12.7143 9.53941 13.0218 9.52106 13.4879C9.5027 13.9822 9.7694 14.3103 10.1603 14.5428C11.2908 15.2143 12.4278 15.8726 13.5637 16.5343C13.9211 16.7429 14.2752 16.9591 14.6434 17.1481C15.2049 17.4371 15.8193 17.2829 16.1184 16.7983C16.4553 16.2507 16.3451 15.6793 15.802 15.2708C15.5656 15.0926 15.3021 14.9513 14.9112 14.7036C18.1959 14.7036 19.3447 14.7036 19.3447 14.7036L19.3447 12.3851Z" fill="white"/>
<path d="M19.3447 28.5177C19.3447 28.5177 16.8148 28.5177 11.023 28.5177C10.7369 28.5177 10.4399 28.5535 10.1776 28.4047C9.7964 28.1885 9.53942 27.881 9.52106 27.4149C9.5027 26.9206 9.76941 26.5925 10.1603 26.36C11.2908 25.6886 12.4278 25.0302 13.5637 24.3685C13.9211 24.1599 14.2752 23.9437 14.6434 23.7547C15.2049 23.4657 15.8193 23.62 16.1184 24.1045C16.4553 24.6521 16.3451 25.2236 15.802 25.6321C15.5656 25.8103 15.3021 25.9515 14.9112 26.1992C18.1959 26.1992 19.3447 26.1992 19.3447 26.1992L19.3447 28.5177Z" fill="white"/>
<path d="M22.1558 28.5215L17.9452 28.5215L17.9452 26.0653L22.1558 26.0653L22.1558 28.5215Z" fill="white"/>
<path d="M20.7549 28.5177C20.7549 28.5177 23.2848 28.5177 29.0766 28.5177C29.3627 28.5177 29.6597 28.5535 29.9221 28.4047C30.3032 28.1885 30.5602 27.881 30.5786 27.4149C30.5969 26.9206 30.3302 26.5925 29.9393 26.36C28.8088 25.6886 27.6718 25.0302 26.5359 24.3685C26.1785 24.1599 25.8244 23.9437 25.4562 23.7547C24.8947 23.4657 24.2803 23.62 23.9812 24.1045C23.6443 24.6521 23.7545 25.2236 24.2976 25.6321C24.534 25.8103 24.7975 25.9515 25.1884 26.1992C21.9037 26.1992 20.7549 26.1992 20.7549 26.1992L20.7549 28.5177Z" fill="white"/>
<path d="M55.2773 29.0314C56.6367 29.0314 57.6328 28.7594 58.2656 28.2154C58.8984 27.6467 59.2148 26.942 59.2148 26.1013C59.2148 25.3348 58.9687 24.729 58.4765 24.2839C57.9843 23.8141 57.2343 23.4184 56.2265 23.097L53.9765 22.3552C53.0859 22.0585 52.2773 21.7247 51.5508 21.3538C50.8242 20.9829 50.2031 20.5502 49.6875 20.0556C49.1719 19.5364 48.7734 18.9429 48.4922 18.2753C48.2109 17.583 48.0703 16.767 48.0703 15.8274C48.0703 13.8245 48.7852 12.242 50.2148 11.0799C51.6445 9.89301 53.6015 9.29957 56.0859 9.29957C57.0703 9.29957 57.9726 9.38612 58.7929 9.5592C59.6366 9.70756 60.3632 9.9301 60.9726 10.2268C61.5819 10.4988 62.0507 10.845 62.3788 11.2653C62.7304 11.6857 62.9062 12.1555 62.9062 12.6748C62.9062 13.1693 62.789 13.602 62.5546 13.9729C62.3437 14.3191 62.0741 14.6034 61.746 14.826C61.1835 14.4056 60.4335 14.0471 59.496 13.7504C58.582 13.4289 57.5742 13.2682 56.4726 13.2682C55.2539 13.2682 54.3281 13.5031 53.6953 13.9729C53.0625 14.418 52.7461 15.0361 52.7461 15.8274C52.7461 16.4703 52.957 16.9648 53.3789 17.311C53.8242 17.6572 54.5156 17.991 55.4531 18.3124L57.457 18.98C59.496 19.6229 61.078 20.5007 62.203 21.6134C63.328 22.7261 63.8905 24.2344 63.8905 26.1384C63.8905 27.1522 63.703 28.0794 63.328 28.9201C62.953 29.7608 62.4023 30.4902 61.6757 31.1084C60.9726 31.7019 60.082 32.1593 59.0038 32.4807C57.9492 32.8269 56.7421 33 55.3828 33C54.3046 33 53.3086 32.9011 52.3945 32.7033C51.5039 32.5055 50.7305 32.2458 50.0742 31.9244C49.418 31.5782 48.9023 31.1826 48.5273 30.7375C48.1758 30.2677 48 29.7608 48 29.2168C48 28.6481 48.1523 28.166 48.457 27.7703C48.7852 27.35 49.1601 27.0409 49.582 26.8431C50.168 27.3871 50.9414 27.894 51.9023 28.3638C52.8633 28.8088 53.9882 29.0314 55.2773 29.0314Z" fill="black"/>
<path d="M71.5584 26.9543C71.5584 27.7456 71.781 28.3143 72.2264 28.6605C72.6951 29.0067 73.3396 29.1797 74.1599 29.1797C74.5584 29.1797 74.9568 29.1303 75.3552 29.0314C75.7771 28.9325 76.1521 28.8088 76.4802 28.6605C76.6677 28.8583 76.8201 29.1056 76.9373 29.4023C77.0779 29.6743 77.1482 29.9957 77.1482 30.3666C77.1482 31.1084 76.8318 31.7266 76.199 32.2211C75.5662 32.6909 74.5466 32.9258 73.1404 32.9258C71.2889 32.9258 69.824 32.4931 68.7459 31.6277C67.6912 30.7375 67.1639 29.2786 67.1639 27.2511V10.2268C67.3514 10.1774 67.6209 10.1155 67.9725 10.0414C68.3475 9.96719 68.7459 9.9301 69.1678 9.9301C69.9881 9.9301 70.5857 10.0908 70.9607 10.4123C71.3592 10.7337 71.5584 11.3024 71.5584 12.1184V15.1969H76.7263C76.8435 15.3947 76.949 15.6543 77.0427 15.9757C77.1365 16.2972 77.1834 16.6434 77.1834 17.0143C77.1834 17.6572 77.0427 18.127 76.7615 18.4237C76.4802 18.7204 76.1052 18.8688 75.6365 18.8688H71.5584V26.9543Z" fill="black"/>
<path d="M86.946 29.4023C87.6257 29.4023 88.2468 29.3405 88.8093 29.2168C89.3718 29.0685 89.7819 28.8954 90.0397 28.6976V24.5806L86.6296 24.9144C85.6921 25.0133 84.9773 25.2359 84.4851 25.582C83.9929 25.9035 83.7468 26.4227 83.7468 27.1398C83.7468 27.8569 83.9929 28.4132 84.4851 28.8088C85.0007 29.2045 85.821 29.4023 86.946 29.4023ZM86.8054 14.3067C89.1023 14.3067 90.9304 14.826 92.2897 15.8645C93.6725 16.903 94.3639 18.5102 94.3639 20.6862V29.2539C94.3639 29.8474 94.2233 30.3172 93.9421 30.6633C93.6608 31.0095 93.3093 31.3186 92.8874 31.5906C92.2311 32.0109 91.3991 32.3447 90.3913 32.592C89.3835 32.8393 88.2351 32.9629 86.946 32.9629C84.6023 32.9629 82.7507 32.4931 81.3914 31.5535C80.0554 30.5892 79.3875 29.155 79.3875 27.2511C79.3875 25.5944 79.8797 24.3333 80.864 23.4679C81.8718 22.5777 83.3249 22.0338 85.2234 21.8359L90.0397 21.3167V20.6491C90.0397 19.7095 89.7116 19.0171 89.0554 18.572C88.4226 18.127 87.5202 17.9044 86.3484 17.9044C85.4343 17.9044 84.5437 18.0281 83.6765 18.2753C82.8093 18.4979 82.0359 18.7822 81.3562 19.1284C81.0984 18.9306 80.8757 18.6709 80.6882 18.3495C80.5242 18.0033 80.4422 17.6324 80.4422 17.2368C80.4422 16.7423 80.5476 16.3466 80.7586 16.0499C80.9929 15.7285 81.3562 15.4441 81.8484 15.1969C82.5281 14.9001 83.3015 14.6776 84.1687 14.5292C85.0359 14.3809 85.9148 14.3067 86.8054 14.3067Z" fill="black"/>
<path d="M102.853 26.9543C102.853 27.7456 103.075 28.3143 103.521 28.6605C103.989 29.0067 104.634 29.1797 105.454 29.1797C105.853 29.1797 106.251 29.1303 106.65 29.0314C107.071 28.9325 107.446 28.8088 107.775 28.6605C107.962 28.8583 108.114 29.1056 108.232 29.4023C108.372 29.6743 108.443 29.9957 108.443 30.3666C108.443 31.1084 108.126 31.7266 107.493 32.2211C106.861 32.6909 105.841 32.9258 104.435 32.9258C102.583 32.9258 101.118 32.4931 100.04 31.6277C98.9856 30.7375 98.4582 29.2786 98.4582 27.2511V10.2268C98.6457 10.1774 98.9153 10.1155 99.2668 10.0414C99.6418 9.96719 100.04 9.9301 100.462 9.9301C101.282 9.9301 101.88 10.0908 102.255 10.4123C102.654 10.7337 102.853 11.3024 102.853 12.1184V15.1969H108.021C108.138 15.3947 108.243 15.6543 108.337 15.9757C108.431 16.2972 108.478 16.6434 108.478 17.0143C108.478 17.6572 108.337 18.127 108.056 18.4237C107.775 18.7204 107.4 18.8688 106.931 18.8688H102.853V26.9543Z" fill="black"/>
<path d="M111.739 14.9743C111.926 14.9249 112.196 14.8631 112.548 14.7889C112.923 14.7147 113.321 14.6776 113.743 14.6776C114.587 14.6776 115.196 14.8383 115.571 15.1598C115.969 15.4812 116.169 16.0499 116.169 16.8659V32.3695C115.981 32.4189 115.7 32.4807 115.325 32.5549C114.973 32.6291 114.587 32.6662 114.165 32.6662C113.321 32.6662 112.7 32.5055 112.301 32.184C111.926 31.8626 111.739 31.2939 111.739 30.4779V14.9743ZM111.387 9.59629C111.387 8.87922 111.622 8.27342 112.091 7.77889C112.583 7.25963 113.204 7 113.954 7C114.704 7 115.313 7.25963 115.782 7.77889C116.251 8.27342 116.485 8.87922 116.485 9.59629C116.485 10.3381 116.251 10.9686 115.782 11.4879C115.313 11.9824 114.704 12.2297 113.954 12.2297C113.204 12.2297 112.583 11.9824 112.091 11.4879C111.622 10.9686 111.387 10.3381 111.387 9.59629Z" fill="black"/>
<path d="M129.026 18.0528C128.323 18.0528 127.667 18.1764 127.057 18.4237C126.471 18.6709 125.956 19.0295 125.51 19.4993C125.088 19.9691 124.749 20.5502 124.491 21.2425C124.233 21.9349 124.104 22.7385 124.104 23.6534C124.104 25.4831 124.561 26.8678 125.475 27.8074C126.389 28.7223 127.573 29.1797 129.026 29.1797C129.846 29.1797 130.549 29.0685 131.135 28.8459C131.745 28.5987 132.284 28.339 132.752 28.067C133.081 28.3143 133.338 28.5987 133.526 28.9201C133.737 29.2416 133.842 29.6125 133.842 30.0328C133.842 30.8735 133.374 31.5659 132.436 32.1098C131.499 32.6538 130.233 32.9258 128.639 32.9258C127.303 32.9258 126.073 32.7404 124.948 32.3695C123.846 31.9738 122.897 31.3928 122.1 30.6262C121.303 29.835 120.682 28.8583 120.237 27.6961C119.815 26.534 119.604 25.1864 119.604 23.6534C119.604 22.0956 119.838 20.7356 120.307 19.5735C120.776 18.3866 121.409 17.4099 122.206 16.6434C123.026 15.8521 123.975 15.271 125.053 14.9001C126.131 14.5045 127.28 14.3067 128.499 14.3067C130.069 14.3067 131.323 14.6034 132.26 15.1969C133.198 15.7656 133.666 16.4703 133.666 17.311C133.666 17.7066 133.561 18.0651 133.35 18.3866C133.163 18.708 132.94 18.9677 132.682 19.1655C132.213 18.8935 131.686 18.6462 131.1 18.4237C130.538 18.1764 129.846 18.0528 129.026 18.0528Z" fill="black"/>
<path d="M141.625 32.3695C141.414 32.4189 141.133 32.4807 140.781 32.5549C140.43 32.6291 140.031 32.6662 139.586 32.6662C138.766 32.6662 138.156 32.5055 137.758 32.184C137.359 31.8626 137.16 31.2939 137.16 30.4779V8.29815C137.348 8.22397 137.617 8.16215 137.969 8.1127C138.344 8.03852 138.754 8.00143 139.199 8.00143C140.019 8.00143 140.629 8.16215 141.027 8.4836C141.426 8.80504 141.625 9.37375 141.625 10.1897V15.3081C142.141 15.0361 142.726 14.8012 143.383 14.6034C144.062 14.4056 144.812 14.3067 145.633 14.3067C147.765 14.3067 149.465 14.8878 150.73 16.0499C151.996 17.2121 152.629 18.9677 152.629 21.3167V32.3695C152.441 32.4189 152.16 32.4807 151.785 32.5549C151.433 32.6291 151.047 32.6662 150.625 32.6662C149.781 32.6662 149.16 32.5055 148.762 32.184C148.363 31.8626 148.164 31.2939 148.164 30.4779V21.5392C148.164 20.3029 147.859 19.4127 147.25 18.8688C146.641 18.3 145.844 18.0157 144.859 18.0157C144.226 18.0157 143.641 18.127 143.101 18.3495C142.562 18.5473 142.07 18.7946 141.625 19.0913V32.3695Z" fill="black"/>
<path d="M172.222 28.9572C172.222 29.5259 172.129 30.0081 171.941 30.4037C171.754 30.7746 171.414 31.1084 170.922 31.4051C170.242 31.8502 169.375 32.2211 168.32 32.5178C167.289 32.8145 166.105 32.9629 164.769 32.9629C163.551 32.9629 162.449 32.8145 161.465 32.5178C160.48 32.2458 159.637 31.8131 158.933 31.2197C158.23 30.6262 157.691 29.8721 157.316 28.9572C156.941 28.0423 156.754 26.9543 156.754 25.6933V14.9001C156.941 14.826 157.211 14.7641 157.562 14.7147C157.937 14.6405 158.348 14.6034 158.793 14.6034C159.613 14.6034 160.223 14.7641 160.621 15.0856C161.019 15.3823 161.219 15.951 161.219 16.7917V25.6191C161.219 26.9049 161.523 27.8321 162.133 28.4009C162.766 28.9448 163.656 29.2168 164.805 29.2168C165.531 29.2168 166.14 29.1427 166.633 28.9943C167.148 28.8459 167.535 28.6852 167.793 28.5121V14.9001C167.98 14.826 168.25 14.7641 168.601 14.7147C168.976 14.6405 169.375 14.6034 169.797 14.6034C170.64 14.6034 171.25 14.7641 171.625 15.0856C172.023 15.3823 172.222 15.951 172.222 16.7917V28.9572Z" fill="black"/>
<path d="M187.354 21.0942C187.354 20.0309 187.061 19.252 186.475 18.7575C185.912 18.263 185.139 18.0157 184.155 18.0157C183.475 18.0157 182.842 18.1022 182.256 18.2753C181.694 18.4484 181.202 18.6709 180.78 18.9429V32.3695C180.569 32.4189 180.287 32.4807 179.936 32.5549C179.584 32.6291 179.186 32.6662 178.741 32.6662C177.92 32.6662 177.311 32.5055 176.913 32.184C176.514 31.8626 176.315 31.2939 176.315 30.4779V18.572C176.315 17.9786 176.432 17.4964 176.666 17.1255C176.901 16.7546 177.264 16.3961 177.756 16.0499C178.436 15.5554 179.338 15.1474 180.463 14.826C181.588 14.4798 182.83 14.3067 184.19 14.3067C186.604 14.3067 188.467 14.8754 189.78 16.0128C191.116 17.1255 191.784 18.7699 191.784 20.9458V32.3695C191.596 32.4189 191.315 32.4807 190.94 32.5549C190.588 32.6291 190.201 32.6662 189.78 32.6662C188.936 32.6662 188.315 32.5055 187.916 32.184C187.541 31.8626 187.354 31.2939 187.354 30.4779V21.0942Z" fill="black"/>
<path d="M200.375 26.9543C200.375 27.7456 200.598 28.3143 201.043 28.6605C201.512 29.0067 202.156 29.1797 202.977 29.1797C203.375 29.1797 203.773 29.1303 204.172 29.0314C204.594 28.9325 204.969 28.8088 205.297 28.6605C205.484 28.8583 205.637 29.1056 205.754 29.4023C205.895 29.6743 205.965 29.9957 205.965 30.3666C205.965 31.1084 205.648 31.7266 205.016 32.2211C204.383 32.6909 203.363 32.9258 201.957 32.9258C200.106 32.9258 198.641 32.4931 197.563 31.6277C196.508 30.7375 195.981 29.2786 195.981 27.2511V10.2268C196.168 10.1774 196.438 10.1155 196.789 10.0414C197.164 9.96719 197.563 9.9301 197.984 9.9301C198.805 9.9301 199.402 10.0908 199.777 10.4123C200.176 10.7337 200.375 11.3024 200.375 12.1184V15.1969H205.543C205.66 15.3947 205.766 15.6543 205.859 15.9757C205.953 16.2972 206 16.6434 206 17.0143C206 17.6572 205.859 18.127 205.578 18.4237C205.297 18.7204 204.922 18.8688 204.453 18.8688H200.375V26.9543Z" fill="black"/>
<defs>
<linearGradient id="paint0_linear_1_2374" x1="0" y1="20" x2="40" y2="20" gradientUnits="userSpaceOnUse">
<stop stop-color="#05966A"/>
<stop offset="1" stop-color="#24B0C7"/>
</linearGradient>
</defs>
</svg>
