<svg width="56" height="56" viewBox="0 0 56 56" fill="none" xmlns="http://www.w3.org/2000/svg">
<path d="M47.799 8.20101C36.8643 -2.73367 19.1357 -2.73367 8.20101 8.20101C-2.73367 19.1357 -2.73367 36.8643 8.20101 47.799C19.1357 58.7337 36.8643 58.7337 47.799 47.799C58.7337 36.8643 58.7337 19.1357 47.799 8.20101Z" fill="url(#paint0_linear_1_2346)"/>
<path d="M22.6668 27.1584V30.0775C22.6668 30.0775 15.4516 30.1249 14.8636 30.097C13.9662 30.0552 13.3605 29.4626 13.3345 28.7233C13.3065 27.8885 13.847 27.3186 14.8062 27.2141C15.2241 27.1683 15.6491 27.1816 16.3067 27.1584H22.6668Z" fill="white"/>
<path d="M28.5643 27.1584V30.0775C28.5643 30.0775 21.7288 30.1249 21.1717 30.097C20.3216 30.0552 19.7478 29.4626 19.7231 28.7233C19.6966 27.8885 20.2086 27.3186 21.1174 27.2141C21.5133 27.1683 21.9159 27.1816 22.5389 27.1584H28.5643Z" fill="white"/>
<path d="M35.9373 27.1584V30.0775C35.9373 30.0775 28.7221 30.1249 28.1341 30.097C27.2368 30.0552 26.631 29.4626 26.605 28.7233C26.577 27.8885 27.1175 27.3186 28.0767 27.2141C28.4946 27.1683 28.9196 27.1816 29.5772 27.1584H35.9373Z" fill="white"/>
<path d="M33.4718 30.1057L33.4718 27.1866C33.4718 27.1866 40.687 27.1392 41.2751 27.1671C42.1724 27.2089 42.7782 27.8014 42.8041 28.5408C42.8321 29.3755 42.2917 29.9455 41.3324 30.0499C40.9146 30.0958 40.4895 30.0825 39.8319 30.1057L33.4718 30.1057Z" fill="white"/>
<path d="M29.0566 17.3387C29.0566 17.3387 32.5985 17.3387 40.7071 17.3387C41.1076 17.3387 41.5233 17.2885 41.8907 17.4969C42.4243 17.7996 42.7841 18.23 42.8098 18.8826C42.8355 19.5746 42.4621 20.034 41.9149 20.3595C40.3322 21.2995 38.7404 22.2212 37.1501 23.1475C36.6497 23.4396 36.1539 23.7423 35.6384 24.0069C34.8524 24.4115 33.9922 24.1955 33.5735 23.5171C33.1019 22.7505 33.256 21.9505 34.0164 21.3786C34.3475 21.1291 34.7163 20.9314 35.2635 20.5846C30.6651 20.5846 29.0566 20.5846 29.0566 20.5846L29.0566 17.3387Z" fill="white"/>
<path d="M25.1274 17.3334L31.5134 17.3334V20.772H25.1274L25.1274 17.3334Z" fill="white"/>
<path d="M27.0825 17.3387C27.0825 17.3387 23.5407 17.3387 15.4321 17.3387C15.0315 17.3387 14.6158 17.2885 14.2485 17.4969C13.7149 17.7996 13.3551 18.23 13.3294 18.8826C13.3037 19.5746 13.6771 20.034 14.2243 20.3595C15.807 21.2995 17.3988 22.2212 18.9891 23.1475C19.4894 23.4396 19.9852 23.7423 20.5007 24.0069C21.2868 24.4115 22.1469 24.1955 22.5657 23.5171C23.0373 22.7505 22.8831 21.9505 22.1227 21.3786C21.7917 21.1291 21.4228 20.9314 20.8756 20.5846C25.4741 20.5846 27.0825 20.5846 27.0825 20.5846L27.0825 17.3387Z" fill="white"/>
<path d="M27.0825 39.9246C27.0825 39.9246 23.5407 39.9246 15.4321 39.9246C15.0315 39.9246 14.6158 39.9748 14.2485 39.7664C13.7149 39.4637 13.3551 39.0333 13.3294 38.3807C13.3037 37.6887 13.6771 37.2293 14.2243 36.9038C15.807 35.9638 17.3988 35.0421 18.9891 34.1158C19.4894 33.8237 19.9852 33.521 20.5007 33.2564C21.2868 32.8518 22.1469 33.0678 22.5657 33.7462C23.0373 34.5128 22.8831 35.3128 22.1227 35.8847C21.7917 36.1342 21.4228 36.3319 20.8756 36.6787C25.4741 36.6787 27.0825 36.6787 27.0825 36.6787L27.0825 39.9246Z" fill="white"/>
<path d="M31.0181 39.9299L25.1233 39.9299L25.1233 36.4913L31.0181 36.4913L31.0181 39.9299Z" fill="white"/>
<path d="M29.0566 39.9246C29.0566 39.9246 32.5985 39.9246 40.7071 39.9246C41.1076 39.9246 41.5233 39.9748 41.8907 39.7664C42.4243 39.4637 42.7841 39.0333 42.8098 38.3807C42.8355 37.6887 42.4621 37.2293 41.9149 36.9038C40.3322 35.9638 38.7404 35.0421 37.1501 34.1158C36.6497 33.8237 36.1539 33.521 35.6384 33.2564C34.8524 32.8518 33.9922 33.0678 33.5735 33.7462C33.1019 34.5128 33.256 35.3128 34.0164 35.8847C34.3475 36.1342 34.7163 36.3319 35.2635 36.6787C30.6651 36.6787 29.0566 36.6787 29.0566 36.6787L29.0566 39.9246Z" fill="white"/>
<defs>
<linearGradient id="paint0_linear_1_2346" x1="0" y1="28" x2="56" y2="28" gradientUnits="userSpaceOnUse">
<stop stop-color="#05966A"/>
<stop offset="1" stop-color="#24B0C7"/>
</linearGradient>
</defs>
</svg>
