<svg width="56" height="56" viewBox="0 0 56 56" fill="none" xmlns="http://www.w3.org/2000/svg">
<g clip-path="url(#clip0_1147_314)">
<path d="M5.83319 47.8331H3.5V17.4999C3.50385 14.2798 6.11346 11.6706 9.33319 11.6667H15.1668V13.9999H9.33319C7.40033 13.9999 5.83319 15.5671 5.83319 17.4999V47.8331Z" fill="url(#paint0_linear_1147_314)"/>
<path d="M52.4998 47.8331H50.1666V17.4999C50.1666 15.5671 48.5995 13.9999 46.6666 13.9999H40.833V11.6667H46.6666C49.8864 11.6706 52.496 14.2798 52.4998 17.4999V47.8331Z" fill="url(#paint1_linear_1147_314)"/>
<path d="M47.8332 55.9999H8.16681C3.65851 55.9948 0.00512695 52.3414 0 47.8331C0 47.1888 0.522522 46.6667 1.16681 46.6667H19.8332C20.4775 46.6667 21 47.1888 21 47.8331V48.9999H35V47.8331C35 47.1888 35.5225 46.6667 36.1668 46.6667H54.8332C55.4775 46.6667 56 47.1888 56 47.8331C55.9949 52.3414 52.3415 55.9948 47.8332 55.9999ZM2.44983 48.9999C3.00781 51.7142 5.39569 53.6638 8.16681 53.6667H47.8332C50.6043 53.6638 52.9922 51.7142 53.5502 48.9999H37.3332V50.1667C37.3332 50.811 36.8111 51.3331 36.1668 51.3331H19.8332C19.1889 51.3331 18.6668 50.811 18.6668 50.1667V48.9999H2.44983Z" fill="url(#paint2_linear_1147_314)"/>
<path d="M28 35C22.1117 35 17.5 27.313 17.5 17.5C17.5 7.68701 22.1117 0 28 0C33.8883 0 38.5 7.68701 38.5 17.5C38.5 27.313 33.8883 35 28 35ZM28 2.33319C23.5737 2.33319 19.8332 9.2785 19.8332 17.5C19.8332 25.7215 23.5737 32.6668 28 32.6668C32.4263 32.6668 36.1668 25.7215 36.1668 17.5C36.1668 9.2785 32.4263 2.33319 28 2.33319Z" fill="#71C5AB"/>
<path d="M18.667 11.6667H37.3334V13.9999H18.667V11.6667Z" fill="#71C5AB"/>
<path d="M40.8332 34.9999H28V32.6667H39.6668V28.4827L35.3418 24.1581L36.9914 22.5085L41.6582 27.1749C41.877 27.3937 42 27.6906 42 27.9999V33.8331C42 34.4774 41.4775 34.9999 40.8332 34.9999Z" fill="#71C5AB"/>
<path d="M28 34.9999H15.1668C14.5225 34.9999 14 34.4774 14 33.8331V27.9999C14 27.6906 14.123 27.3937 14.3418 27.1749L19.0086 22.5085L20.6582 24.1581L16.3332 28.4827V32.6667H28V34.9999Z" fill="#71C5AB"/>
<path d="M20.9998 44.3333H9.33301V42.0001H20.9998C21.6441 42.0001 22.1666 41.4775 22.1666 40.8333V37.3333H24.4998V40.8333C24.4998 42.7665 22.9327 44.3333 20.9998 44.3333Z" fill="#71C5AB"/>
<path d="M46.6668 44.3333H35C33.0671 44.3333 31.5 42.7665 31.5 40.8333V37.3333H33.8332V40.8333C33.8332 41.4775 34.3557 42.0001 35 42.0001H46.6668V44.3333Z" fill="#71C5AB"/>
<path d="M26.833 37.3333H29.1666V44.3333H26.833V37.3333Z" fill="#71C5AB"/>
<path d="M27.9998 25.6669C25.4227 25.6669 23.333 23.5772 23.333 21.0001C23.333 18.4229 25.4227 16.3333 27.9998 16.3333C30.577 16.3333 32.6666 18.4229 32.6666 21.0001C32.6666 23.5772 30.577 25.6669 27.9998 25.6669ZM27.9998 18.6669C26.7112 18.6669 25.6666 19.7115 25.6666 21.0001C25.6666 22.2886 26.7112 23.3333 27.9998 23.3333C29.2884 23.3333 30.333 22.2886 30.333 21.0001C30.333 19.7115 29.2884 18.6669 27.9998 18.6669Z" fill="#71C5AB"/>
</g>
<defs>
<linearGradient id="paint0_linear_1147_314" x1="15.1668" y1="29.7017" x2="3.5" y2="29.7017" gradientUnits="userSpaceOnUse">
<stop stop-color="#00A8BF"/>
<stop offset="0.9969" stop-color="#009769"/>
</linearGradient>
<linearGradient id="paint1_linear_1147_314" x1="52.4998" y1="29.7017" x2="40.833" y2="29.7017" gradientUnits="userSpaceOnUse">
<stop stop-color="#00A8BF"/>
<stop offset="0.9969" stop-color="#009769"/>
</linearGradient>
<linearGradient id="paint2_linear_1147_314" x1="56" y1="51.3209" x2="-1.67922e-06" y2="51.3209" gradientUnits="userSpaceOnUse">
<stop stop-color="#00A8BF"/>
<stop offset="0.9969" stop-color="#009769"/>
</linearGradient>
<clipPath id="clip0_1147_314">
<rect width="56" height="56" fill="white"/>
</clipPath>
</defs>
</svg>
