<svg width="56" height="56" viewBox="0 0 56 56" fill="none" xmlns="http://www.w3.org/2000/svg">
<g clip-path="url(#clip0_918_2928)">
<path d="M5.83319 47.8334H3.5V17.5002C3.50385 14.28 6.11346 11.6708 9.33319 11.667H15.1668V14.0002H9.33319C7.40033 14.0002 5.83319 15.5673 5.83319 17.5002V47.8334Z" fill="#71C5AB"/>
<path d="M52.4998 47.8334H50.1666V17.5002C50.1666 15.5673 48.5995 14.0002 46.6666 14.0002H40.833V11.667H46.6666C49.8864 11.6708 52.496 14.28 52.4998 17.5002V47.8334Z" fill="#71C5AB"/>
<path d="M47.8332 56.0002H8.16681C3.65851 55.9951 0.00512695 52.3417 0 47.8334C0 47.1891 0.522522 46.667 1.16681 46.667H19.8332C20.4775 46.667 21 47.1891 21 47.8334V49.0002H35V47.8334C35 47.1891 35.5225 46.667 36.1668 46.667H54.8332C55.4775 46.667 56 47.1891 56 47.8334C55.9949 52.3417 52.3415 55.9951 47.8332 56.0002ZM2.44983 49.0002C3.00781 51.7145 5.39569 53.664 8.16681 53.667H47.8332C50.6043 53.664 52.9922 51.7145 53.5502 49.0002H37.3332V50.167C37.3332 50.8113 36.8111 51.3334 36.1668 51.3334H19.8332C19.1889 51.3334 18.6668 50.8113 18.6668 50.167V49.0002H2.44983Z" fill="#71C5AB"/>
<path d="M28 35C22.1117 35 17.5 27.313 17.5 17.5C17.5 7.68701 22.1117 0 28 0C33.8883 0 38.5 7.68701 38.5 17.5C38.5 27.313 33.8883 35 28 35ZM28 2.33319C23.5737 2.33319 19.8332 9.2785 19.8332 17.5C19.8332 25.7215 23.5737 32.6668 28 32.6668C32.4263 32.6668 36.1668 25.7215 36.1668 17.5C36.1668 9.2785 32.4263 2.33319 28 2.33319Z" fill="#C9E5DD"/>
<path d="M18.667 11.667H37.3334V14.0002H18.667V11.667Z" fill="#C9E5DD"/>
<path d="M40.8332 35.0002H28V32.667H39.6668V28.483L35.3418 24.1584L36.9914 22.5088L41.6582 27.1752C41.877 27.3939 42 27.6909 42 28.0002V33.8334C42 34.4777 41.4775 35.0002 40.8332 35.0002Z" fill="#C9E5DD"/>
<path d="M28 35.0002H15.1668C14.5225 35.0002 14 34.4777 14 33.8334V28.0002C14 27.6909 14.123 27.3939 14.3418 27.1752L19.0086 22.5088L20.6582 24.1584L16.3332 28.483V32.667H28V35.0002Z" fill="#C9E5DD"/>
<path d="M20.9998 44.333H9.33301V41.9998H20.9998C21.6441 41.9998 22.1666 41.4773 22.1666 40.833V37.333H24.4998V40.833C24.4998 42.7663 22.9327 44.333 20.9998 44.333Z" fill="#C9E5DD"/>
<path d="M46.6668 44.333H35C33.0671 44.333 31.5 42.7663 31.5 40.833V37.333H33.8332V40.833C33.8332 41.4773 34.3557 41.9998 35 41.9998H46.6668V44.333Z" fill="#C9E5DD"/>
<path d="M26.833 37.333H29.1666V44.333H26.833V37.333Z" fill="#C9E5DD"/>
<path d="M27.9998 25.6666C25.4227 25.6666 23.333 23.577 23.333 20.9998C23.333 18.4227 25.4227 16.333 27.9998 16.333C30.577 16.333 32.6666 18.4227 32.6666 20.9998C32.6666 23.577 30.577 25.6666 27.9998 25.6666ZM27.9998 18.6666C26.7112 18.6666 25.6666 19.7112 25.6666 20.9998C25.6666 22.2884 26.7112 23.333 27.9998 23.333C29.2884 23.333 30.333 22.2884 30.333 20.9998C30.333 19.7112 29.2884 18.6666 27.9998 18.6666Z" fill="#C9E5DD"/>
</g>
<defs>
<clipPath id="clip0_918_2928">
<rect width="56" height="56" fill="white"/>
</clipPath>
</defs>
</svg>
