<svg width="56" height="56" viewBox="0 0 56 56" fill="none" xmlns="http://www.w3.org/2000/svg">
<path d="M17 18C15.3457 18 14 19.3457 14 21V36C14 36.1274 14.0244 36.2534 14.0713 36.3716L16.0713 41.3716C16.2236 41.751 16.5913 42 17 42C17.4087 42 17.7764 41.751 17.9287 41.3716L19.9287 36.3716C19.9756 36.2534 20 36.1274 20 36V21C20 19.3457 18.6543 18 17 18ZM16 35V23H18V35H16ZM17 20C17.5513 20 18 20.4487 18 21H16C16 20.4487 16.4487 20 17 20ZM16.4769 37H17.5231L17 38.3076L16.4769 37Z" fill="#71C5AB"/>
<path d="M36.1838 18C36.598 19.1615 37.6976 20 38.9995 20C40.6538 20 41.9995 18.6543 41.9995 17C41.9995 15.3457 40.6538 14 38.9995 14C37.6976 14 36.5979 14.8385 36.1838 16H32.8281L34.8281 18H36.1838ZM38.9995 16C39.5508 16 39.9995 16.4487 39.9995 17C39.9995 17.5513 39.5508 18 38.9995 18C38.4482 18 37.9995 17.5513 37.9995 17C37.9995 16.4487 38.4482 16 38.9995 16Z" fill="url(#paint0_linear_1_74)"/>
<path d="M23 20C24.3019 20 25.4016 19.1615 25.8157 18H27.1714L29.1714 16H25.8157C25.4016 14.8385 24.3019 14 23 14C21.3457 14 20 15.3457 20 17C20 18.6543 21.3457 20 23 20ZM23 16C23.5513 16 24 16.4487 24 17C24 17.5513 23.5513 18 23 18C22.4487 18 22 17.5513 22 17C22 16.4487 22.4487 16 23 16Z" fill="url(#paint1_linear_1_74)"/>
<path d="M25.0713 22.3716L26.5226 26H28.6773L27.1733 22.2407L30 19.4141V22.2781C29.4051 22.625 29 23.2629 29 24C29 25.103 29.897 26 31 26C32.103 26 33 25.103 33 24C33 23.2629 32.5949 22.625 32 22.2781V19.4141L34.8267 22.2407L33.3227 26H35.4774L36.9287 22.3716C37.0771 22 36.9897 21.5757 36.707 21.293L31.707 16.293C31.3164 15.9023 30.6836 15.9023 30.293 16.293L25.293 21.293C25.0103 21.5757 24.9229 22 25.0713 22.3716Z" fill="url(#paint2_linear_1_74)"/>
<path d="M41 37H40V30C40 28.3457 38.6543 27 37 27H25C23.3457 27 22 28.3457 22 30V37H21C20.4478 37 20 37.4478 20 38C20 40.2056 21.7944 42 24 42H38C40.2056 42 42 40.2056 42 38C42 37.4478 41.5522 37 41 37ZM24 30C24 29.4487 24.4487 29 25 29H37C37.5513 29 38 29.4487 38 30V37H24V30ZM38 40H24C23.2612 40 22.6147 39.5972 22.2686 39H39.7314C39.3853 39.5972 38.7388 40 38 40Z" fill="url(#paint3_linear_1_74)"/>
<defs>
<linearGradient id="paint0_linear_1_74" x1="41.9995" y1="16.992" x2="32.8281" y2="16.992" gradientUnits="userSpaceOnUse">
<stop stop-color="#00A8BF"/>
<stop offset="0.9969" stop-color="#009769"/>
</linearGradient>
<linearGradient id="paint1_linear_1_74" x1="29.1714" y1="16.992" x2="20" y2="16.992" gradientUnits="userSpaceOnUse">
<stop stop-color="#00A8BF"/>
<stop offset="0.9969" stop-color="#009769"/>
</linearGradient>
<linearGradient id="paint2_linear_1_74" x1="37.0001" y1="20.9867" x2="24.9999" y2="20.9867" gradientUnits="userSpaceOnUse">
<stop stop-color="#00A8BF"/>
<stop offset="0.9969" stop-color="#009769"/>
</linearGradient>
<linearGradient id="paint3_linear_1_74" x1="42" y1="34.48" x2="20" y2="34.48" gradientUnits="userSpaceOnUse">
<stop stop-color="#00A8BF"/>
<stop offset="0.9969" stop-color="#009769"/>
</linearGradient>
</defs>
</svg>
