<svg width="56" height="56" viewBox="0 0 56 56" fill="none" xmlns="http://www.w3.org/2000/svg">
<path fill-rule="evenodd" clip-rule="evenodd" d="M12.3452 43.7679V45.6131C12.3452 48.5122 14.6955 50.8626 17.5946 50.8626H45.6131C48.5122 50.8626 50.8626 48.5122 50.8626 45.6131V17.5946C50.8626 14.6955 48.5122 12.3452 45.6131 12.3452H43.7679V10.5C43.7679 7.60032 41.4176 5.25 38.5179 5.25H10.5C7.60032 5.25 5.25 7.60032 5.25 10.5V38.5179C5.25 41.4176 7.60032 43.7679 10.5 43.7679H12.3452ZM47.3626 17.5946V45.6126C47.3626 46.5791 46.5791 47.3626 45.6131 47.3626H17.5946C16.6286 47.3626 15.8452 46.5791 15.8452 45.6131V17.5946C15.8452 16.6286 16.6286 15.8452 17.5946 15.8452H45.6126C46.5791 15.8452 47.3626 16.6286 47.3626 17.5946ZM40.2679 12.3452V10.5C40.2679 9.53344 39.4845 8.75 38.5179 8.75H10.5C9.53344 8.75 8.75 9.53344 8.75 10.5V38.5179C8.75 39.4845 9.53344 40.2679 10.5 40.2679H12.3452V17.5946C12.3452 14.6955 14.6955 12.3452 17.5946 12.3452H40.2679Z" fill="url(#paint0_linear_1147_204)"/>
<path fill-rule="evenodd" clip-rule="evenodd" d="M43.75 28V24.5C43.75 21.6003 41.3997 19.25 38.5 19.25H24.5C21.6003 19.25 19.25 21.6003 19.25 24.5V28C19.25 30.8997 21.6003 33.25 24.5 33.25H38.5C41.3997 33.25 43.75 30.8997 43.75 28ZM40.25 24.5V28C40.25 28.9666 39.4666 29.75 38.5 29.75H24.5C23.5334 29.75 22.75 28.9666 22.75 28V24.5C22.75 23.5334 23.5334 22.75 24.5 22.75H38.5C39.4666 22.75 40.25 23.5334 40.25 24.5Z" fill="#71C5AB"/>
<path fill-rule="evenodd" clip-rule="evenodd" d="M22.75 42H40.25C41.216 42 42 41.216 42 40.25C42 39.284 41.216 38.5 40.25 38.5H22.75C21.784 38.5 21 39.284 21 40.25C21 41.216 21.784 42 22.75 42Z" fill="#71C5AB"/>
<defs>
<linearGradient id="paint0_linear_1147_204" x1="50.8626" y1="27.9955" x2="5.25" y2="27.9955" gradientUnits="userSpaceOnUse">
<stop stop-color="#00A8BF"/>
<stop offset="0.9969" stop-color="#009769"/>
</linearGradient>
</defs>
</svg>
