<svg width="56" height="56" viewBox="0 0 56 56" fill="none" xmlns="http://www.w3.org/2000/svg">
<path fill-rule="evenodd" clip-rule="evenodd" d="M26.25 17.5C26.25 18.2373 26.0677 18.932 25.7455 19.5415C27.6318 20.7955 28.875 22.9401 28.875 25.375C28.875 26.3415 28.0915 27.125 27.125 27.125C26.1585 27.125 25.375 26.3415 25.375 25.375C25.375 23.442 23.808 21.875 21.875 21.875C19.942 21.875 18.375 23.442 18.375 25.375C18.375 26.3415 17.5915 27.125 16.625 27.125C15.6585 27.125 14.875 26.3415 14.875 25.375C14.875 22.9401 16.1182 20.7955 18.0045 19.5415C17.6823 18.932 17.5 18.2373 17.5 17.5C17.5 15.0838 19.4588 13.125 21.875 13.125C24.2912 13.125 26.25 15.0838 26.25 17.5ZM21.875 16.625C21.3917 16.625 21 17.0167 21 17.5C21 17.9833 21.3917 18.375 21.875 18.375C22.3583 18.375 22.75 17.9833 22.75 17.5C22.75 17.0167 22.3583 16.625 21.875 16.625Z" fill="#C9E5DD"/>
<path d="M39.375 35.875C40.3415 35.875 41.125 35.0915 41.125 34.125C41.125 33.1585 40.3415 32.375 39.375 32.375H16.625C15.6585 32.375 14.875 33.1585 14.875 34.125C14.875 35.0915 15.6585 35.875 16.625 35.875H39.375Z" fill="#C9E5DD"/>
<path d="M28.875 42.875C28.875 43.8415 28.0915 44.625 27.125 44.625H16.625C15.6585 44.625 14.875 43.8415 14.875 42.875C14.875 41.9085 15.6585 41.125 16.625 41.125H27.125C28.0915 41.125 28.875 41.9085 28.875 42.875Z" fill="#C9E5DD"/>
<path fill-rule="evenodd" clip-rule="evenodd" d="M13.125 1.75C9.25899 1.75 6.125 4.884 6.125 8.75V47.25C6.125 51.116 9.25899 54.25 13.125 54.25H42.875C46.741 54.25 49.875 51.116 49.875 47.25V8.75C49.875 4.884 46.741 1.75 42.875 1.75H13.125ZM9.625 8.75C9.625 6.817 11.192 5.25 13.125 5.25H42.875C44.808 5.25 46.375 6.817 46.375 8.75V47.25C46.375 49.183 44.808 50.75 42.875 50.75H13.125C11.192 50.75 9.625 49.183 9.625 47.25V8.75Z" fill="#71C5AB"/>
</svg>
