<svg width="56" height="56" viewBox="0 0 56 56" fill="none" xmlns="http://www.w3.org/2000/svg">
<path d="M51.0117 35.8355L48.1998 33.4546L46.8011 30.0487L43.1288 29.7659L39.9932 27.8325L36.8576 29.7659L33.1853 30.0487L31.7865 33.4546L28.9746 35.8355L29.8463 39.4165L28.9746 42.9975L31.7865 45.3784L33.1852 48.7843L36.8575 49.0672L39.9932 51.0005L43.1287 49.0672L46.801 48.7844L48.1998 45.3785L51.0117 42.9975L50.14 39.4165L51.0117 35.8355ZM47.9974 42.0162L45.9552 43.7455L44.9376 46.2232L42.2699 46.4286L39.9932 47.8324L37.7165 46.4286L35.0488 46.2231L34.0313 43.7455L31.989 42.0162L32.622 39.4165L31.989 36.8167L34.0313 35.0875L35.0489 32.6099L37.7166 32.4045L39.9932 31.0007L42.27 32.4045L44.9377 32.61L45.9552 35.0876L47.9974 36.8168L47.3645 39.4165L47.9974 42.0162Z" fill="#71C5AB"/>
<path d="M14.1538 33.8406L15.461 35.1478L17.3678 33.241L12.8055 28.6787L8.24316 33.241L10.15 35.1478L11.4572 33.8406V43.0402H23.0131V40.3436H14.1538V33.8406Z" fill="#C9E5DD"/>
<path d="M41.6668 19.2298L40.3597 17.9226L38.4528 19.8295L43.0152 24.3918L47.5775 19.8295L45.6707 17.9226L44.3635 19.2298V10.0303H32.8076V12.727H41.6668V19.2298Z" fill="#C9E5DD"/>
<path d="M20.6054 15.7248C17.1908 15.7248 14.4226 12.9566 14.4226 9.54202C14.4226 7.74603 15.1891 6.12955 16.412 5L14.191 5.18086C11.6892 5.38464 9.36895 6.51383 7.65773 8.36024C5.93634 10.2178 4.98828 12.6363 4.98828 15.1703C4.98828 20.6983 9.48563 25.1956 15.0136 25.1956C17.5476 25.1956 19.9663 24.2476 21.8237 22.5262C23.6703 20.815 24.7994 18.4947 25.003 15.9929L25.1906 13.6891C24.0594 14.9392 22.4242 15.7248 20.6054 15.7248ZM19.9907 20.5483C18.6333 21.8062 16.8657 22.4989 15.0136 22.4989C10.9726 22.4989 7.68496 19.2113 7.68496 15.1703C7.68496 13.3182 8.37774 11.5506 9.63565 10.1933C10.2536 9.52647 10.9799 8.98758 11.7769 8.59504C11.743 8.9083 11.7258 9.22435 11.7258 9.54193C11.7258 14.4382 15.7091 18.4215 20.6053 18.4215C20.9426 18.4215 21.2779 18.4021 21.6098 18.3641C21.2156 19.178 20.6695 19.9193 19.9907 20.5483Z" fill="#71C5AB"/>
<path d="M39.9931 34.1484C37.0883 34.1484 34.7251 36.5116 34.7251 39.4164C34.7251 42.3212 37.0883 44.6844 39.9931 44.6844C42.8978 44.6844 45.261 42.3212 45.261 39.4164C45.261 36.5116 42.8978 34.1484 39.9931 34.1484ZM39.9931 41.9878C38.5752 41.9878 37.4218 40.8343 37.4218 39.4165C37.4218 37.9987 38.5752 36.8452 39.9931 36.8452C41.4109 36.8452 42.5644 37.9987 42.5644 39.4165C42.5644 40.8343 41.4109 41.9878 39.9931 41.9878Z" fill="#71C5AB"/>
</svg>
