<svg width="56" height="56" viewBox="0 0 56 56" fill="none" xmlns="http://www.w3.org/2000/svg">
<path fill-rule="evenodd" clip-rule="evenodd" d="M35.5225 44.5H35.5C33.43 44.5 31.75 46.18 31.75 48.25C31.75 50.32 33.43 52 35.5 52H35.5225C37.585 51.9872 39.25 50.3118 39.25 48.25C39.25 46.1882 37.585 44.5128 35.5225 44.5ZM46.0225 44.5H46C43.93 44.5 42.25 46.18 42.25 48.25C42.25 50.32 43.93 52 46 52H46.0225C48.085 51.9872 49.75 50.3118 49.75 48.25C49.75 46.1882 48.085 44.5128 46.0225 44.5ZM35.5 47.5H35.5075C35.92 47.5053 36.25 47.839 36.25 48.25C36.25 48.661 35.92 48.9948 35.5075 49H35.5C35.0875 49 34.75 48.664 34.75 48.25C34.75 47.836 35.0875 47.5 35.5 47.5ZM46 47.5H46.0075C46.42 47.5053 46.75 47.839 46.75 48.25C46.75 48.661 46.42 48.9948 46.0075 49H46C45.5875 49 45.25 48.664 45.25 48.25C45.25 47.836 45.5875 47.5 46 47.5ZM30.565 26.5H30.55H27.25C26.425 26.5 25.75 27.172 25.75 28C25.75 28.828 26.425 29.5 27.25 29.5H29.32L31.3 39.3828C31.72 41.4858 33.565 43 35.71 43H45.79H45.8125C47.95 42.988 49.7875 41.4775 50.2 39.3828L51.97 30.544C52.06 30.1037 51.9475 29.6462 51.6625 29.299C51.3775 28.9517 50.95 28.75 50.5 28.75H32.23L32.02 27.706C31.885 27.01 31.2775 26.5082 30.565 26.5ZM48.67 31.75H32.83L34.24 38.794C34.3825 39.4952 34.9975 40 35.71 40H45.79H45.805C46.5175 39.9917 47.125 39.49 47.26 38.794L48.67 31.75Z" fill="#71C5AB"/>
<path fill-rule="evenodd" clip-rule="evenodd" d="M6.25 22.4102V43C6.25 46.3135 8.935 49 12.25 49H28.75C29.575 49 30.25 48.328 30.25 47.5C30.25 46.672 29.575 46 28.75 46H12.25C10.5925 46 9.25 44.6567 9.25 43V24.4367C10.18 24.8005 11.1925 25 12.25 25C15.0475 25 17.5075 23.6087 19 21.4817C20.4925 23.6095 22.9525 25 25.75 25C28.5475 25 31.0075 23.6185 32.5 21.4893C33.9925 23.6178 36.4525 25 39.25 25C40.3075 25 41.32 24.8005 42.25 24.4367V25.75C42.25 26.578 42.925 27.25 43.75 27.25C44.575 27.25 45.25 26.578 45.25 25.75V22.4102C46.645 20.932 47.5 18.94 47.5 16.75C47.5 16.75 47.5 13.1328 47.5 10C47.5 8.4085 46.87 6.88225 45.745 5.75725C44.62 4.63225 43.09 4 41.5 4H10C8.41 4 6.87997 4.63225 5.75497 5.75725C4.62997 6.88225 4 8.4085 4 10V16.75C4 18.94 4.855 20.932 6.25 22.4102ZM44.5 16.75V10C44.5 9.20425 44.185 8.4415 43.6225 7.879C43.06 7.31575 42.295 7 41.5 7H10C9.205 7 8.44003 7.31575 7.87753 7.879C7.31503 8.4415 7 9.20425 7 10V16.75C7 19.6473 9.355 22 12.25 22C15.1525 22 17.485 19.642 17.5 16.7425C17.5075 15.9167 18.175 15.25 19 15.25C19.825 15.25 20.4925 15.9167 20.5 16.7425C20.515 19.6435 22.8475 22 25.75 22C28.6525 22 30.9775 19.6592 31 16.7395C31.0075 15.9152 31.675 15.25 32.5 15.25C33.325 15.25 33.9925 15.9145 34 16.7387C34.0225 19.6585 36.3475 22 39.25 22C42.145 22 44.5 19.6473 44.5 16.75Z" fill="url(#paint0_linear_1147_195)"/>
<defs>
<linearGradient id="paint0_linear_1147_195" x1="47.5" y1="26.44" x2="4" y2="26.44" gradientUnits="userSpaceOnUse">
<stop stop-color="#00A8BF"/>
<stop offset="0.9969" stop-color="#009769"/>
</linearGradient>
</defs>
</svg>
