<svg width="56" height="56" viewBox="0 0 56 56" fill="none" xmlns="http://www.w3.org/2000/svg">
<path d="M17.3075 39.8125C18.2556 38.8217 18.8918 37.5742 19.1371 36.225C19.3824 34.8758 19.226 33.4842 18.6873 32.2231C18.1486 30.962 17.2513 29.8869 16.1069 29.1313C14.9625 28.3757 13.6213 27.9729 12.25 27.9729C10.8787 27.9729 9.53751 28.3757 8.3931 29.1313C7.24869 29.8869 6.35142 30.962 5.81272 32.2231C5.27401 33.4842 5.1176 34.8758 5.36289 36.225C5.60819 37.5742 6.24439 38.8217 7.1925 39.8125C5.54653 40.7172 4.17335 42.0468 3.21609 43.6627C2.25883 45.2787 1.75254 47.1218 1.75 49V52.5C1.75 52.9641 1.93437 53.4092 2.26256 53.7374C2.59075 54.0656 3.03587 54.25 3.5 54.25H21C21.4641 54.25 21.9092 54.0656 22.2374 53.7374C22.5656 53.4092 22.75 52.9641 22.75 52.5V49C22.7475 47.1218 22.2412 45.2787 21.2839 43.6627C20.3267 42.0468 18.9535 40.7172 17.3075 39.8125ZM8.75 35C8.75 34.3078 8.95527 33.6311 9.33986 33.0555C9.72444 32.4799 10.2711 32.0313 10.9106 31.7664C11.5501 31.5015 12.2539 31.4322 12.9328 31.5672C13.6117 31.7023 14.2354 32.0356 14.7249 32.5251C15.2144 33.0146 15.5477 33.6382 15.6827 34.3172C15.8178 34.9961 15.7485 35.6998 15.4836 36.3394C15.2187 36.9789 14.7701 37.5256 14.1945 37.9101C13.6189 38.2947 12.9422 38.5 12.25 38.5C11.3217 38.5 10.4315 38.1312 9.77513 37.4749C9.11875 36.8185 8.75 35.9283 8.75 35ZM19.25 50.75H5.25V49C5.25 47.1435 5.9875 45.363 7.30025 44.0502C8.61301 42.7375 10.3935 42 12.25 42C14.1065 42 15.887 42.7375 17.1997 44.0502C18.5125 45.363 19.25 47.1435 19.25 49V50.75Z" fill="url(#paint0_linear_1147_299)"/>
<path d="M52.5 33.25H28C27.5359 33.25 27.0908 33.4344 26.7626 33.7626C26.4344 34.0908 26.25 34.5359 26.25 35V52.5C26.25 52.9641 26.4344 53.4093 26.7626 53.7374C27.0908 54.0656 27.5359 54.25 28 54.25H52.5C52.9641 54.25 53.4093 54.0656 53.7374 53.7374C54.0656 53.4093 54.25 52.9641 54.25 52.5V35C54.25 34.5359 54.0656 34.0908 53.7374 33.7626C53.4093 33.4344 52.9641 33.25 52.5 33.25ZM50.75 50.75H29.75V36.75H50.75V50.75Z" fill="#71C5AB"/>
<path d="M38.5 39.375H48.125V42.875H38.5V39.375Z" fill="#71C5AB"/>
<path d="M32.375 39.375H36.75V42.875H32.375V39.375Z" fill="#71C5AB"/>
<path d="M32.375 44.625H48.125V48.125H32.375V44.625Z" fill="#71C5AB"/>
<path d="M48.8075 13.5625C49.7556 12.5717 50.3918 11.3242 50.6371 9.975C50.8824 8.62577 50.726 7.23421 50.1873 5.9731C49.6486 4.71199 48.7513 3.63689 47.6069 2.8813C46.4625 2.12571 45.1213 1.7229 43.75 1.7229C42.3787 1.7229 41.0375 2.12571 39.8931 2.8813C38.7487 3.63689 37.8514 4.71199 37.3127 5.9731C36.774 7.23421 36.6176 8.62577 36.8629 9.975C37.1082 11.3242 37.7444 12.5717 38.6925 13.5625C37.0465 14.4672 35.6733 15.7968 34.7161 17.4127C33.7588 19.0287 33.2525 20.8718 33.25 22.75V26.25C33.25 26.7141 33.4344 27.1592 33.7626 27.4874C34.0908 27.8156 34.5359 28 35 28H52.5C52.9641 28 53.4093 27.8156 53.7374 27.4874C54.0656 27.1592 54.25 26.7141 54.25 26.25V22.75C54.2475 20.8718 53.7412 19.0287 52.7839 17.4127C51.8267 15.7968 50.4535 14.4672 48.8075 13.5625ZM40.25 8.75C40.25 8.05776 40.4553 7.38107 40.8399 6.8055C41.2244 6.22993 41.7711 5.78132 42.4106 5.51642C43.0501 5.25151 43.7539 5.1822 44.4328 5.31725C45.1117 5.4523 45.7354 5.78564 46.2249 6.27512C46.7144 6.76461 47.0477 7.38825 47.1827 8.06718C47.3178 8.74611 47.2485 9.44985 46.9836 10.0894C46.7187 10.7289 46.2701 11.2756 45.6945 11.6601C45.1189 12.0447 44.4422 12.25 43.75 12.25C42.8217 12.25 41.9315 11.8812 41.2751 11.2249C40.6187 10.5685 40.25 9.67825 40.25 8.75ZM50.75 24.5H36.75V22.75C36.75 20.8935 37.4875 19.113 38.8003 17.8002C40.113 16.4875 41.8935 15.75 43.75 15.75C45.6065 15.75 47.387 16.4875 48.6997 17.8002C50.0125 19.113 50.75 20.8935 50.75 22.75V24.5Z" fill="url(#paint1_linear_1147_299)"/>
<path d="M3.5 22.75H28C28.4641 22.75 28.9093 22.5656 29.2374 22.2374C29.5656 21.9092 29.75 21.4641 29.75 21V3.5C29.75 3.03587 29.5656 2.59075 29.2374 2.26256C28.9093 1.93437 28.4641 1.75 28 1.75H3.5C3.03587 1.75 2.59075 1.93437 2.26256 2.26256C1.93437 2.59075 1.75 3.03587 1.75 3.5V21C1.75 21.4641 1.93437 21.9092 2.26256 22.2374C2.59075 22.5656 3.03587 22.75 3.5 22.75ZM5.25 5.25H26.25V19.25H5.25V5.25Z" fill="#71C5AB"/>
<path d="M7.875 7.875H17.5V11.375H7.875V7.875Z" fill="#71C5AB"/>
<path d="M19.25 7.875H23.625V11.375H19.25V7.875Z" fill="#71C5AB"/>
<path d="M7.875 13.125H23.625V16.625H7.875V13.125Z" fill="#71C5AB"/>
<defs>
<linearGradient id="paint0_linear_1147_299" x1="22.75" y1="41.0764" x2="1.75" y2="41.0764" gradientUnits="userSpaceOnUse">
<stop stop-color="#00A8BF"/>
<stop offset="0.9969" stop-color="#009769"/>
</linearGradient>
<linearGradient id="paint1_linear_1147_299" x1="54.25" y1="14.8264" x2="33.25" y2="14.8264" gradientUnits="userSpaceOnUse">
<stop stop-color="#00A8BF"/>
<stop offset="0.9969" stop-color="#009769"/>
</linearGradient>
</defs>
</svg>
