<svg width="56" height="56" viewBox="0 0 56 56" fill="none" xmlns="http://www.w3.org/2000/svg">
<path d="M9.51562 16.625C11.9319 16.625 13.8906 14.6662 13.8906 12.25C13.8906 9.83375 11.9319 7.875 9.51562 7.875C7.09938 7.875 5.14062 9.83375 5.14062 12.25C5.14062 14.6662 7.09938 16.625 9.51562 16.625Z" stroke="#71C5AB" stroke-width="3" stroke-miterlimit="10" stroke-linecap="round" stroke-linejoin="round"/>
<path d="M9.51562 16.625C5.16644 16.625 1.64062 20.1508 1.64062 24.5H17.3906C17.3906 20.1508 13.8649 16.625 9.51562 16.625Z" stroke="#71C5AB" stroke-width="3" stroke-miterlimit="10" stroke-linecap="round" stroke-linejoin="round"/>
<path d="M35.9844 18.375L39.375 9.625L42.9844 18.375" stroke="url(#paint0_linear_1147_224)" stroke-width="3" stroke-miterlimit="10" stroke-linecap="round" stroke-linejoin="round"/>
<path d="M36.75 16.625H42" stroke="url(#paint1_linear_1147_224)" stroke-width="3" stroke-miterlimit="10" stroke-linecap="round" stroke-linejoin="round"/>
<path d="M24.5 7V10.5L21 14L24.5 17.5V21C24.5 22.933 26.067 24.5 28 24.5H50.8594C52.7924 24.5 54.3594 22.933 54.3594 21V7C54.3594 5.06702 52.7924 3.5 50.8594 3.5H28C26.067 3.5 24.5 5.06702 24.5 7Z" stroke="url(#paint2_linear_1147_224)" stroke-width="3" stroke-miterlimit="10" stroke-linecap="round" stroke-linejoin="round"/>
<path d="M46.4844 44.625C48.9006 44.625 50.8594 42.6662 50.8594 40.25C50.8594 37.8338 48.9006 35.875 46.4844 35.875C44.0681 35.875 42.1094 37.8338 42.1094 40.25C42.1094 42.6662 44.0681 44.625 46.4844 44.625Z" stroke="#71C5AB" stroke-width="3" stroke-miterlimit="10" stroke-linecap="round" stroke-linejoin="round"/>
<path d="M46.4844 44.625C50.8336 44.625 54.3594 48.1508 54.3594 52.5H38.6094C38.6094 48.1508 42.1352 44.625 46.4844 44.625Z" stroke="#71C5AB" stroke-width="3" stroke-miterlimit="10" stroke-linecap="round" stroke-linejoin="round"/>
<path d="M31.5 35V38.5L35 42L31.5 45.5V49C31.5 50.933 29.933 52.5 28 52.5H5.14062C3.20764 52.5 1.64062 50.933 1.64062 49V35C1.64062 33.067 3.20764 31.5 5.14062 31.5H28C29.933 31.5 31.5 33.067 31.5 35Z" stroke="url(#paint3_linear_1147_224)" stroke-width="3" stroke-miterlimit="10" stroke-linecap="round" stroke-linejoin="round"/>
<path d="M19.25 41.125H14" stroke="url(#paint4_linear_1147_224)" stroke-width="3" stroke-miterlimit="10" stroke-linecap="round" stroke-linejoin="round"/>
<path d="M16.625 42.875V37.625" stroke="url(#paint5_linear_1147_224)" stroke-width="3" stroke-miterlimit="10" stroke-linecap="round" stroke-linejoin="round"/>
<path d="M20.125 46.375C18.192 46.375 16.625 44.808 16.625 42.875C16.625 44.808 15.058 46.375 13.125 46.375" stroke="url(#paint6_linear_1147_224)" stroke-width="3" stroke-miterlimit="10" stroke-linecap="round" stroke-linejoin="round"/>
<defs>
<linearGradient id="paint0_linear_1147_224" x1="42.9844" y1="13.9883" x2="35.9844" y2="13.9883" gradientUnits="userSpaceOnUse">
<stop stop-color="#00A8BF"/>
<stop offset="0.9969" stop-color="#009769"/>
</linearGradient>
<linearGradient id="paint1_linear_1147_224" x1="42" y1="17.1237" x2="36.75" y2="17.1237" gradientUnits="userSpaceOnUse">
<stop stop-color="#00A8BF"/>
<stop offset="0.9969" stop-color="#009769"/>
</linearGradient>
<linearGradient id="paint2_linear_1147_224" x1="54.3594" y1="13.972" x2="21" y2="13.972" gradientUnits="userSpaceOnUse">
<stop stop-color="#00A8BF"/>
<stop offset="0.9969" stop-color="#009769"/>
</linearGradient>
<linearGradient id="paint3_linear_1147_224" x1="35" y1="41.972" x2="1.64062" y2="41.972" gradientUnits="userSpaceOnUse">
<stop stop-color="#00A8BF"/>
<stop offset="0.9969" stop-color="#009769"/>
</linearGradient>
<linearGradient id="paint4_linear_1147_224" x1="19.25" y1="41.6237" x2="14" y2="41.6237" gradientUnits="userSpaceOnUse">
<stop stop-color="#00A8BF"/>
<stop offset="0.9969" stop-color="#009769"/>
</linearGradient>
<linearGradient id="paint5_linear_1147_224" x1="17.625" y1="40.243" x2="16.625" y2="40.243" gradientUnits="userSpaceOnUse">
<stop stop-color="#00A8BF"/>
<stop offset="0.9969" stop-color="#009769"/>
</linearGradient>
<linearGradient id="paint6_linear_1147_224" x1="20.125" y1="44.6203" x2="13.125" y2="44.6203" gradientUnits="userSpaceOnUse">
<stop stop-color="#00A8BF"/>
<stop offset="0.9969" stop-color="#009769"/>
</linearGradient>
</defs>
</svg>
