<svg width="56" height="56" viewBox="0 0 56 56" fill="none" xmlns="http://www.w3.org/2000/svg">
<g clip-path="url(#clip0_1147_143)">
<path d="M17.543 0.273228C11.7462 1.10448 6.69303 4.27635 3.40084 9.18729C1.92428 11.3857 0.939903 13.7154 0.371153 16.3732C0.0211534 17.9701 -0.110097 21.4264 0.108653 23.1435C1.13678 31.3248 7.17428 38.2592 15.1149 40.3482C17.1821 40.8951 18.5602 41.0482 20.9993 40.9826C22.5962 40.9498 23.4274 40.8732 24.3352 40.6982C30.5258 39.4514 35.6555 35.6232 38.5868 30.0779C40.7852 25.9217 41.4524 20.956 40.468 16.2092C39.6149 12.1404 37.2415 8.04979 34.1243 5.2826C31.368 2.8326 27.8571 1.10448 24.2696 0.42635C22.6399 0.120102 19.1837 0.0435371 17.543 0.273228ZM21.7102 4.81229C23.9087 5.0201 25.6696 5.51229 27.3977 6.36541C31.8712 8.6076 34.879 12.5232 35.9508 17.4998C36.2352 18.8123 36.2352 22.3014 35.9508 23.6248C35.5024 25.692 34.7587 27.5076 33.654 29.181C31.2805 32.7685 27.879 35.0873 23.6243 36.0389C22.3337 36.3232 19.4571 36.3779 17.9915 36.1482C11.3196 35.1092 6.15709 30.0342 4.84459 23.242C4.59303 21.8967 4.59303 19.2279 4.84459 17.8826C5.80709 12.8951 8.85865 8.73885 13.179 6.54041C15.1149 5.55604 16.9415 5.00916 18.9212 4.82323C20.2774 4.69198 20.3868 4.69198 21.7102 4.81229Z" fill="url(#paint0_linear_1147_143)"/>
<path d="M12.7414 12.2391C12.4242 12.3703 11.4945 13.3875 10.9476 14.2078C10.3351 15.1047 9.82105 16.2312 9.44917 17.4563C9.05542 18.7688 8.95698 21.3609 9.24136 22.7609C9.64605 24.7625 10.5976 26.6875 11.8992 28.1094C12.5664 28.8422 12.621 28.875 13.0804 28.875C13.7367 28.875 14.1085 28.525 14.1085 27.9125C14.1085 27.5406 14.0101 27.3656 13.4632 26.7094C12.5664 25.6375 11.9976 24.6312 11.582 23.4062C11.2757 22.5094 11.221 22.1813 11.1882 20.9453C11.0898 18.2984 11.8117 16.2859 13.5507 14.2953C14.021 13.7594 14.1085 13.5844 14.1085 13.2344C14.1085 12.5125 13.3757 11.9766 12.7414 12.2391Z" fill="#C9E5DD"/>
<path d="M37.625 34.7921C37.0125 35.5796 35.5906 37.0015 34.6172 37.8218L34.0703 38.2811L36.1594 40.3811C38.2594 42.4921 38.2594 42.4921 38.3031 43.039C38.3359 43.3343 38.4891 43.8811 38.6531 44.253C38.9156 44.8436 39.4734 45.4343 44.1109 50.0718C50.1266 56.0765 49.8094 55.8358 51.7344 55.8358C52.7516 55.8358 52.9484 55.803 53.5172 55.5405C54.3922 55.1249 55.2453 54.2827 55.6281 53.4515C55.9125 52.839 55.9453 52.664 55.9453 51.6249C55.9453 50.553 55.9234 50.4218 55.5844 49.7108C55.2453 48.9999 54.8953 48.6171 50.1703 43.914C44.6469 38.4015 44.6687 38.4233 43.1375 38.1718L42.3828 38.0405L40.3594 36.028C39.2438 34.9233 38.3141 34.0155 38.2812 34.0265C38.2484 34.0265 37.9531 34.3655 37.625 34.7921Z" fill="url(#paint1_linear_1147_143)"/>
</g>
<defs>
<linearGradient id="paint0_linear_1147_143" x1="40.9113" y1="20.6227" x2="0.00170776" y2="20.6227" gradientUnits="userSpaceOnUse">
<stop stop-color="#00A8BF"/>
<stop offset="0.9969" stop-color="#009769"/>
</linearGradient>
<linearGradient id="paint1_linear_1147_143" x1="55.9453" y1="44.9608" x2="34.0703" y2="44.9608" gradientUnits="userSpaceOnUse">
<stop stop-color="#00A8BF"/>
<stop offset="0.9969" stop-color="#009769"/>
</linearGradient>
<clipPath id="clip0_1147_143">
<rect width="56" height="56" fill="white"/>
</clipPath>
</defs>
</svg>
