<svg width="56" height="56" viewBox="0 0 56 56" fill="none" xmlns="http://www.w3.org/2000/svg">
<path d="M49 21H7C6.53587 21 6.09075 20.8156 5.76256 20.4874C5.43437 20.1592 5.25 19.7141 5.25 19.25V12.25C5.25 10.8576 5.80312 9.52226 6.78769 8.53769C7.77226 7.55312 9.10761 7 10.5 7H45.5C46.8924 7 48.2277 7.55312 49.2123 8.53769C50.1969 9.52226 50.75 10.8576 50.75 12.25V19.25C50.75 19.7141 50.5656 20.1592 50.2374 20.4874C49.9092 20.8156 49.4641 21 49 21ZM8.75 17.5H47.25V12.25C47.25 11.7859 47.0656 11.3408 46.7374 11.0126C46.4092 10.6844 45.9641 10.5 45.5 10.5H10.5C10.0359 10.5 9.59075 10.6844 9.26256 11.0126C8.93437 11.3408 8.75 11.7859 8.75 12.25V17.5Z" fill="url(#paint0_linear_1147_152)"/>
<path d="M45.5 49H10.5C9.10761 49 7.77226 48.4469 6.78769 47.4623C5.80312 46.4777 5.25 45.1424 5.25 43.75V12.25C5.25 10.8576 5.80312 9.52226 6.78769 8.53769C7.77226 7.55312 9.10761 7 10.5 7H45.5C46.8924 7 48.2277 7.55312 49.2123 8.53769C50.1969 9.52226 50.75 10.8576 50.75 12.25V43.75C50.75 45.1424 50.1969 46.4777 49.2123 47.4623C48.2277 48.4469 46.8924 49 45.5 49ZM10.5 10.5C10.0359 10.5 9.59075 10.6844 9.26256 11.0126C8.93437 11.3408 8.75 11.7859 8.75 12.25V43.75C8.75 44.2141 8.93437 44.6592 9.26256 44.9874C9.59075 45.3156 10.0359 45.5 10.5 45.5H45.5C45.9641 45.5 46.4092 45.3156 46.7374 44.9874C47.0656 44.6592 47.25 44.2141 47.25 43.75V12.25C47.25 11.7859 47.0656 11.3408 46.7374 11.0126C46.4092 10.6844 45.9641 10.5 45.5 10.5H10.5Z" fill="url(#paint1_linear_1147_152)"/>
<path d="M14 15.7499C13.8827 15.7461 13.7657 15.7344 13.65 15.7149C13.5403 15.6958 13.4342 15.6605 13.335 15.6099C13.223 15.5713 13.1166 15.5184 13.0183 15.4524C12.9275 15.3874 12.8404 15.3172 12.7575 15.2424C12.4373 14.9073 12.2559 14.4633 12.25 13.9999C12.253 13.8825 12.2647 13.7655 12.285 13.6499C12.3041 13.5402 12.3394 13.4341 12.39 13.3349C12.4282 13.2234 12.4812 13.1174 12.5475 13.0199C12.6121 12.9282 12.6822 12.8405 12.7575 12.7574L13.0183 12.5474C13.1166 12.4814 13.223 12.4285 13.335 12.3899C13.4342 12.3393 13.5403 12.304 13.65 12.2849C13.9339 12.2313 14.2265 12.2463 14.5034 12.3285C14.7804 12.4106 15.0338 12.5577 15.2425 12.7574C15.3178 12.8405 15.3879 12.9282 15.4525 13.0199C15.518 13.1179 15.571 13.2237 15.61 13.3349C15.6609 13.4338 15.6957 13.5401 15.7133 13.6499C15.735 13.7654 15.7473 13.8824 15.75 13.9999C15.7523 14.2304 15.7087 14.459 15.6216 14.6724C15.5344 14.8857 15.4056 15.0796 15.2427 15.2426C15.0797 15.4055 14.8858 15.5343 14.6725 15.6215C14.4591 15.7086 14.2305 15.7522 14 15.7499Z" fill="url(#paint2_linear_1147_152)"/>
<path d="M19.2501 15.7499C18.9024 15.7579 18.5609 15.6578 18.2725 15.4635C17.9841 15.2692 17.7632 14.9901 17.6401 14.6649C17.5504 14.4545 17.5029 14.2286 17.5001 13.9999C17.4974 13.7413 17.5527 13.4855 17.6618 13.251C17.7709 13.0166 17.9311 12.8096 18.1306 12.6451C18.3301 12.4806 18.5639 12.3629 18.8149 12.3006C19.0658 12.2383 19.3275 12.2329 19.5808 12.2849C19.6973 12.3012 19.8102 12.3367 19.9151 12.3899C20.0265 12.4285 20.1324 12.4814 20.2301 12.5474C20.3215 12.6124 20.4091 12.6825 20.4926 12.7574L20.7026 13.0199C20.7681 13.1178 20.8211 13.2237 20.8601 13.3349C20.911 13.4338 20.9458 13.5401 20.9633 13.6499C20.9851 13.7654 20.9974 13.8824 21.0001 13.9999C20.9973 14.2286 20.9498 14.4545 20.8601 14.6649C20.7713 14.8769 20.647 15.0722 20.4926 15.2424C20.4091 15.3173 20.3215 15.3874 20.2301 15.4524C20.1324 15.5183 20.0265 15.5713 19.9151 15.6099C19.8102 15.6631 19.6973 15.6986 19.5808 15.7149C19.4717 15.7353 19.3611 15.747 19.2501 15.7499Z" fill="url(#paint3_linear_1147_152)"/>
<path d="M24.5 15.7501C24.0367 15.7437 23.5929 15.5624 23.2575 15.2426C23.1031 15.0724 22.9788 14.8771 22.89 14.6651C22.7919 14.4575 22.744 14.2297 22.75 14.0001C22.753 13.8827 22.7647 13.7658 22.785 13.6501C22.8041 13.5405 22.8395 13.4343 22.89 13.3351C22.9283 13.2236 22.9812 13.1176 23.0475 13.0201C23.1121 12.9284 23.1822 12.8408 23.2575 12.7576C23.5959 12.4454 24.0395 12.272 24.5 12.272C24.9605 12.272 25.4041 12.4454 25.7425 12.7576L25.9525 13.0201C26.0181 13.1181 26.071 13.2239 26.11 13.3351C26.1609 13.434 26.1957 13.5403 26.2133 13.6501C26.235 13.7656 26.2473 13.8826 26.25 14.0001C26.2473 14.2288 26.1997 14.4547 26.11 14.6651C26.0212 14.8771 25.897 15.0724 25.7425 15.2426C25.407 15.5621 24.9633 15.7433 24.5 15.7501Z" fill="url(#paint4_linear_1147_152)"/>
<path d="M35.0001 36.75H34.6676C34.3349 36.7502 34.0091 36.6556 33.7283 36.4773C33.4474 36.2989 33.2233 36.0442 33.082 35.743C32.9408 35.4418 32.8884 35.1066 32.9308 34.7766C32.9733 34.4467 33.1089 34.1356 33.3218 33.88L38.1868 28.0368C38.332 27.8546 38.5121 27.7033 38.7165 27.5916C38.9209 27.48 39.1456 27.4102 39.3773 27.3865C39.609 27.3628 39.8432 27.3856 40.0659 27.4536C40.2887 27.5215 40.4957 27.6333 40.6748 27.7823C40.8538 27.9313 41.0013 28.1145 41.1086 28.3212C41.2159 28.528 41.2809 28.7541 41.2997 28.9862C41.3185 29.2184 41.2908 29.452 41.2181 29.6733C41.1454 29.8946 41.0293 30.0992 40.8766 30.275L36.7308 35.2555C36.6696 35.6708 36.461 36.0502 36.1433 36.3246C35.8256 36.5989 35.4199 36.7499 35.0001 36.75Z" fill="#71C5AB"/>
<path d="M16.7301 39.27C16.384 39.2699 16.0458 39.1672 15.758 38.9749C15.4703 38.7826 15.2461 38.5093 15.1137 38.1896C14.9812 37.8699 14.9466 37.5181 15.0141 37.1787C15.0816 36.8392 15.2482 36.5275 15.4928 36.2827L20.5328 31.2427C20.8629 30.9239 21.305 30.7475 21.7638 30.7515C22.2226 30.7555 22.6616 30.9396 22.986 31.264C23.3105 31.5885 23.4945 32.0274 23.4985 32.4863C23.5025 32.9451 23.3261 33.3872 23.0073 33.7172L17.9673 38.7572C17.6392 39.0854 17.1942 39.2699 16.7301 39.27Z" fill="#71C5AB"/>
<path d="M31.9884 37.87C31.7181 37.8697 31.4515 37.8068 31.2096 37.6862L24.4004 34.3C23.985 34.0928 23.6689 33.729 23.5217 33.2887C23.3745 32.8485 23.4083 32.3678 23.6155 31.9524C23.8227 31.537 24.1865 31.2209 24.6267 31.0737C25.067 30.9265 25.5477 30.9603 25.9631 31.1675L32.7724 34.5625C33.1256 34.7386 33.409 35.0289 33.5765 35.3863C33.7439 35.7437 33.7856 36.1472 33.6948 36.5314C33.604 36.9155 33.386 37.2576 33.0762 37.5022C32.7664 37.7468 32.3831 37.8795 31.9884 37.8787V37.87Z" fill="#71C5AB"/>
<path d="M41.125 31.5C40.2597 31.5 39.4138 31.2434 38.6944 30.7627C37.9749 30.282 37.4142 29.5987 37.083 28.7992C36.7519 27.9998 36.6653 27.1201 36.8341 26.2715C37.0029 25.4228 37.4196 24.6433 38.0314 24.0314C38.6433 23.4196 39.4228 23.0029 40.2715 22.8341C41.1201 22.6653 41.9998 22.7519 42.7992 23.083C43.5987 23.4142 44.282 23.9749 44.7627 24.6944C45.2434 25.4138 45.5 26.2597 45.5 27.125C45.5 28.2853 45.0391 29.3981 44.2186 30.2186C43.3981 31.0391 42.2853 31.5 41.125 31.5ZM41.125 26.25C40.9519 26.25 40.7828 26.3013 40.6389 26.3975C40.495 26.4936 40.3828 26.6303 40.3166 26.7902C40.2504 26.95 40.2331 27.126 40.2668 27.2957C40.3006 27.4654 40.3839 27.6214 40.5063 27.7437C40.6287 27.8661 40.7846 27.9494 40.9543 27.9832C41.124 28.017 41.3 27.9996 41.4598 27.9334C41.6197 27.8672 41.7564 27.755 41.8525 27.6111C41.9487 27.4672 42 27.2981 42 27.125C42 26.8929 41.9078 26.6704 41.7437 26.5063C41.5796 26.3422 41.3571 26.25 41.125 26.25Z" fill="#71C5AB"/>
<path d="M34.125 42C33.2597 42 32.4138 41.7434 31.6944 41.2627C30.9749 40.782 30.4142 40.0987 30.083 39.2992C29.7519 38.4998 29.6653 37.6201 29.8341 36.7715C30.0029 35.9228 30.4196 35.1433 31.0314 34.5314C31.6433 33.9196 32.4228 33.5029 33.2715 33.3341C34.1201 33.1653 34.9998 33.2519 35.7992 33.583C36.5987 33.9142 37.282 34.4749 37.7627 35.1944C38.2434 35.9138 38.5 36.7597 38.5 37.625C38.5 38.1995 38.3868 38.7684 38.167 39.2992C37.9471 39.83 37.6249 40.3123 37.2186 40.7186C36.8123 41.1249 36.33 41.4471 35.7992 41.667C35.2684 41.8868 34.6995 42 34.125 42ZM34.125 36.75C33.9519 36.75 33.7828 36.8013 33.6389 36.8975C33.495 36.9936 33.3828 37.1303 33.3166 37.2902C33.2504 37.45 33.2331 37.626 33.2668 37.7957C33.3006 37.9654 33.3839 38.1214 33.5063 38.2437C33.6287 38.3661 33.7846 38.4494 33.9543 38.4832C34.124 38.517 34.3 38.4996 34.4598 38.4334C34.6197 38.3672 34.7564 38.255 34.8525 38.1111C34.9487 37.9672 35 37.7981 35 37.625C35 37.3929 34.9078 37.1704 34.7437 37.0063C34.5796 36.8422 34.3571 36.75 34.125 36.75Z" fill="#71C5AB"/>
<path d="M14.875 43.75C14.0097 43.75 13.1638 43.4934 12.4444 43.0127C11.7249 42.532 11.1642 41.8487 10.833 41.0492C10.5019 40.2498 10.4153 39.3701 10.5841 38.5215C10.7529 37.6728 11.1696 36.8933 11.7814 36.2814C12.3933 35.6696 13.1728 35.2529 14.0215 35.0841C14.8701 34.9153 15.7498 35.0019 16.5492 35.333C17.3487 35.6642 18.032 36.2249 18.5127 36.9444C18.9934 37.6638 19.25 38.5097 19.25 39.375C19.25 40.5353 18.7891 41.6481 17.9686 42.4686C17.1481 43.2891 16.0353 43.75 14.875 43.75ZM14.875 38.5C14.7019 38.5 14.5328 38.5513 14.3889 38.6475C14.245 38.7436 14.1328 38.8803 14.0666 39.0402C14.0004 39.2 13.9831 39.376 14.0168 39.5457C14.0506 39.7154 14.1339 39.8714 14.2563 39.9937C14.3787 40.1161 14.5346 40.1994 14.7043 40.2332C14.874 40.267 15.05 40.2496 15.2099 40.1834C15.3697 40.1172 15.5064 40.005 15.6025 39.8611C15.6987 39.7172 15.75 39.5481 15.75 39.375C15.75 39.1429 15.6578 38.9204 15.4937 38.7563C15.3296 38.5922 15.1071 38.5 14.875 38.5Z" fill="#71C5AB"/>
<path d="M23.625 35C22.7597 35 21.9138 34.7434 21.1944 34.2627C20.4749 33.782 19.9142 33.0987 19.583 32.2992C19.2519 31.4998 19.1653 30.6201 19.3341 29.7715C19.5029 28.9228 19.9196 28.1433 20.5314 27.5314C21.1433 26.9196 21.9228 26.5029 22.7715 26.3341C23.6201 26.1653 24.4998 26.2519 25.2992 26.583C26.0987 26.9142 26.782 27.4749 27.2627 28.1944C27.7434 28.9138 28 29.7597 28 30.625C28 31.7853 27.5391 32.8981 26.7186 33.7186C25.8981 34.5391 24.7853 35 23.625 35ZM23.625 29.75C23.4519 29.75 23.2828 29.8013 23.1389 29.8975C22.995 29.9936 22.8828 30.1303 22.8166 30.2902C22.7504 30.45 22.7331 30.626 22.7668 30.7957C22.8006 30.9654 22.8839 31.1214 23.0063 31.2437C23.1287 31.3661 23.2846 31.4494 23.4543 31.4832C23.624 31.517 23.8 31.4996 23.9599 31.4334C24.1197 31.3672 24.2564 31.255 24.3525 31.1111C24.4487 30.9672 24.5 30.7981 24.5 30.625C24.5 30.3929 24.4078 30.1704 24.2437 30.0063C24.0796 29.8422 23.8571 29.75 23.625 29.75Z" fill="#71C5AB"/>
<defs>
<linearGradient id="paint0_linear_1147_152" x1="50.75" y1="13.9813" x2="5.25" y2="13.9813" gradientUnits="userSpaceOnUse">
<stop stop-color="#00A8BF"/>
<stop offset="0.9969" stop-color="#009769"/>
</linearGradient>
<linearGradient id="paint1_linear_1147_152" x1="50.75" y1="27.944" x2="5.25" y2="27.944" gradientUnits="userSpaceOnUse">
<stop stop-color="#00A8BF"/>
<stop offset="0.9969" stop-color="#009769"/>
</linearGradient>
<linearGradient id="paint2_linear_1147_152" x1="15.7501" y1="13.997" x2="12.25" y2="13.997" gradientUnits="userSpaceOnUse">
<stop stop-color="#00A8BF"/>
<stop offset="0.9969" stop-color="#009769"/>
</linearGradient>
<linearGradient id="paint3_linear_1147_152" x1="21.0001" y1="13.9953" x2="17.5" y2="13.9953" gradientUnits="userSpaceOnUse">
<stop stop-color="#00A8BF"/>
<stop offset="0.9969" stop-color="#009769"/>
</linearGradient>
<linearGradient id="paint4_linear_1147_152" x1="26.25" y1="14.0064" x2="22.7495" y2="14.0064" gradientUnits="userSpaceOnUse">
<stop stop-color="#00A8BF"/>
<stop offset="0.9969" stop-color="#009769"/>
</linearGradient>
</defs>
</svg>
