<svg width="56" height="56" viewBox="0 0 56 56" fill="none" xmlns="http://www.w3.org/2000/svg">
<path d="M40.7227 22.1715H15.2759V20.0526H40.7227V15.8926C40.7227 15.5895 40.6023 15.2988 40.388 15.0845C40.1737 14.8702 39.883 14.7498 39.5799 14.7498H16.4187C16.1156 14.7498 15.8249 14.8702 15.6106 15.0845C15.3963 15.2988 15.2759 15.5895 15.2759 15.8926L15.2461 39.0515C15.2455 39.2017 15.2747 39.3506 15.3319 39.4896C15.3891 39.6285 15.4733 39.7547 15.5795 39.861C15.6858 39.9672 15.812 40.0514 15.9509 40.1086C16.0899 40.1658 16.2387 40.1949 16.389 40.1943H37.4473C37.5866 40.1943 37.7245 40.2217 37.8532 40.275C37.9819 40.3283 38.0988 40.4064 38.1973 40.5049C38.2958 40.6034 38.374 40.7203 38.4273 40.849C38.4806 40.9777 38.508 41.1156 38.508 41.2549C38.508 41.3942 38.4806 41.5321 38.4273 41.6608C38.374 41.7895 38.2958 41.9064 38.1973 42.0049C38.0988 42.1034 37.9819 42.1815 37.8532 42.2348C37.7245 42.2881 37.5866 42.3155 37.4473 42.3155H15.413H15.4084C14.8026 42.3149 14.2218 42.0738 13.7937 41.6452C13.3655 41.2166 13.125 40.6356 13.125 40.0298L13.1547 14.9121C13.1547 14.3058 13.3955 13.7245 13.8242 13.2958C14.2528 12.8672 14.8342 12.6263 15.4404 12.6263H40.5559C41.1621 12.6263 41.7434 12.8672 42.1721 13.2958C42.6008 13.7245 42.8416 14.3058 42.8416 14.9121V36.8892C42.8289 37.1617 42.7118 37.4188 42.5145 37.6071C42.3172 37.7955 42.0549 37.9005 41.7821 37.9005C41.5094 37.9005 41.2471 37.7955 41.0498 37.6071C40.8525 37.4188 40.7354 37.1617 40.7227 36.8892V22.1715ZM18.4576 18.7452C18.3143 18.7519 18.1712 18.7294 18.0368 18.6791C17.9025 18.6289 17.7798 18.5519 17.676 18.4529C17.5723 18.3539 17.4897 18.2348 17.4333 18.103C17.3769 17.9711 17.3478 17.8292 17.3478 17.6858C17.3478 17.5424 17.3769 17.4004 17.4333 17.2686C17.4897 17.1367 17.5723 17.0177 17.676 16.9186C17.7798 16.8196 17.9025 16.7426 18.0368 16.6924C18.1712 16.6422 18.3143 16.6197 18.4576 16.6263C18.73 16.639 18.9872 16.7561 19.1755 16.9534C19.3638 17.1507 19.4689 17.413 19.4689 17.6858C19.4689 17.9585 19.3638 18.2208 19.1755 18.4181C18.9872 18.6154 18.73 18.7325 18.4576 18.7452ZM24.8187 18.7452C24.6754 18.7519 24.5323 18.7294 24.398 18.6791C24.2637 18.6289 24.1409 18.5519 24.0372 18.4529C23.9334 18.3539 23.8508 18.2348 23.7944 18.103C23.738 17.9711 23.7089 17.8292 23.7089 17.6858C23.7089 17.5424 23.738 17.4004 23.7944 17.2686C23.8508 17.1367 23.9334 17.0177 24.0372 16.9186C24.1409 16.8196 24.2637 16.7426 24.398 16.6924C24.5323 16.6422 24.6754 16.6197 24.8187 16.6263C25.0912 16.639 25.3483 16.7561 25.5366 16.9534C25.725 17.1507 25.8301 17.413 25.8301 17.6858C25.8301 17.9585 25.725 18.2208 25.5366 18.4181C25.3483 18.6154 25.0912 18.7325 24.8187 18.7452ZM21.637 18.7452C21.4937 18.7519 21.3506 18.7294 21.2163 18.6791C21.0819 18.6289 20.9592 18.5519 20.8554 18.4529C20.7517 18.3539 20.6691 18.2348 20.6127 18.103C20.5563 17.9711 20.5272 17.8292 20.5272 17.6858C20.5272 17.5424 20.5563 17.4004 20.6127 17.2686C20.6691 17.1367 20.7517 17.0177 20.8554 16.9186C20.9592 16.8196 21.0819 16.7426 21.2163 16.6924C21.3506 16.6422 21.4937 16.6197 21.637 16.6263C21.9095 16.639 22.1666 16.7561 22.3549 16.9534C22.5433 17.1507 22.6483 17.413 22.6483 17.6858C22.6483 17.9585 22.5433 18.2208 22.3549 18.4181C22.1666 18.6154 21.9095 18.7325 21.637 18.7452ZM22.7273 26.5623C22.9513 26.3406 23.5433 26.3406 23.7673 26.5623C23.9913 26.7841 23.9913 27.4835 23.7673 27.7235L20.309 31.0858L23.6804 34.2789C23.9044 34.5006 23.9341 35.1338 23.6804 35.3829C23.3741 35.6869 22.7479 35.6389 22.5376 35.4332L18.5993 31.5018C18.4922 31.3939 18.4322 31.2481 18.4322 31.0961C18.4322 30.9441 18.4922 30.7982 18.5993 30.6903L22.7273 26.5623ZM33.461 26.5623L37.589 30.6903C37.6968 30.7983 37.7573 30.9446 37.7573 31.0972C37.7573 31.2498 37.6968 31.3961 37.589 31.5041L33.6484 35.4332C33.4404 35.6389 32.8484 35.7692 32.5056 35.4332C32.1833 35.1132 32.2839 34.4549 32.5056 34.2332L35.893 31.0858L32.3959 27.6892C32.1719 27.4492 32.0987 26.8572 32.3959 26.5623C32.6861 26.2766 33.237 26.3406 33.461 26.5623ZM29.221 25.7395C29.3353 25.4423 29.8907 25.2549 30.245 25.3875C30.5833 25.5132 30.7821 25.9818 30.6884 26.2789L26.9444 36.5898C26.8301 36.8869 26.2976 37.0035 25.9981 36.8938C25.6804 36.7818 25.3353 36.3452 25.4496 36.0481L29.221 25.7395Z" fill="url(#paint0_linear_1_57)"/>
<rect x="18" y="24" width="20.5" height="14" fill="#F4F7F7"/>
<rect x="16.5" y="16.5" width="20.5" height="3" fill="#F4F7F7"/>
<path d="M23.3864 35.1001L24.1626 34.3294C22.3096 32.4764 21.3421 31.5362 20.8064 30.9896L24.1626 27.6498C24.2136 27.5988 24.254 27.5383 24.2816 27.4717C24.3092 27.4052 24.3234 27.3338 24.3234 27.2617C24.3234 27.1896 24.3092 27.1183 24.2816 27.0517C24.254 26.9851 24.2136 26.9246 24.1626 26.8736C24.1116 26.8226 24.0511 26.7822 23.9845 26.7546C23.918 26.7271 23.8466 26.7129 23.7745 26.7129C23.7024 26.7129 23.6311 26.7271 23.5645 26.7546C23.4979 26.7822 23.4374 26.8226 23.3864 26.8736L19.6585 30.6015C19.5586 30.7063 19.502 30.8449 19.5 30.9896C19.5003 31.0619 19.5149 31.1335 19.5431 31.2001C19.5712 31.2667 19.6123 31.3271 19.664 31.3777L23.3864 35.1001Z" fill="#A7A7A7"/>
<path d="M36.8322 30.6016C36.7775 30.5524 33.1043 26.8737 33.1043 26.8737L32.3336 27.6498C34.1811 29.4974 35.1486 30.4704 35.6843 30.9787L32.3336 34.3295C32.2568 34.4056 32.2044 34.5028 32.1828 34.6087C32.1613 34.7146 32.1717 34.8246 32.2126 34.9246C32.2536 35.0247 32.3233 35.1103 32.4129 35.1708C32.5025 35.2312 32.6081 35.2637 32.7162 35.2642C32.7885 35.2639 32.8601 35.2492 32.9267 35.2211C32.9933 35.1929 33.0537 35.1518 33.1043 35.1002L36.8322 31.3777C36.8829 31.3267 36.9229 31.2661 36.9501 31.1995C36.9773 31.1329 36.9911 31.0616 36.9907 30.9897C36.9911 30.9177 36.9773 30.8464 36.9501 30.7798C36.9229 30.7132 36.8829 30.6526 36.8322 30.6016Z" fill="#A7A7A7"/>
<path d="M26.7532 37.4998C26.8781 37.5034 27.0004 37.4642 27.0999 37.3886C27.1993 37.313 27.2699 37.2056 27.2998 37.0843L30.2679 25.1573C30.2965 25.0189 30.2704 24.8748 30.1951 24.7552C30.1198 24.6357 30.0011 24.5499 29.8639 24.516C29.7267 24.4821 29.5817 24.5026 29.4594 24.5732C29.337 24.6438 29.2467 24.7591 29.2075 24.8949L26.223 36.822C26.1877 36.9603 26.208 37.107 26.2795 37.2306C26.351 37.3542 26.4681 37.4449 26.6056 37.4834C26.6538 37.4955 26.7035 37.501 26.7532 37.4998Z" fill="#A7A7A7"/>
<circle cx="19" cy="17.5" r="1" fill="#A7A7A7"/>
<circle cx="22" cy="17.5" r="1" fill="#A7A7A7"/>
<circle cx="25" cy="17.5" r="1" fill="#A7A7A7"/>
<defs>
<linearGradient id="paint0_linear_1_57" x1="42.8416" y1="27.4313" x2="13.125" y2="27.4313" gradientUnits="userSpaceOnUse">
<stop stop-color="#00A8BF"/>
<stop offset="0.9969" stop-color="#009769"/>
</linearGradient>
</defs>
</svg>
