<svg width="56" height="56" viewBox="0 0 56 56" fill="none" xmlns="http://www.w3.org/2000/svg">
<path d="M7.875 0H48.125V56H7.875V0Z" fill="#1F1F1F"/>
<path d="M24.1938 15.8812H24.3688C24.85 15.8812 25.025 16.275 25.025 16.8875V35.175C25.025 35.9625 24.85 36.4875 24.325 36.4875L22.225 36.4438C21.7 36.4438 21.525 36.0063 21.525 35.1313V19.9063L20.6063 20.125C20.1688 20.125 19.95 19.775 19.95 19.1625V17.85C19.95 17.325 20.125 16.975 20.5625 16.8875L24.1938 15.925V15.8812ZM31.1938 31.675L31.2375 32.9875L31.5 33.5562L31.7625 33.8188L32.1125 33.8625H33.075C33.5125 33.8625 33.8188 34.2125 33.8188 34.7375V35.5688C33.8188 36.0938 33.5563 36.4438 33.0313 36.4438H31.6313L30.625 36.4C30.3188 36.3125 30.0126 36.1812 29.6625 35.9625C29.3072 35.7612 29.0068 35.4758 28.7875 35.1313C28.6125 34.7813 28.4375 34.3 28.35 33.7313C28.175 33.1187 28.1313 32.4188 28.1313 31.6313V24.6313H27.475C26.9938 24.6313 26.775 24.1938 26.775 23.5813V22.8375C26.775 22.225 26.9938 21.8313 27.475 21.8313H28.1313V21.7875L28.3938 16.4063C28.3938 15.75 28.6125 15.3125 29.0938 15.3125H30.45C30.975 15.3125 31.15 15.75 31.15 16.4063V21.7875H32.725C33.2063 21.7875 33.425 22.225 33.425 22.8375V23.625C33.425 24.2375 33.2063 24.6313 32.725 24.6313H31.15V31.7188L31.1938 31.675ZM35.3063 38.5438C35.3063 37.6688 35.4375 37.1438 35.9625 37.1438C36.05 37.1438 36.1375 37.1438 36.575 37.3188L37.0563 37.45L37.1438 37.4063L37.3188 37.1C37.4501 36.8375 37.4938 36.4 37.4938 35.7875L37.2313 34.3438L34.5625 23.0563V22.6625C34.5625 22.1375 34.6938 21.7875 35.0875 21.7875H36.75C36.9688 21.7875 37.1875 21.9188 37.3188 22.05C37.4501 22.225 37.5375 22.4438 37.5813 22.75L39.0688 30.625L40.2063 22.8375C40.25 22.4875 40.3375 22.2688 40.4688 22.0938C40.6 21.9188 40.8188 21.8313 41.0375 21.8313H42.175C42.6125 21.8313 42.7875 22.1813 42.7875 22.7063L42.7438 23.0563L40.25 35.9625C40.0313 37.0562 39.8125 37.8875 39.5938 38.4563C39.4296 38.9665 39.1266 39.4209 38.7188 39.7688C38.325 40.0313 37.8875 40.1625 37.3625 40.1625H37.2313C36.3563 40.1625 35.7875 39.9 35.4375 39.4188C35.3063 39.2438 35.2625 38.9813 35.2625 38.5438H35.3063ZM13.6938 16.975L17.2813 16.0563H17.5C17.9375 16.0563 18.1125 16.4063 18.1125 17.0188V35.35C18.1125 36.1375 17.9375 36.6187 17.4125 36.6187H15.3563C14.8313 36.6187 14.6563 36.1375 14.6563 35.3062V19.9938L13.7813 20.2562C13.2563 20.2562 13.0813 19.8625 13.0813 19.2937V17.9812C13.0813 17.4562 13.2563 17.1062 13.6938 16.975Z" fill="white"/>
</svg>
