<svg version="1.2" xmlns="http://www.w3.org/2000/svg" viewBox="0 0 626 526" width="626" height="526"><style></style><path  d="m11.5 314.5c-7-7-11-16.6-11-26.5 0-10 4-19.5 11-26.5 7-7.1 16.6-11 26.5-11h225c9.9 0 19.5 3.9 26.5 11 7 7 11 16.5 11 26.5 0 9.9-4 19.5-11 26.5-7 7-16.6 11-26.5 11h-225c-9.9 0-19.5-4-26.5-11zm0-200c-7-7-11-16.6-11-26.5 0-10 4-19.5 11-26.5 7-7.1 16.6-11 26.5-11h175c9.9 0 19.5 3.9 26.5 11 7 7 11 16.5 11 26.5 0 9.9-4 19.5-11 26.5-7 7-16.6 11-26.5 11h-175c-9.9 0-19.5-4-26.5-11zm478 347c7 7 11 16.5 11 26.5 0 9.9-4 19.5-11 26.5-7 7-16.6 11-26.5 11h-425c-9.9 0-19.5-4-26.5-11-7-7-11-16.6-11-26.5 0-10 4-19.5 11-26.5 7-7.1 16.6-11 26.5-11h425c9.9 0 19.5 3.9 26.5 11z"/><path  d="m311.5 186.5c3.5-3.5 7.6-6.3 12.2-8.1 4.5-1.9 9.4-2.9 14.3-2.9 4.9 0 9.8 1 14.4 2.9 4.5 1.8 8.6 4.6 12.1 8.1l61 61v-209.5c0-10 4-19.5 11-26.5 7-7.1 16.6-11 26.5-11 10 0 19.5 3.9 26.5 11 7.1 7 11 16.5 11 26.5v209.4l61-60.9c7-7.1 16.6-11 26.5-11 10 0 19.5 4 26.5 11 7 7 11 16.5 11 26.5 0 9.9-3.9 19.5-11 26.5l-125 125q-0.1 0.1-0.2 0.2-1.2 1.2-2.5 2.3c-0.5 0.3-0.9 0.7-1.4 1-0.5 0.4-1 0.8-1.6 1.2-0.5 0.3-1.1 0.6-1.6 1-0.5 0.3-1 0.6-1.5 0.8-0.6 0.3-1.1 0.6-1.7 0.9-0.6 0.2-1.1 0.5-1.6 0.7-0.6 0.3-1.2 0.4-1.7 0.6-0.6 0.2-1.2 0.5-1.8 0.7-0.6 0.1-1.1 0.3-1.7 0.4-0.6 0.2-1.2 0.3-1.9 0.5-0.6 0.1-1.3 0.2-1.9 0.3-0.6 0-1.1 0.1-1.7 0.2q-1.8 0.2-3.7 0.2-1.9 0-3.7-0.2c-0.5-0.1-1.1-0.2-1.6-0.2-0.7-0.1-1.3-0.2-2-0.3-0.6-0.2-1.2-0.3-1.8-0.5q-0.9-0.2-1.8-0.4-0.9-0.3-1.7-0.6c-0.6-0.3-1.2-0.4-1.7-0.7q-0.8-0.3-1.6-0.7-0.9-0.4-1.8-0.9c-0.5-0.2-0.9-0.5-1.4-0.8-0.6-0.3-1.2-0.7-1.7-1-0.5-0.4-1-0.8-1.5-1.1-0.5-0.4-1-0.7-1.5-1.1q-1.2-1-2.3-2.2-0.2-0.1-0.4-0.3l-125-125c-3.5-3.5-6.2-7.6-8.1-12.1-1.9-4.6-2.9-9.5-2.9-14.4 0-4.9 1-9.8 2.9-14.3 1.9-4.6 4.6-8.7 8.1-12.2z"/></svg>