<svg width="512" height="512" viewBox="0 0 512 512" fill="none" xmlns="http://www.w3.org/2000/svg">
<path d="M172.2 226.801C157.6 223.901 144 235.701 144 250.601V301.001C144 311.201 151.1 319.401 160.7 323.001C178.9 329.801 192 347.401 192 368.001C192 394.501 170.5 416.001 144 416.001C117.5 416.001 96 394.501 96 368.001V120.001C96 106.701 85.3 96.0008 72 96.0008H24C10.7 96.0008 0 106.701 0 120.001V368.001C0 457.501 82.1 528.201 175 508.701C229.4 497.301 273.3 453.301 284.7 399.001C302.1 316.101 247.7 241.801 172.2 226.801ZM209 0.000798844C199.8 -0.499201 192 6.8008 192 16.0008V47.6008C192 56.1008 198.6 63.1008 207 63.5008C336.4 70.5008 440.4 175.501 447.9 305.001C448.4 313.401 455.4 320.001 463.8 320.001H495.9C505.1 320.001 512.4 312.201 511.9 303.001C503.4 139.801 372.2 8.6008 209 0.000798844ZM209.3 96.0008C200 95.3008 192 102.701 192 112.101V144.201C192 152.601 198.5 159.501 206.8 160.101C283.6 166.401 344.8 228.301 351.7 305.301C352.5 313.601 359.3 320.001 367.6 320.001H399.8C409.1 320.001 416.6 312.001 415.9 302.701C407.5 192.601 319.4 104.501 209.3 96.0008Z" fill="#FF9258"/>
</svg>
