<?xml version="1.0" encoding="iso-8859-1"?>
<!-- Generator: Adobe Illustrator 19.0.0, SVG Export Plug-In . SVG Version: 6.00 Build 0)  -->
<svg version="1.1" id="Layer_1" xmlns="http://www.w3.org/2000/svg" xmlns:xlink="http://www.w3.org/1999/xlink" x="0px" y="0px"
	 viewBox="0 0 392.598 392.598" style="enable-background:new 0 0 392.598 392.598;" xml:space="preserve">
<path style="fill:#FFFFFF;" d="M270.521,32.711c0-6.012-4.849-10.925-10.925-10.925H32.752c-6.012,0-10.925,4.848-10.925,10.925
	v97.616h40.275c6.012,0,10.925,4.848,10.925,10.925c0,6.012-4.848,10.925-10.925,10.925H21.826v16.937h20.816
	c6.012,0,10.925,4.848,10.925,10.925c0,6.012-4.848,10.925-10.925,10.925H21.826v101.366c0,0.323,0.065,0.646,0.065,0.905h107.701
	c6.012,0,10.925,4.848,10.925,10.925v66.521h119.014c6.012,0,10.925-4.848,10.925-10.925V208.097l-44.218,44.218
	c-2.004,2.004-4.784,3.168-7.758,3.168h-43.636c-6.012,0-10.925-4.848-10.925-10.925v-43.636c0-2.844,1.164-5.624,3.168-7.758
	l103.37-103.305V32.711H270.521z"/>
<path style="fill:#194F82;" d="M380.356,39.111c-16.291-16.291-42.796-16.291-59.087,0l-28.897,28.897V32.711
	C292.372,14.675,277.697,0,259.661,0H32.752C14.715,0,0.04,14.675,0.04,32.711v259.685c0,11.119,5.56,21.333,14.869,27.41
	l103.37,67.491c5.301,3.491,11.507,5.301,17.842,5.301h123.41c18.036,0,32.711-14.675,32.711-32.711v-173.64l87.984-87.984
	C396.646,81.907,396.646,55.402,380.356,39.111z M231.992,215.725l-28.251-28.251l117.85-117.851l28.251,28.251L231.992,215.725z
	 M185.77,205.382l2.457-2.457l28.251,28.251l-2.457,2.457H185.77V205.382L185.77,205.382z M364.905,54.562
	c7.628,7.628,7.758,20.105,0.323,27.927l-28.186-28.186C344.671,47.063,357.471,47.127,364.905,54.562z M47.62,315.087h71.176
	v46.416L47.62,315.087z M270.521,359.822c0,6.012-4.849,10.925-10.925,10.925H140.582v-66.521c0-6.012-4.848-10.925-10.925-10.925
	H21.956c0-0.323-0.065-0.646-0.065-0.905V191.03h20.816c6.012,0,10.925-4.848,10.925-10.925c0-6.012-4.848-10.925-10.925-10.925
	H21.826v-17.067h40.275c6.012,0,10.925-4.848,10.925-10.925c0-6.012-4.848-10.925-10.925-10.925H21.826V32.711
	c0-6.012,4.848-10.925,10.925-10.925h226.844c6.012,0,10.925,4.848,10.925,10.925v57.083l-103.37,103.37
	c-2.004,2.004-3.168,4.784-3.168,7.758v43.636c0,6.012,4.848,10.925,10.925,10.925h43.636c2.844,0,5.624-1.164,7.758-3.168
	l44.218-44.218V359.822z"/>
<path style="fill:#FFC10D;" d="M248.671,43.572H43.677v86.691h18.36c6.012,0,10.925,4.848,10.925,10.925
	c0,6.012-4.848,10.925-10.925,10.925h-18.36v17.261c5.56,0.517,9.891,5.107,9.891,10.796s-4.331,10.279-9.891,10.796v95.612
	l10.408,6.788h75.636c6.012,0,10.925,4.848,10.925,10.925v44.735h108.024V229.883l-22.432,22.432
	c-2.004,2.004-4.784,3.168-7.758,3.168h-43.636c-6.012,0-10.925-4.848-10.925-10.925v-43.636c0-2.844,1.164-5.624,3.168-7.758
	l81.584-81.519V43.572z"/>
<g>
	<polygon style="fill:#56ACE0;" points="118.796,315.087 47.62,315.087 118.796,361.503 	"/>
	
		<rect x="256.814" y="59.347" transform="matrix(0.7071 0.7071 -0.7071 0.7071 181.9563 -153.9313)" style="fill:#56ACE0;" width="39.951" height="166.657"/>
	<polygon style="fill:#56ACE0;" points="185.77,205.382 185.77,233.697 214.085,233.697 216.541,231.176 188.356,202.925 	"/>
	<path style="fill:#56ACE0;" d="M364.905,54.562c-7.434-7.434-20.299-7.499-27.927-0.323l28.186,28.186
		C372.663,74.667,372.598,62.19,364.905,54.562z"/>
</g>
<g>
</g>
<g>
</g>
<g>
</g>
<g>
</g>
<g>
</g>
<g>
</g>
<g>
</g>
<g>
</g>
<g>
</g>
<g>
</g>
<g>
</g>
<g>
</g>
<g>
</g>
<g>
</g>
<g>
</g>
</svg>
