<?xml version="1.0" encoding="iso-8859-1"?>
<!-- Generator: Adobe Illustrator 19.0.0, SVG Export Plug-In . SVG Version: 6.00 Build 0)  -->
<svg version="1.1" id="Layer_1" xmlns="http://www.w3.org/2000/svg" xmlns:xlink="http://www.w3.org/1999/xlink" x="0px" y="0px"
	 viewBox="0 0 319.375 319.375" style="enable-background:new 0 0 319.375 319.375;" xml:space="preserve">
<g>
	<rect x="7.5" y="88.402" style="fill:#FFFFFF;" width="304.375" height="192.952"/>
	<rect x="7.5" y="38.021" style="fill:#C7E9F4;" width="304.375" height="50.381"/>
	<rect x="36.354" y="170.688" style="fill:#F59D00;" width="104.667" height="87"/>
	<rect x="165.021" y="170.688" style="fill:#FFDA79;" width="118" height="32"/>
	<rect x="165.021" y="225.688" style="fill:#FFDA79;" width="118" height="32"/>
	<g>
		<rect x="36.021" y="112.069" style="fill:#CBE5C0;" width="247" height="34.952"/>
		<g>
			<path style="fill:#13829B;" d="M311.875,30.521H7.5c-4.143,0-7.5,3.358-7.5,7.5c0,12.061,0,235.104,0,243.333
				c0,4.142,3.357,7.5,7.5,7.5h304.375c4.143,0,7.5-3.358,7.5-7.5c0-6.87,0-237.458,0-243.333
				C319.375,33.879,316.018,30.521,311.875,30.521z M15,45.521h289.375v35.381H15V45.521z M304.375,273.854H15V95.902h289.375
				V273.854z"/>
			<circle style="fill:#13829B;" cx="36.021" cy="63.211" r="9"/>
			<circle style="fill:#13829B;" cx="66.021" cy="63.211" r="9"/>
			<circle style="fill:#13829B;" cx="96.021" cy="63.211" r="9"/>
			<path style="fill:#13829B;" d="M141.02,163.188H36.354c-4.143,0-7.5,3.358-7.5,7.5v87c0,4.142,3.357,7.5,7.5,7.5H141.02
				c4.143,0,7.5-3.358,7.5-7.5v-87C148.52,166.545,145.163,163.188,141.02,163.188z M133.52,250.188H43.854v-72h89.666V250.188z"/>
			<path style="fill:#13829B;" d="M283.021,163.188h-118c-4.143,0-7.5,3.358-7.5,7.5v32c0,4.142,3.357,7.5,7.5,7.5h118
				c4.143,0,7.5-3.358,7.5-7.5v-32C290.521,166.545,287.163,163.188,283.021,163.188z M275.521,195.188h-103v-17h103V195.188z"/>
			<path style="fill:#13829B;" d="M283.021,218.188h-118c-4.143,0-7.5,3.358-7.5,7.5v32c0,4.142,3.357,7.5,7.5,7.5h118
				c4.143,0,7.5-3.358,7.5-7.5v-32C290.521,221.545,287.163,218.188,283.021,218.188z M275.521,250.188h-103v-17h103V250.188z"/>
			<path style="fill:#13829B;" d="M36.021,154.521h247c4.143,0,7.5-3.358,7.5-7.5v-34.953c0-4.142-3.357-7.5-7.5-7.5h-247
				c-4.143,0-7.5,3.358-7.5,7.5v34.953C28.521,151.163,31.878,154.521,36.021,154.521z M43.521,119.568h232v19.953h-232V119.568z"/>
		</g>
	</g>
</g>
<g>
</g>
<g>
</g>
<g>
</g>
<g>
</g>
<g>
</g>
<g>
</g>
<g>
</g>
<g>
</g>
<g>
</g>
<g>
</g>
<g>
</g>
<g>
</g>
<g>
</g>
<g>
</g>
<g>
</g>
</svg>
