<svg width="114" height="90" viewBox="0 0 114 90" fill="none" xmlns="http://www.w3.org/2000/svg">
<path d="M12.5758 11.7618C12.3608 5.64265 17.173 0 23.6777 0H90.3305C96.8352 0 101.647 5.64265 101.432 11.7618C101.226 17.6398 101.494 25.254 103.428 31.4625C105.369 37.6901 108.641 41.6265 114 42.1324V47.8676C108.641 48.3735 105.369 52.3099 103.428 58.5375C101.494 64.746 101.226 72.3602 101.432 78.2385C101.647 84.3574 96.8352 90 90.3305 90H23.6777C17.173 90 12.3608 84.3574 12.5761 78.2385C12.7825 72.3602 12.5142 64.746 10.5797 58.5375C8.63951 52.3099 5.35934 48.3735 0 47.8676V42.1324C5.35911 41.6265 8.63951 37.6901 10.5797 31.4625C12.5142 25.254 12.7825 17.6398 12.5758 11.7618V11.7618Z" fill="url(#paint0_linear_123_2)"/>
<g filter="url(#filter0_d_123_2)">
<path d="M59.4727 68.9243C70.0037 68.9243 76.3496 63.8159 76.3496 55.3901C76.3496 49.0211 71.8217 44.4101 65.0983 43.6802V43.4148C70.038 42.6187 73.9142 38.0741 73.9142 32.9988C73.9142 25.7673 68.1514 21.0566 59.3698 21.0566H39.6113V68.9243H59.4727ZM47.2952 27.1272H57.5176C63.0746 27.1272 66.2303 29.5819 66.2303 34.027C66.2303 38.7708 62.5601 41.4244 55.9053 41.4244H47.2952V27.1272V27.1272ZM47.2952 62.8539V47.0971H57.4488C64.7209 47.0971 68.4943 49.7508 68.4943 54.9258C68.4943 60.1005 64.824 62.8539 57.8947 62.8539H47.2952V62.8539Z" fill="url(#paint1_linear_123_2)"/>
<path d="M59.4727 68.9243C70.0037 68.9243 76.3496 63.8159 76.3496 55.3901C76.3496 49.0211 71.8217 44.4101 65.0983 43.6802V43.4148C70.038 42.6187 73.9142 38.0741 73.9142 32.9988C73.9142 25.7673 68.1514 21.0566 59.3698 21.0566H39.6113V68.9243H59.4727ZM47.2952 27.1272H57.5176C63.0746 27.1272 66.2303 29.5819 66.2303 34.027C66.2303 38.7708 62.5601 41.4244 55.9053 41.4244H47.2952V27.1272V27.1272ZM47.2952 62.8539V47.0971H57.4488C64.7209 47.0971 68.4943 49.7508 68.4943 54.9258C68.4943 60.1005 64.824 62.8539 57.8947 62.8539H47.2952V62.8539Z" stroke="white"/>
</g>
<defs>
<filter id="filter0_d_123_2" x="23.1113" y="8.55664" width="69.7383" height="80.8672" filterUnits="userSpaceOnUse" color-interpolation-filters="sRGB">
<feFlood flood-opacity="0" result="BackgroundImageFix"/>
<feColorMatrix in="SourceAlpha" type="matrix" values="0 0 0 0 0 0 0 0 0 0 0 0 0 0 0 0 0 0 127 0" result="hardAlpha"/>
<feOffset dy="4"/>
<feGaussianBlur stdDeviation="8"/>
<feColorMatrix type="matrix" values="0 0 0 0 0 0 0 0 0 0 0 0 0 0 0 0 0 0 0.15 0"/>
<feBlend mode="normal" in2="BackgroundImageFix" result="effect1_dropShadow_123_2"/>
<feBlend mode="normal" in="SourceGraphic" in2="effect1_dropShadow_123_2" result="shape"/>
</filter>
<linearGradient id="paint0_linear_123_2" x1="16.9395" y1="2.38191" x2="115.836" y2="81.6219" gradientUnits="userSpaceOnUse">
<stop stop-color="#9013FE"/>
<stop offset="1" stop-color="#6610F2"/>
</linearGradient>
<linearGradient id="paint1_linear_123_2" x1="43.0863" y1="24.2073" x2="65.0468" y2="61.6954" gradientUnits="userSpaceOnUse">
<stop stop-color="white"/>
<stop offset="1" stop-color="#F1E5FC"/>
</linearGradient>
</defs>
</svg>
