<svg width="119" height="123" viewBox="0 0 119 123" fill="none" xmlns="http://www.w3.org/2000/svg">
<path fill-rule="evenodd" clip-rule="evenodd" d="M20.6 0H100.3C102.2 0 103.7 1.5 103.7 3.4C103.7 5.3 102.2 6.8 100.3 6.8H20.6C18.7 6.8 17.2 5.3 17.2 3.4C17.2 1.5 18.7 0 20.6 0ZM118.6 43.2V47.3C118.6 47.7 118.7 48.1 118.7 48.5C118.7 55.4 112.3 61 104.3 61C96.4 61 89.9 55.4 89.9 48.5C89.9 48.2 89.9 47.9 89.9 47.6H89.3C89.3 47.9 89.3 48.2 89.3 48.5C89.3 55.4 82.9 61 74.9 61C67 61 60.5 55.4 60.5 48.5C60.5 48.2 60.5 47.9 60.5 47.6H59.9C59.9 47.9 59.9 48.2 59.9 48.5C59.9 55.4 53.5 61 45.5 61C37.6 61 31.1 55.4 31.1 48.5C31.1 48.2 31.1 47.9 31.1 47.6H30.7C30.7 47.9 30.7 48.2 30.7 48.5C30.7 55.4 24.3 61 16.3 61C8.4 61 1.9 55.4 1.9 48.5C1.9 48.2 1.9 47.8 2 47.5V43.2H118.6ZM16.8 10.4H104.4L115.6 34.2H5.3L16.8 10.4ZM3.4 108H15.5V69.7C15.7 69.7 15.9 69.7 16.1 69.7H16.3H16.5H16.6C22.1 69.7 27.1 67.9 31.1 65.1L31.2 65.2H31.3V65.3L31.5 65.4L31.7 65.5L31.9 65.6V101H35.6C38.5 107.6 47.8 112.5 58.9 112.5C70 112.5 79.3 107.6 82.2 101H85.3V66.9C86.2 66.5 87 65.9 87.8 65.4L88 65.3H88.1L88.2 65.2L88.4 65.1C92.4 68 97.5 69.8 103 69.8V108H115.1C117 108 118.5 111.3 118.5 115.4C118.5 119.5 117 122.8 115.1 122.8H3.4C1.5 122.8 0 119.5 0 115.4C0 111.4 1.5 108 3.4 108Z" fill="#F87689"/>
<path fill-rule="evenodd" clip-rule="evenodd" d="M74.5 88.6C75 89.4 75.2 90.2 75.2 91C75.2 101.5 44.6 101.5 44.6 91C44.6 90.2 44.8 89.4 45.3 88.6C49.8 96.1 70.1 96.1 74.5 88.6ZM65.4 72L65.2 74L57.7 73.3C58.3 74.1 58.7 75 59 76L57.2 75.8C57.1 75.3 56.8 74.7 56.4 74C56 73.3 55.5 72.9 54.8 72.6L54.9 71L65.4 72ZM59.9 68.9C66.8 68.9 72.5 71.1 72.5 73.8C72.5 76.5 66.9 78.7 59.9 78.7C52.9 78.7 47.3 76.5 47.3 73.8C47.3 71.1 53 68.9 59.9 68.9ZM59.9 67.3C68.3 67.3 75.2 70.9 75.2 75.3C75.2 85.8 44.6 85.8 44.6 75.3C44.6 70.9 51.5 67.3 59.9 67.3ZM74.6 80.6C75 81.3 75.2 82.1 75.2 82.9C75.2 93.4 44.6 93.4 44.6 82.9C44.6 82.1 44.8 81.3 45.2 80.6C49.6 88.2 70.2 88.2 74.6 80.6ZM74.5 96.7C75 97.5 75.2 98.3 75.2 99.1C75.2 109.6 44.6 109.6 44.6 99.1C44.6 98.3 44.9 97.4 45.3 96.7C49.8 104.1 70 104.1 74.5 96.7Z" fill="#45D19E"/>
</svg>
