<?xml version="1.0" encoding="iso-8859-1"?>
<!-- Generator: Adobe Illustrator 19.0.0, SVG Export Plug-In . SVG Version: 6.00 Build 0)  -->
<svg version="1.1" id="Layer_1" xmlns="http://www.w3.org/2000/svg" xmlns:xlink="http://www.w3.org/1999/xlink" x="0px" y="0px"
	 viewBox="0 0 280.028 280.028" style="enable-background:new 0 0 280.028 280.028;" xml:space="preserve">
<g>
	<path style="fill:#E2574C;" d="M115.503,177.54L37.48,255.545c-3.588,3.605-3.588,9.416,0,13.004s9.407,3.588,12.995,0
		l78.023-78.005c3.597-3.605,3.597-9.416,0-13.004C124.91,173.943,119.09,173.943,115.503,177.54z M242.547,255.545l-78.023-78.005
		c-3.588-3.588-9.398-3.588-12.986,0s-3.588,9.398,0,13.004l78.023,78.005c3.588,3.588,9.398,3.588,12.986,0
		C246.144,264.961,246.144,259.15,242.547,255.545z"/>
	<g>
		<polygon style="fill:#CB4E44;" points="188.318,201.307 162.293,201.307 179.804,218.809 205.82,218.809 		"/>
		<polygon style="fill:#CB4E44;" points="74.216,218.809 100.224,218.809 117.734,201.307 91.726,201.307 		"/>
	</g>
	<path style="fill:#CB4E44;" d="M140.014,17.539c4.839,0,8.751,3.92,8.751,8.751v210.02c0,4.848-3.912,8.751-8.751,8.751
		s-8.751-3.903-8.751-8.751V26.29C131.263,21.459,135.174,17.539,140.014,17.539z"/>
	<path style="fill:#324D5B;" d="M17.502,8.788h245.024c9.661,0,17.502,7.832,17.502,17.502v166.266
		c0,9.661-7.841,17.502-17.502,17.502H17.502C7.841,210.058,0,202.217,0,192.556V26.29C0,16.62,7.841,8.788,17.502,8.788z"/>
	<path style="fill:#EBEBEB;" d="M26.253,26.29h227.522c4.839,0,8.751,3.92,8.751,8.751v148.765c0,4.848-3.912,8.751-8.751,8.751
		H26.253c-4.839,0-8.751-3.903-8.751-8.751V35.041C17.502,30.21,21.413,26.29,26.253,26.29z"/>
	<path style="fill:#E2574C;" d="M96.259,96.297H61.256v70.007h35.003V96.297z"/>
	<path style="fill:#3DB39E;" d="M157.515,61.293h-35.003v105.01h35.003V61.293z"/>
	<path style="fill:#26A6D1;" d="M218.771,78.795h-35.003v87.509h35.003V78.795z"/>
</g>
<g>
</g>
<g>
</g>
<g>
</g>
<g>
</g>
<g>
</g>
<g>
</g>
<g>
</g>
<g>
</g>
<g>
</g>
<g>
</g>
<g>
</g>
<g>
</g>
<g>
</g>
<g>
</g>
<g>
</g>
</svg>
