<svg width="16" height="16" viewBox="0 0 16 16" fill="none" xmlns="http://www.w3.org/2000/svg">
<path d="M6.04492 0.73125C5.68125 0.834375 5.39141 1.14688 5.2875 1.54688C5.26836 1.62188 5.07422 3.06875 5.07422 3.1375C5.07422 3.14688 5.27109 3.15625 5.51172 3.15625C5.94102 3.15625 5.94922 3.15625 5.96016 3.08438C5.9793 2.99063 6.11328 1.92813 6.11328 1.88125C6.11328 1.85938 6.14336 1.80625 6.18164 1.76563L6.24727 1.6875H8H9.75273L9.81836 1.76563C9.85664 1.80625 9.88672 1.85938 9.88672 1.88125C9.88672 1.92813 10.0207 2.99063 10.0398 3.08438C10.0508 3.15625 10.059 3.15625 10.4883 3.15625C10.7289 3.15625 10.9258 3.14688 10.9258 3.1375C10.9258 3.06875 10.7316 1.62188 10.7125 1.54688C10.6059 1.13438 10.2969 0.815625 9.91953 0.721875C9.70625 0.671875 6.23086 0.678125 6.04492 0.73125Z" fill="#E8834D"/>
<path d="M1.30078 4.14373C1.17773 4.20623 1.11484 4.27186 1.05195 4.41248C1.00273 4.52186 1 4.62186 1 6.15311V7.77811L1.06836 8.02186C1.18594 8.44686 1.44844 8.80623 1.79023 9.01248C2.14297 9.22498 2.08555 9.21873 4.2457 9.21873H6.19531V8.75623C6.19531 8.33123 6.20078 8.27811 6.2582 8.15623C6.37852 7.89686 6.31016 7.90623 8 7.90623C9.68984 7.90623 9.62148 7.89686 9.7418 8.15623C9.79922 8.27811 9.80469 8.33123 9.80469 8.75623V9.21873H11.7543C13.9145 9.21873 13.857 9.22498 14.2098 9.01248C14.5516 8.80623 14.8141 8.44686 14.9316 8.02186L15 7.77811V6.15311C15 4.62186 14.9973 4.52186 14.948 4.41248C14.8852 4.26873 14.8223 4.20311 14.691 4.14061C14.6035 4.09998 13.8707 4.09373 7.99453 4.09373C2.18125 4.09686 1.38555 4.10311 1.30078 4.14373Z" fill="#448FC5"/>
<path d="M7.02109 9.65898L7.0293 10.4746L7.51602 10.7715L8 11.0684L8.48672 10.7715L8.9707 10.4746L8.97891 9.65898L8.98438 8.84336H8H7.01562L7.02109 9.65898Z" fill="#304F76"/>
<path d="M1 12.2094V14.8844L1.06836 15.0188C1.11758 15.1125 1.17773 15.1719 1.27891 15.2313L1.42109 15.3125H8H14.5789L14.7211 15.2313C14.8223 15.1719 14.8824 15.1125 14.9316 15.0188L15 14.8844V12.2094V9.53438L14.7867 9.7C14.6664 9.79063 14.4695 9.9125 14.3438 9.96875C13.9172 10.1563 13.9008 10.1563 11.757 10.1563H9.80469V10.4594C9.80469 10.825 9.77461 10.9625 9.67617 11.0688C9.63242 11.1125 9.26055 11.3531 8.84766 11.6063C8.30078 11.9375 8.06836 12.0625 8 12.0625C7.93164 12.0625 7.69922 11.9375 7.15234 11.6063C6.73945 11.3531 6.36758 11.1125 6.32383 11.0688C6.22539 10.9625 6.19531 10.825 6.19531 10.4594V10.1563H4.24297C2.09922 10.1563 2.08281 10.1563 1.65625 9.96875C1.53047 9.9125 1.33359 9.79063 1.21328 9.7L1 9.53438V12.2094Z" fill="#67B5ED"/>
</svg>
