<svg width="69" height="48" viewBox="0 0 69 48" fill="none" xmlns="http://www.w3.org/2000/svg">
<path fill-rule="evenodd" clip-rule="evenodd" d="M52.5008 5.8L67.2008 13.6C68.1008 14 68.9008 14.8 69.2008 15.9C69.2008 16 69.2258 16.1 69.2508 16.2C69.2758 16.3 69.3008 16.4 69.3008 16.5V29.3C69.3008 29.9 69.0008 30.5 68.4008 30.8L38.7008 47.1C36.3008 48.3 33.4008 48.3 31.0008 47.1L1.20078 30.9C0.600783 30.7 0.300781 30.1 0.300781 29.4V16.5C0.400781 15.2 1.20078 14.1 2.40078 13.6L25.9008 0.9C28.4008 -0.3 31.2008 -0.3 33.6008 0.9L43.6008 6.3L44.8008 5.8C47.3008 4.6 50.1008 4.6 52.5008 5.8ZM31.9008 4C30.5008 3.4 28.9008 3.4 27.5008 4L4.10078 16.6L32.7008 32.1C34.0008 32.8 35.7008 32.8 37.1008 32.1L65.3008 16.8L65.5008 16.7L65.3008 16.6L50.8008 8.8C49.5008 8.2 47.8008 8.2 46.4008 8.8L43.6008 10.3L31.9008 4ZM37.0008 44.1L65.8008 28.2V20.6L38.6008 35.2C36.2008 36.4 33.3008 36.4 30.9008 35.2L3.80078 20.6V28.4L32.7008 44.1C34.0008 44.7 35.6008 44.7 37.0008 44.1ZM33.3008 22.2C32.6008 22.5 32.0008 23.3 32.3008 24.2C32.5008 25.1 33.3008 25.6 34.1008 25.5C34.4008 25.5 34.7008 25.4 35.0008 25.2L48.5008 17.9C49.1008 17.7 49.4008 17.1 49.4008 16.5C49.4008 15.9 49.1008 15.3 48.6008 15C48.0008 14.6 47.4008 14.6 46.8008 14.9L33.3008 22.2ZM30.6008 14C31.5008 13.6 31.7008 12.5 31.3008 11.6C30.9008 10.8 29.7008 10.5 28.8008 10.9L20.4008 15.5C19.6008 15.8 19.1008 16.6 19.3008 17.5C19.6008 18.4 20.4008 19 21.2008 18.8C21.5322 18.8 21.7263 18.7314 21.9537 18.651C22.0008 18.6343 22.0493 18.6172 22.1008 18.6L30.6008 14Z" fill="#141D3B"/>
</svg>
