<?xml version="1.0" encoding="iso-8859-1"?>
<!-- Generator: Adobe Illustrator 18.0.0, SVG Export Plug-In . SVG Version: 6.00 Build 0)  -->
<!DOCTYPE svg PUBLIC "-//W3C//DTD SVG 1.1//EN" "http://www.w3.org/Graphics/SVG/1.1/DTD/svg11.dtd">
<svg version="1.1" id="Capa_1" xmlns="http://www.w3.org/2000/svg" xmlns:xlink="http://www.w3.org/1999/xlink" x="0px" y="0px"
	 viewBox="0 0 58 58" style="enable-background:new 0 0 58 58;" xml:space="preserve">
<g>
	<path style="fill:#2CB742;" d="M33.224,10.494H13.776C6.168,10.494,0,16.661,0,24.27v11.345c0,7.608,6.392,13.879,14,13.879h0
		v7.446c0,0.503,0.384,0.755,0.74,0.4l1.521-1.521c4.116-4.116,9.699-6.325,15.52-6.325h1.443C40.832,49.494,47,43.223,47,35.615
		V24.27C47,16.661,40.832,10.494,33.224,10.494z"/>
	<g>
		<path style="fill:#9BC0EA;" d="M44.224,0.494H24.776c-6.371,0-11.717,4.332-13.292,10.206c0.747-0.125,1.509-0.206,2.292-0.206
			h19.448C40.832,10.494,47,16.661,47,24.27v11.345c0,1.259-0.183,2.476-0.5,3.639C52.957,38.061,58,32.37,58,25.615V14.27
			C58,6.661,51.832,0.494,44.224,0.494z"/>
	</g>
	<circle style="fill:#FFFFFF;" cx="12" cy="30.494" r="3"/>
	<circle style="fill:#FFFFFF;" cx="24" cy="30.494" r="3"/>
	<circle style="fill:#FFFFFF;" cx="36" cy="30.494" r="3"/>
</g>
<g>
</g>
<g>
</g>
<g>
</g>
<g>
</g>
<g>
</g>
<g>
</g>
<g>
</g>
<g>
</g>
<g>
</g>
<g>
</g>
<g>
</g>
<g>
</g>
<g>
</g>
<g>
</g>
<g>
</g>
</svg>
