<svg width="225" height="154" viewBox="0 0 225 154" fill="#034AD8" xmlns="http://www.w3.org/2000/svg">
    <path fill-rule="evenodd" clip-rule="evenodd" d="M87.4965 126.062C88.5636 126.672 89.7068 127.282 90.85 127.815C99.3863 131.778 103.35 134.37 103.35 139.857C103.35 145.726 98.5479 150.528 92.6792 150.528C88.1062 150.528 84.2954 147.631 82.7711 143.592C77.2073 149.232 69.5856 152.738 61.0494 152.738C44.2056 152.738 30.5628 139.095 30.5628 122.251C30.5628 120.651 30.7915 119.05 31.0201 117.45L31.0201 117.45C15.3957 112.877 3.35353 99.8436 0.609732 83.5333C0.228649 81.1705 0 78.8078 0 76.3689C0 73.93 0.228649 71.5673 0.609732 69.2046C3.42974 52.9705 15.3957 39.8612 31.0201 35.2882C31.0106 35.2214 31.001 35.1547 30.9915 35.0882C30.7728 33.5601 30.5628 32.0934 30.5628 30.4866C30.5628 13.6428 44.2056 0 61.0494 0C69.5094 0 77.2073 3.50596 82.7711 9.14598C84.2954 5.1065 88.1062 2.21028 92.6792 2.21028C98.5479 2.21028 103.35 7.01192 103.35 12.8806C103.35 18.8255 99.3863 21.4168 90.85 25.3801C90.0043 25.7747 89.2004 26.2111 88.3764 26.6583C88.0865 26.8157 87.7941 26.9744 87.4965 27.1331C86.8106 27.5142 86.1246 27.8952 85.5149 28.2763C84.9814 28.5812 84.5241 28.886 84.0668 29.1909C83.9143 29.2671 83.781 29.3624 83.6476 29.4577C83.5142 29.5529 83.3808 29.6482 83.2284 29.7244C80.637 31.4012 78.2743 33.3828 75.9878 35.4407C75.9116 35.4788 75.8544 35.5359 75.7973 35.5931C75.7401 35.6503 75.683 35.7074 75.6067 35.7455C74.6921 36.6601 73.7776 37.5747 72.9392 38.4893C72.8249 38.6036 72.7105 38.737 72.5962 38.8704C72.4819 39.0038 72.3676 39.1372 72.2532 39.2515C71.8933 39.7014 71.5215 40.1395 71.1519 40.5752C70.5824 41.2464 70.0179 41.9117 69.5094 42.605C62.4213 52.0559 58.077 63.8694 58.077 76.5976C58.077 89.3257 62.3451 101.139 69.5094 110.59C70.3478 111.733 71.2624 112.877 72.2532 113.944C72.3676 114.058 72.4819 114.191 72.5962 114.325C72.7105 114.458 72.8249 114.591 72.9392 114.706C73.5669 115.448 74.2373 116.104 74.9184 116.771C75.1471 116.995 75.3769 117.22 75.6067 117.45C75.683 117.488 75.7401 117.545 75.7973 117.602C75.8544 117.659 75.9116 117.716 75.9878 117.754C78.2743 119.812 80.637 121.794 83.2284 123.471C83.3808 123.547 83.5142 123.642 83.6476 123.737C83.781 123.833 83.9143 123.928 84.0668 124.004C84.2954 124.157 84.5432 124.309 84.7909 124.462C85.0386 124.614 85.2863 124.766 85.5149 124.919C85.8579 125.109 86.1818 125.3 86.5057 125.49C86.8296 125.681 87.1536 125.872 87.4965 126.062ZM193.437 35.5931C209.062 40.1661 221.104 53.1991 223.848 69.5094C224.229 71.7959 224.457 74.2349 224.457 77.1311C224.457 79.57 224.229 81.9327 223.848 84.2954C221.028 100.53 209.062 113.639 193.437 118.212L193.466 118.412C193.685 119.94 193.895 121.407 193.895 123.013C193.895 139.857 180.252 153.5 163.408 153.5C154.948 153.5 147.25 149.994 141.686 144.354C140.162 148.393 136.351 151.29 131.778 151.29C125.91 151.29 121.108 146.488 121.108 140.619C121.108 134.675 125.071 132.083 133.607 128.12C134.453 127.725 135.257 127.289 136.081 126.842C136.371 126.684 136.663 126.526 136.961 126.367C137.647 125.986 138.333 125.605 138.943 125.224C139.476 124.919 139.933 124.614 140.391 124.309C140.543 124.233 140.676 124.138 140.81 124.042C140.943 123.947 141.077 123.852 141.229 123.776C143.82 122.099 146.183 120.117 148.47 118.059C148.546 118.021 148.603 117.964 148.66 117.907C148.717 117.85 148.774 117.793 148.851 117.754L148.851 117.754C149.765 116.84 150.68 115.925 151.518 115.011C151.633 114.896 151.747 114.763 151.861 114.63C151.976 114.496 152.09 114.363 152.204 114.249C152.564 113.799 152.936 113.36 153.306 112.925C153.875 112.254 154.44 111.588 154.948 110.895C162.036 101.444 166.38 89.6306 166.38 76.9024C166.38 64.1743 162.112 52.3607 154.948 42.9099C154.11 41.7666 153.195 40.6234 152.204 39.5564C152.09 39.442 151.976 39.3087 151.861 39.1753C151.747 39.0419 151.633 38.9085 151.518 38.7942C150.68 37.8034 149.765 36.8888 148.851 36.0504C148.774 36.0123 148.717 35.9551 148.66 35.898C148.603 35.8408 148.546 35.7836 148.47 35.7455C146.183 33.6877 143.82 31.7823 141.229 30.0293C141.077 29.9531 140.943 29.8578 140.81 29.7626C140.676 29.6673 140.543 29.572 140.391 29.4958C140.162 29.3433 139.914 29.1909 139.667 29.0384C139.419 28.886 139.171 28.7336 138.943 28.5812C138.6 28.3906 138.276 28.2001 137.952 28.0096C137.628 27.819 137.304 27.6285 136.961 27.4379C135.894 26.8282 134.751 26.2185 133.607 25.685C125.147 21.6455 121.108 19.0541 121.108 13.1855C121.108 7.31678 125.91 2.51515 131.778 2.51515C136.351 2.51515 140.162 5.41137 141.686 9.45085C147.25 3.81083 154.872 0.304869 163.408 0.304869C180.252 0.304869 193.895 13.9476 193.895 30.7915C193.895 32.3919 193.666 33.9923 193.437 35.5928L193.437 35.5931Z" />
    <path d="M145.497 76.6738C145.497 58.3056 130.635 43.4434 112.267 43.4434C93.8988 43.4434 79.0366 58.3056 79.0366 76.6738C79.0366 95.042 93.8988 109.904 112.267 109.904C130.635 109.904 145.497 95.042 145.497 76.6738Z" />
</svg>