<?xml version="1.0" encoding="iso-8859-1"?>
<!-- Uploaded to: SVG Repo, www.svgrepo.com, Generator: SVG Repo Mixer Tools -->
<svg height="800px" width="800px" version="1.1" id="Layer_1" xmlns="http://www.w3.org/2000/svg" xmlns:xlink="http://www.w3.org/1999/xlink" 
	 viewBox="0 0 512 512" xml:space="preserve">
<path style="fill:#EDEDED;" d="M439.242,482.358H72.758c-23.812,0-43.116-19.304-43.116-43.116V72.758
	c0-23.812,19.304-43.116,43.116-43.116h366.484c23.812,0,43.116,19.304,43.116,43.116v366.484
	C482.358,463.054,463.054,482.358,439.242,482.358z"/>
<path style="fill:#FFBD7C;" d="M482.358,364.867v74.375c0,23.812-19.304,43.116-43.116,43.116H72.758
	c-23.812,0-43.116-19.304-43.116-43.116V149.288h150.407l182.92,215.198c0.205,0.241,0.504,0.38,0.821,0.38H482.358z"/>
<path style="fill:#B7441C;" d="M202.105,148.21c0,11.906-9.651,21.558-21.558,21.558s-21.558-9.651-21.558-21.558
	s9.651-21.558,21.558-21.558S202.105,136.304,202.105,148.21z M363.789,342.231c-11.906,0-21.558,9.651-21.558,21.558
	c0,11.906,9.651,21.558,21.558,21.558s21.558-9.651,21.558-21.558C385.347,351.883,375.696,342.231,363.789,342.231z
	 M29.642,126.652c-11.906,0-21.558,9.651-21.558,21.558s9.651,21.558,21.558,21.558S51.2,160.117,51.2,148.21
	S41.549,126.652,29.642,126.652z"/>
<path d="M21.558,94.316V72.758c0-28.231,22.969-51.2,51.2-51.2h366.484c28.231,0,51.2,22.969,51.2,51.2v237.137
	c0,4.465-3.62,8.084-8.084,8.084s-8.084-3.62-8.084-8.084V72.758c0-19.316-15.716-35.032-35.032-35.032H72.758
	c-19.316,0-35.032,15.716-35.032,35.032v21.558c0,4.465-3.62,8.084-8.084,8.084S21.558,98.78,21.558,94.316z M509.632,369.505
	l-21.558,21.558c-1.578,1.578-3.648,2.368-5.716,2.368s-4.138-0.789-5.716-2.368c-3.157-3.157-3.157-8.276,0-11.432l7.758-7.758
	h-92.089c-3.527,12.428-14.978,21.558-28.521,21.558c-16.345,0-29.642-13.297-29.642-29.642c0-6.098,1.85-11.77,5.019-16.486
	L192.857,175.175c-3.751,1.719-7.92,2.677-12.31,2.677c-13.544,0-24.994-9.13-28.521-21.558H58.163
	c-3.527,12.428-14.978,21.558-28.521,21.558C13.297,177.852,0,164.556,0,148.21s13.297-29.642,29.642-29.642
	c13.544,0,24.994,9.13,28.521,21.558h93.862c3.527-12.428,14.978-21.558,28.521-21.558c16.345,0,29.642,13.297,29.642,29.642
	c0,6.098-1.85,11.77-5.019,16.486l146.31,172.128c3.751-1.718,7.921-2.677,12.31-2.677c13.544,0,24.994,9.13,28.521,21.558h92.088
	l-7.758-7.758c-3.157-3.157-3.157-8.276,0-11.432c3.157-3.157,8.276-3.157,11.432,0l21.558,21.558
	C512.789,361.23,512.789,366.349,509.632,369.505z M43.116,148.21c0-7.43-6.044-13.474-13.474-13.474s-13.474,6.044-13.474,13.474
	s6.044,13.474,13.474,13.474S43.116,155.64,43.116,148.21z M194.021,148.21c0-7.43-6.044-13.474-13.474-13.474
	s-13.474,6.044-13.474,13.474s6.044,13.474,13.474,13.474c3.264,0,6.261-1.167,8.595-3.105c0.042-0.037,0.083-0.072,0.125-0.109
	c0.041-0.035,0.081-0.068,0.122-0.101C192.225,155.897,194.021,152.259,194.021,148.21z M377.263,363.789
	c0-7.43-6.044-13.474-13.474-13.474s-13.474,6.044-13.474,13.474s6.044,13.474,13.474,13.474S377.263,371.219,377.263,363.789z
	 M482.358,409.6c-4.465,0-8.084,3.62-8.084,8.084v21.558c0,19.316-15.716,35.032-35.032,35.032H72.758
	c-19.316,0-35.032-15.716-35.032-35.032V202.105c0-4.465-3.62-8.084-8.084-8.084s-8.084,3.62-8.084,8.084v237.137
	c0,28.231,22.969,51.2,51.2,51.2h366.484c28.231,0,51.2-22.969,51.2-51.2v-21.558C490.442,413.219,486.823,409.6,482.358,409.6z"/>
</svg>