<svg width="95" height="91" viewBox="0 0 95 91" fill="none" xmlns="http://www.w3.org/2000/svg">
<path d="M31.5899 1.02044L0.859863 3.82044L4.52986 44.0304L24.5599 42.2004L22.5699 20.3404L33.2799 19.3604C43.8899 18.3904 52.4199 26.8904 53.5699 39.5504L73.2399 37.7604C71.2199 15.5904 52.5199 -0.889564 31.6099 1.01044L31.5899 1.02044Z" fill="#FF0082"/>
<path d="M74.46 50.3798C74.46 63.0998 66.73 72.3298 56.09 72.3298H45.34V50.3398H25.23V90.7598H56.09C77.11 90.7598 94.21 72.6498 94.21 50.3798C94.21 50.3698 94.21 50.3598 94.21 50.3398H74.46C74.46 50.3398 74.46 50.3598 74.46 50.3798Z" fill="#FF0082"/>
</svg>
