<svg width="16" height="16" viewBox="0 0 16 16" fill="none" xmlns="http://www.w3.org/2000/svg">
<g clip-path="url(#clip0_599_119)">
<path d="M12.8338 8.835L12.8611 11.2857H8.30584H3.75964V8.85364C3.75964 6.57065 3.75055 6.42156 3.60507 6.48679C3.31411 6.61725 2.34123 6.65452 2.1321 6.5427L1.94116 6.43088V9.73888C1.94116 11.7982 1.97753 13.2239 2.04118 13.5221C2.16847 14.1464 2.72311 14.7615 3.27774 14.9105C3.55052 14.9851 5.11441 15.013 8.50587 14.9944L13.3521 14.9665L13.734 14.7428C13.9522 14.6124 14.2341 14.3514 14.3705 14.1464L14.625 13.7737L14.6523 10.1675L14.6796 6.56134L14.0613 6.59861C13.634 6.63588 13.343 6.60793 13.1248 6.51474L12.8066 6.37497L12.8338 8.835Z" fill="#708DF2"/>
<path d="M3.06836 0.528888C2.80468 0.583443 2.74103 0.656182 1.81361 2.12915C0.813447 3.72032 0.667969 4.02037 0.667969 4.64774C0.667969 5.86612 1.55902 6.7299 2.80468 6.73899C3.3775 6.73899 4.13217 6.46622 4.38676 6.16617C4.4504 6.07525 4.55951 6.0116 4.62316 6.0116C4.68681 6.0116 4.79592 6.07525 4.85956 6.16617C5.11415 6.47531 5.86882 6.73899 6.4871 6.73899C7.10538 6.73899 7.86005 6.47531 8.11464 6.16617C8.2783 5.95705 8.35104 5.96614 8.74201 6.27528C9.55124 6.91175 10.7514 6.92084 11.5516 6.31165C11.888 6.05706 12.0062 6.0116 12.1153 6.09343C13.1973 6.85719 14.1702 6.9663 15.043 6.41167C15.9341 5.85703 16.2614 4.64774 15.7886 3.69304C15.5249 3.17477 14.0156 0.83803 13.8338 0.674366C13.661 0.519796 13.3428 0.510704 8.45106 0.501611C5.59605 0.492519 3.16838 0.501611 3.06836 0.528888Z" fill="#3360FF"/>
</g>
<defs>
<clipPath id="clip0_599_119">
<rect width="16" height="16" fill="white"/>
</clipPath>
</defs>
</svg>
