<?xml version="1.0" encoding="iso-8859-1"?>
<!-- Generator: Adobe Illustrator 19.0.0, SVG Export Plug-In . SVG Version: 6.00 Build 0)  -->
<svg version="1.1" id="Layer_1" xmlns="http://www.w3.org/2000/svg" xmlns:xlink="http://www.w3.org/1999/xlink" x="0px" y="0px"
	 viewBox="0 0 512.004 512.004" style="enable-background:new 0 0 512.004 512.004;" xml:space="preserve">
<polygon style="fill:#FF877F;" points="444.857,345.604 503.362,140.804 156.755,140.804 186.016,345.604 "/>
<g>
	<path style="fill:#FEDEA1;" d="M358.398,448.004c0,28.237,22.963,51.2,51.2,51.2s51.2-22.963,51.2-51.2s-22.963-51.2-51.2-51.2
		S358.398,419.768,358.398,448.004z"/>
	<path style="fill:#FEDEA1;" d="M153.598,499.204c28.237,0,51.2-22.963,51.2-51.2s-22.963-51.2-51.2-51.2s-51.2,22.963-51.2,51.2
		S125.361,499.204,153.598,499.204z"/>
</g>
<g>
	<circle style="fill:#573A32;" cx="153.598" cy="448.004" r="12.8"/>
	<circle style="fill:#ff0ff0;" cx="409.598" cy="448.004" r="12.8"/>
	<path style="fill:#fb877f;" d="M90.357,108.454l41.421,279.62c-24.55,8.943-42.18,32.282-42.18,59.93c0,35.345,28.655,64,64,64
		c30.959,0,56.781-21.99,62.711-51.2h130.577c5.931,29.21,31.753,51.2,62.711,51.2s56.781-21.99,62.711-51.2h26.889
		c7.074,0,12.8-5.726,12.8-12.8c0-7.074-5.726-12.8-12.8-12.8h-26.889c-5.931-29.21-31.744-51.2-62.711-51.2
		c-30.959,0-56.781,21.99-62.711,51.2H216.275c-5.726-28.015-29.824-49.229-59.179-50.85l-42.035-283.827
		c-0.401-2.722-1.673-5.222-3.61-7.177l-89.6-89.6C16.851-1.25,8.753-1.25,3.752,3.75s-5.001,13.099,0,18.099L90.357,108.454z
		 M409.598,409.604c21.171,0,38.4,17.229,38.4,38.4c0,21.171-17.229,38.4-38.4,38.4s-38.4-17.229-38.4-38.4
		C371.198,426.833,388.427,409.604,409.598,409.604z M191.998,448.004c0,21.171-17.229,38.4-38.4,38.4s-38.4-17.229-38.4-38.4
		c0-21.171,17.229-38.4,38.4-38.4S191.998,426.833,191.998,448.004z"/>
	<path style="fill:#573A32;" d="M171.774,336.422c1.801,12.612,12.604,21.982,25.344,21.982h238.08
		c11.426,0,21.478-7.578,24.619-18.569l51.2-179.2c2.21-7.723,0.657-16.034-4.181-22.451c-4.838-6.409-12.407-10.18-20.437-10.18
		h-314.88c-7.424,0-14.481,3.217-19.337,8.823c-4.855,5.606-7.057,13.047-5.999,20.395L171.774,336.422z M486.398,153.604
		l-51.2,179.2h-238.08l-25.6-179.2H486.398z"/>
</g>
<g>
</g>
<g>
</g>
<g>
</g>
<g>
</g>
<g>
</g>
<g>
</g>
<g>
</g>
<g>
</g>
<g>
</g>
<g>
</g>
<g>
</g>
<g>
</g>
<g>
</g>
<g>
</g>
<g>
</g>
</svg>
