<svg width="24" height="24" viewBox="0 0 24 24" fill="none" xmlns="http://www.w3.org/2000/svg">
<path d="M22 6H2C0.9 6 0 5.1 0 4V2C0 0.9 0.9 0 2 0H22C23.1 0 24 0.9 24 2V4C24 5.1 23.1 6 22 6ZM22 4V5V4ZM2 2V4H22V2H2Z" fill="#2ba1f2" fill-opacity="0.67"/>
<path d="M22 15H2C0.9 15 0 14.1 0 13V11C0 9.9 0.9 9 2 9H22C23.1 9 24 9.9 24 11V13C24 14.1 23.1 15 22 15ZM22 13V14V13ZM2 11V13H22V11H2Z" fill="#2ba1f2" fill-opacity="0.65"/>
<path d="M11 23H2C1.5 23 1 22.5 1 22V20C1 19.5 1.5 19 2 19H11C11.6 19 12 19.5 12 20V22C12 22.5 11.6 23 11 23Z" fill="#2ba1f2"/>
<path d="M11 24H2C0.9 24 0 23.1 0 22V20C0 18.9 0.9 18 2 18H11C12.1 18 13 18.9 13 20V22C13 23.1 12.1 24 11 24ZM11 22V23V22ZM2 20V22H11V20H2Z" fill="#2ba1f2"/>
</svg>
