<svg width="36" height="36" viewBox="0 0 36 36" fill="none" xmlns="http://www.w3.org/2000/svg">
<path d="M29.81 16.0009H29V8.8309C29 8.30047 28.7893 7.79176 28.4142 7.41669C28.0391 7.04161 27.5304 6.8309 27 6.8309H21C20.9368 5.6271 20.4524 4.48382 19.6317 3.60092C18.8109 2.71802 17.706 2.15168 16.51 2.0009C15.8259 1.93047 15.1347 2.00191 14.4795 2.21076C13.8243 2.41961 13.2192 2.76137 12.702 3.21469C12.1849 3.668 11.7668 4.22312 11.474 4.84533C11.1811 5.46755 11.0198 6.14349 11 6.8309H4C3.46957 6.8309 2.96086 7.04161 2.58579 7.41669C2.21071 7.79176 2 8.30047 2 8.8309V17.0009H4.81C5.57946 16.9785 6.33017 17.2405 6.91865 17.7368C7.50714 18.233 7.89211 18.9287 8 19.6909C8.03893 20.1091 7.98961 20.5308 7.85525 20.9287C7.72089 21.3266 7.50447 21.6919 7.22 22.0009C6.94042 22.3135 6.59839 22.564 6.21601 22.7362C5.83363 22.9085 5.41938 22.9986 5 23.0009H2V31.8309C2 32.3613 2.21071 32.87 2.58579 33.2451C2.96086 33.6202 3.46957 33.8309 4 33.8309H27C27.5304 33.8309 28.0391 33.6202 28.4142 33.2451C28.7893 32.87 29 32.3613 29 31.8309V26.0009H30C30.7018 26.0046 31.3965 25.8604 32.039 25.5779C32.6814 25.2953 33.2572 24.8807 33.7288 24.361C34.2005 23.8412 34.5574 23.228 34.7764 22.5613C34.9954 21.8945 35.0716 21.1891 35 20.4909C34.8379 19.2355 34.2192 18.0837 33.2618 17.2555C32.3045 16.4273 31.0757 15.9807 29.81 16.0009Z" fill="#B07D62"/>
</svg>
