<svg width="20" height="18" viewBox="0 0 20 18" fill="none" xmlns="http://www.w3.org/2000/svg">
<path d="M1 0H19C19.2652 0 19.5196 0.105357 19.7071 0.292893C19.8946 0.48043 20 0.734784 20 1V17C20 17.2652 19.8946 17.5196 19.7071 17.7071C19.5196 17.8946 19.2652 18 19 18H1C0.734784 18 0.48043 17.8946 0.292893 17.7071C0.105357 17.5196 0 17.2652 0 17V1C0 0.734784 0.105357 0.48043 0.292893 0.292893C0.48043 0.105357 0.734784 0 1 0V0ZM2 2V16H18V2H2ZM5 12.5H3V5.5H5L7 7.5L9 5.5H11V12.5H9V8.5L7 10.5L5 8.5V12.5ZM16 9.5H18L15 12.5L12 9.5H14V5.5H16V9.5Z" fill="black"/>
</svg>