<svg width="56" height="56" viewBox="0 0 56 56" fill="none" xmlns="http://www.w3.org/2000/svg">
<path d="M17.1793 47.6746L17.0551 47.4265C16.807 46.93 16.807 46.4334 16.9313 45.8126H3.52585L23.3862 10.5615L31.7026 25.5808L34.433 23.5946L26.1166 8.5752C25.9928 8.32714 24.9997 6.83789 23.3862 6.83789C22.6411 6.83789 21.5242 7.08595 20.6553 8.69945L0.546913 44.3233C0.422663 44.6961 -0.446212 46.3096 0.298413 47.6746C0.794976 48.4196 1.54004 49.1643 3.27779 49.1643H20.1587C18.421 49.1643 17.5521 48.4192 17.1793 47.6746Z" fill="#00C58E"/>
<path d="M55.4093 44.4458L39.273 15.4006C39.025 15.1525 38.1561 13.5386 36.5422 13.5386C35.7975 13.5386 34.6806 13.9109 33.8117 15.4006L31.7017 18.8761V25.579L36.5426 17.2626L52.5547 45.8112H46.4725C46.5743 46.4022 46.4873 47.0102 46.224 47.5489L46.0998 47.6732C45.3552 49.0382 43.4932 49.1624 43.2451 49.1624H52.6785C53.0508 49.1624 54.7885 49.0386 55.6574 47.6732C56.0297 47.0524 56.2782 45.9354 55.4093 44.4458Z" fill="#108775"/>
<path d="M46.5982 47.6746V47.5504L46.7224 47.3023C46.8462 46.8057 46.9705 46.3092 46.8462 45.8126L46.3501 44.3234L33.6897 22.2292L31.8277 18.8779H31.7035L29.8415 22.2292L17.1811 44.3229L16.685 45.8126C16.5647 46.4438 16.6517 47.0969 16.933 47.6746C17.4296 48.4192 18.1742 49.1643 19.912 49.1643H43.4958C43.8682 49.1643 45.7302 49.0401 46.599 47.6746H46.5982ZM31.703 25.5804L43.2469 45.8126H20.1596L31.703 25.5804Z" fill="#2F495E"/>
</svg>
