<svg width="56" height="56" viewBox="0 0 56 56" fill="none" xmlns="http://www.w3.org/2000/svg">
<path d="M17.4009 30.477H17.2869L13.6205 24.8783L9.14294 18.268H5.67029V37.5612H9.50519V25.4092H9.67155L12.8548 30.281L17.7426 37.5612H21.2358V18.268H17.4009V30.477ZM22.5825 38.737H25.4081L32.4946 17.2632H29.6372L22.5825 38.737ZM43.6099 18.268H39.6906L32.9117 37.5612H36.9996L38.2597 33.5827H44.9817L46.1574 37.5612H50.3296L43.6099 18.268ZM39.2963 30.3653L40.0779 27.8178L41.5659 22.8049H41.6752L43.1905 27.9022L43.9448 30.3654L39.2963 30.3653Z" fill="#71C5AB"/>
<path d="M22.5825 38.737H25.4081L32.4946 17.2632H29.6372L22.5825 38.737Z" fill="#C9E5DD"/>
</svg>
