<svg width="56" height="56" viewBox="0 0 56 56" fill="none" xmlns="http://www.w3.org/2000/svg">
<path d="M17.4005 30.477H17.2865L13.6202 24.8783L9.14258 18.268H5.66992V37.5612H9.50483V25.4092H9.67119L12.8544 30.281L17.7422 37.5612H21.2354V18.268H17.4005V30.477ZM22.5821 38.737H25.4077L32.4942 17.2632H29.6368L22.5821 38.737ZM43.6095 18.268H39.6902L32.9113 37.5612H36.9992L38.2593 33.5827H44.9814L46.157 37.5612H50.3293L43.6095 18.268ZM39.296 30.3653L40.0775 27.8178L41.5655 22.8049H41.6749L43.1901 27.9022L43.9444 30.3654L39.296 30.3653Z" fill="url(#paint0_linear_1147_1878)"/>
<path d="M22.582 38.737H25.4076L32.4941 17.2632H29.6367L22.582 38.737Z" fill="#71C5AB"/>
<defs>
<linearGradient id="paint0_linear_1147_1878" x1="50.3293" y1="27.9715" x2="5.66992" y2="27.9715" gradientUnits="userSpaceOnUse">
<stop stop-color="#00A8BF"/>
<stop offset="0.9969" stop-color="#009769"/>
</linearGradient>
</defs>
</svg>
