<?xml version="1.0" encoding="iso-8859-1"?>
<!-- Generator: Adobe Illustrator 19.0.0, SVG Export Plug-In . SVG Version: 6.00 Build 0)  -->
<svg version="1.1" id="Layer_1" xmlns="http://www.w3.org/2000/svg" xmlns:xlink="http://www.w3.org/1999/xlink" x="0px" y="0px"
	 viewBox="0 0 512 512" style="enable-background:new 0 0 512 512;" xml:space="preserve">
<path style="fill:#B757D1;" d="M493.268,287.588H381.063c-10.345,0-18.732-8.387-18.732-18.732V149.669H243.144
	c-10.345,0-18.732-8.387-18.732-18.732V18.732C224.412,8.387,232.799,0,243.144,0h250.124C503.613,0,512,8.387,512,18.732v250.124
	C512,279.202,503.613,287.588,493.268,287.588z"/>
<path style="fill:#FF52A0;" d="M381.063,399.795H268.857c-10.345,0-18.732-8.387-18.732-18.732V261.876H130.938
	c-10.345,0-18.732-8.387-18.732-18.732V130.938c0-10.345,8.387-18.732,18.732-18.732h250.126c10.345,0,18.732,8.387,18.732,18.732
	v250.126C399.795,391.408,391.408,399.795,381.063,399.795z"/>
<path style="fill:#FF90C2;" d="M268.856,512H18.732C8.387,512,0,503.613,0,493.268V243.144c0-10.345,8.387-18.732,18.732-18.732
	h250.124c10.345,0,18.732,8.387,18.732,18.732v250.124C287.588,503.613,279.202,512,268.856,512z"/>
<g>
</g>
<g>
</g>
<g>
</g>
<g>
</g>
<g>
</g>
<g>
</g>
<g>
</g>
<g>
</g>
<g>
</g>
<g>
</g>
<g>
</g>
<g>
</g>
<g>
</g>
<g>
</g>
<g>
</g>
</svg>
