<?xml version="1.0" encoding="iso-8859-1"?>
<!-- Generator: Adobe Illustrator 19.0.0, SVG Export Plug-In . SVG Version: 6.00 Build 0)  -->
<svg version="1.1" id="Layer_1" xmlns="http://www.w3.org/2000/svg" xmlns:xlink="http://www.w3.org/1999/xlink" x="0px" y="0px"
	 viewBox="0 0 512 512" style="enable-background:new 0 0 512 512;" xml:space="preserve">
<polygon style="fill:#75EBE5;" points="361.342,392.427 10.2,392.427 150.657,287.66 501.8,287.66 "/>
<polygon style="fill:#FFFFFF;" points="361.342,308.383 10.2,308.383 150.657,203.616 501.8,203.616 "/>
<polygon style="fill:#F92859;" points="361.342,224.34 10.2,224.34 150.657,119.572 501.8,119.572 "/>
<g>
	<path style="fill:#333333;" d="M511.48,200.403c-1.384-4.171-5.285-6.986-9.68-6.986h-81.942l88.04-65.669
		c3.523-2.627,4.966-7.217,3.582-11.388c-1.384-4.171-5.285-6.986-9.68-6.986H150.657c-2.198,0-4.337,0.71-6.098,2.024
		L4.102,216.164c-3.523,2.627-4.966,7.217-3.582,11.388s5.285,6.986,9.68,6.986h81.942l-88.04,65.669
		c-3.523,2.627-4.966,7.217-3.582,11.388s5.285,6.986,9.68,6.986h81.942l-88.04,65.669c-3.523,2.627-4.966,7.217-3.582,11.388
		c1.384,4.171,5.285,6.986,9.68,6.986h351.144c2.198,0,4.337-0.71,6.098-2.023l140.457-104.769
		c3.523-2.627,4.966-7.217,3.582-11.388c-1.384-4.171-5.285-6.986-9.68-6.986h-81.942l88.04-65.669
		C511.421,209.163,512.864,204.575,511.48,200.403z M154.042,129.771h317.026l-113.11,84.37H40.932L154.042,129.771z
		 M471.068,297.86l-113.11,84.37H40.932l85.327-63.646h235.084c2.198,0,4.337-0.71,6.098-2.024l25.07-18.699h78.557V297.86z
		 M357.957,298.185H40.932l85.327-63.646h235.084c2.198,0,4.337-0.71,6.098-2.024l25.07-18.699h78.557L357.957,298.185z"/>
	<path style="fill:#333333;" d="M347.162,351.872H195.825c-5.633,0-10.199,4.566-10.199,10.199s4.566,10.199,10.199,10.199h151.337
		c5.633,0,10.199-4.566,10.199-10.199S352.794,351.872,347.162,351.872z"/>
	<path style="fill:#333333;" d="M161.148,351.872h-5.1c-5.633,0-10.199,4.566-10.199,10.199s4.566,10.199,10.199,10.199h5.1
		c5.633,0,10.199-4.566,10.199-10.199S166.781,351.872,161.148,351.872z"/>
</g>
<g>
</g>
<g>
</g>
<g>
</g>
<g>
</g>
<g>
</g>
<g>
</g>
<g>
</g>
<g>
</g>
<g>
</g>
<g>
</g>
<g>
</g>
<g>
</g>
<g>
</g>
<g>
</g>
<g>
</g>
</svg>
