<svg width="123" height="113" viewBox="0 0 123 113" fill="none" xmlns="http://www.w3.org/2000/svg">
<g clip-path="url(#clip0_205_46)">
<path fill-rule="evenodd" clip-rule="evenodd" d="M101.58 14.7L110.4 23.52C112.72 25.84 112.72 29.64 110.4 31.96L103.3 39.06C105.26 42.72 106.75 46.66 107.71 50.81H116.91C120.19 50.81 122.88 53.5 122.88 56.78V69.25C122.88 72.53 120.19 75.22 116.91 75.22H106.87C105.64 79.28 103.88 83.12 101.67 86.64L108.18 93.15C110.5 95.47 110.5 99.27 108.18 101.59L99.36 110.41C97.04 112.73 93.24 112.73 90.92 110.41L84 103.48V88.03C91.53 81.63 96.31 72.09 96.31 61.44C96.31 42.18 80.69 26.56 61.43 26.56C42.17 26.56 26.55 42.18 26.55 61.44C26.55 71.08 30.47 79.82 36.8 86.13L36.23 101.67L29.72 108.18C27.4 110.5 23.6 110.5 21.28 108.18L12.46 99.36C10.14 97.04 10.14 93.24 12.46 90.92L19.56 83.82C17.6 80.16 16.1 76.22 15.15 72.07H5.95C2.69 72.06 0 69.37 0 66.09V53.63C0 50.35 2.69 47.66 5.97 47.66H16.01C17.24 43.6 19 39.76 21.21 36.24L14.7 29.73C12.38 27.41 12.38 23.61 14.7 21.29L23.52 12.47C25.84 10.15 29.64 10.15 31.96 12.47L39.06 19.57C42.72 17.61 46.66 16.11 50.81 15.16V5.96C50.81 2.69 53.5 0 56.78 0H69.25C72.53 0 75.22 2.69 75.22 5.97V16C79.28 17.23 83.12 18.99 86.64 21.2L93.15 14.69C95.46 12.38 99.26 12.38 101.58 14.7Z" fill="#3BB4E7"/>
<path d="M44.23 74.52C39.89 68.8 36.44 62.38 40.03 52.96C42.35 46.85 47.71 41.84 54.46 39.04C43.43 63.38 75.1 72.1 76.05 43.27C86.65 52.07 86.56 65.05 78.79 75.54C75.12 80.5 74.13 83.29 73.33 86.14C72.87 87.7 72.78 89.27 72.78 91.25C72.77 93.94 72.89 103.74 73.04 111.93H65.83V90.56C65.83 86.69 59.98 86.69 59.98 90.56V111.93H53.35C53.2 104.26 53.04 95.01 52.87 92.58C52.72 90.08 52.47 88.41 51.85 86.83C50.76 83.97 49.38 81.38 44.23 74.61V74.52Z" fill="#ED5C68"/>
</g>
<defs>
<clipPath id="clip0_205_46">
<rect width="122.88" height="112.14" fill="white"/>
</clipPath>
</defs>
</svg>
