<svg width="16" height="16" viewBox="0 0 16 16" fill="none" xmlns="http://www.w3.org/2000/svg">
<path d="M6.01565 1.11233C4.77815 1.33421 3.68752 2.09046 3.0469 3.17171C2.61877 3.89358 2.43752 4.62796 2.43752 5.62171V6.02796L2.30627 6.06233C2.07502 6.12171 1.90002 6.19046 1.6344 6.33108C0.809399 6.75921 0.218774 7.55296 0.0437744 8.46233C-0.0124756 8.75921 -0.0124756 9.36545 0.0437744 9.66233C0.184399 10.3905 0.615649 11.0811 1.21877 11.5373C1.48752 11.7436 1.98127 11.9811 2.31252 12.0623C2.69065 12.1592 3.14377 12.1811 3.32502 12.1123C3.69065 11.9717 3.8344 11.4936 3.61565 11.1592C3.4969 10.9811 3.33127 10.9061 2.98752 10.8748C2.4969 10.8248 2.12502 10.6561 1.7969 10.3311C1.4594 9.99045 1.28127 9.55295 1.28127 9.06233C1.28127 8.57171 1.4594 8.13421 1.7969 7.79358C2.12502 7.46546 2.49377 7.29983 2.9969 7.24983C3.35627 7.21546 3.5344 7.12171 3.6469 6.9092C3.71565 6.77483 3.71877 6.74671 3.71877 5.99671C3.71877 5.14671 3.7469 4.86233 3.86565 4.48421C4.02815 3.97483 4.27815 3.56858 4.6594 3.19983C5.19377 2.69046 5.8094 2.40296 6.50315 2.34671C7.97502 2.23108 9.28127 3.14046 9.7094 4.57796C9.78752 4.84671 9.79065 4.89983 9.8094 5.82796C9.83127 6.89983 9.83127 6.89983 10.0438 7.08733C10.1063 7.14046 10.2063 7.19983 10.2719 7.21546C10.3469 7.23733 10.9031 7.24983 11.7656 7.24983C13.3 7.24983 13.3344 7.25295 13.7469 7.45921C14.1813 7.67796 14.5469 8.13108 14.6719 8.61233C14.7313 8.8467 14.7313 9.27796 14.6719 9.51233C14.5969 9.79358 14.4156 10.1123 14.2031 10.3248C13.8781 10.6561 13.5063 10.8248 13.0125 10.8748C12.8281 10.8905 12.6813 10.9248 12.5969 10.9655C12.2563 11.1405 12.175 11.6498 12.4438 11.953C12.5875 12.1186 12.7594 12.1686 13.1188 12.1467C13.5219 12.1248 13.8875 12.028 14.2656 11.8436C15.0938 11.4436 15.6469 10.7748 15.9125 9.85608C15.975 9.64046 15.9844 9.54046 15.9844 9.06233C15.9844 8.58421 15.975 8.48421 15.9125 8.26858C15.6469 7.34983 15.0938 6.68108 14.2656 6.28108C13.6938 6.00296 13.625 5.99046 12.2781 5.97796L11.1031 5.96546L11.0844 5.34983C11.0625 4.50921 10.95 4.04046 10.6156 3.39046C10 2.19046 8.81252 1.32483 7.49377 1.10921C7.12815 1.04983 6.35315 1.05296 6.01565 1.11233Z" fill="#EC3428"/>
<path d="M7.80316 8.1252C7.66566 8.16895 7.50629 8.30645 7.43754 8.4377C7.38441 8.54082 7.37504 8.62207 7.37504 8.92832V9.29707L6.89691 9.56895C6.63441 9.72207 6.40941 9.84395 6.40004 9.84395C6.39066 9.84395 6.25629 9.77207 6.10316 9.68145C5.86254 9.5377 5.80316 9.51582 5.62504 9.50645C5.45629 9.49707 5.39691 9.50957 5.28129 9.57207C4.98754 9.72832 4.86879 10.1221 5.02191 10.4221C5.10629 10.5814 5.14691 10.6189 5.46879 10.8033L5.73441 10.9564L5.74066 11.5189L5.75004 12.0783L5.44066 12.2564C5.18129 12.4064 5.11254 12.4596 5.04379 12.5814C4.82816 12.9502 5.01879 13.4221 5.43441 13.5314C5.63129 13.5846 5.76879 13.5471 6.10629 13.3564L6.40629 13.1877L6.88441 13.4627L7.35941 13.7377L7.37504 14.1439C7.39066 14.5658 7.40629 14.6189 7.55316 14.7564C7.80316 14.9939 8.19691 14.9939 8.44691 14.7564C8.59379 14.6189 8.60941 14.5658 8.62504 14.1439L8.64066 13.7408L9.11566 13.4658L9.59066 13.1877L9.89379 13.3564C10.2282 13.5439 10.3688 13.5846 10.5532 13.5346C10.9782 13.4189 11.175 12.9564 10.9563 12.5814C10.8875 12.4596 10.8188 12.4064 10.5594 12.2564L10.25 12.0783L10.2594 11.5189L10.2657 10.9564L10.5313 10.8033C10.8532 10.6189 10.8938 10.5814 10.9782 10.4221C11.1313 10.1221 11.0125 9.72832 10.7188 9.57207C10.6032 9.50957 10.5438 9.49707 10.375 9.50645C10.1969 9.51582 10.1375 9.5377 9.89691 9.68145C9.74379 9.77207 9.60941 9.84395 9.60004 9.84395C9.59066 9.84395 9.36566 9.72207 9.10316 9.56895L8.62504 9.29707V8.92207C8.62504 8.4877 8.57816 8.36582 8.35629 8.20957C8.21879 8.1127 7.96254 8.07207 7.80316 8.1252ZM8.49691 10.7096L8.96879 10.9814L8.96254 11.5252L8.95316 12.0689L8.47816 12.3439L8.00004 12.6221L7.52504 12.3439L7.04691 12.0689L7.03754 11.5252L7.03129 10.9846L7.49066 10.7127C7.74691 10.5658 7.96879 10.4408 7.99066 10.4408C8.00941 10.4377 8.23754 10.5596 8.49691 10.7096Z" fill="#669AFE"/>
</svg>
