<?xml version="1.0" encoding="iso-8859-1"?>
<!-- Generator: Adobe Illustrator 19.0.0, SVG Export Plug-In . SVG Version: 6.00 Build 0)  -->
<svg version="1.1" id="Layer_1" xmlns="http://www.w3.org/2000/svg" xmlns:xlink="http://www.w3.org/1999/xlink" x="0px" y="0px"
	 viewBox="0 0 512 512" style="enable-background:new 0 0 512 512;" xml:space="preserve">
<circle style="fill:#FEDEA1;" cx="294.4" cy="268.535" r="25.6"/>
<circle style="fill:#A0BF7C;" cx="192" cy="345.336" r="25.6"/>
<circle style="fill:#FF877F;" cx="320" cy="422.144" r="25.6"/>
<path style="fill:#6FB0B6;" d="M343.253,422.665v-10.897c-4.087-9.182-13.193-15.232-23.253-15.232
	c-10.061,0-19.166,6.05-23.253,15.232v10.368l-12.8,0.538H140.8c-70.579,0-128-57.421-128-128
	c0-67.311,52.224-122.65,118.281-127.633C142.925,107.716,194.782,64.265,256,64.265s113.075,43.452,124.919,102.767
	c66.057,4.983,118.281,60.331,118.281,127.633c0,70.579-57.421,128-128,128H343.253z M168.004,353.843
	c3.635,10.223,13.278,17.092,23.996,17.092c10.718,0,20.352-6.869,23.996-17.092l3.021-8.508l-3.021-8.508
	c-3.635-10.223-13.278-17.092-23.996-17.092c-10.718,0-20.352,6.869-23.996,17.092l-3.021,8.508L168.004,353.843z M270.404,277.043
	c3.635,10.223,13.278,17.092,23.996,17.092c10.718,0,20.352-6.869,23.996-17.092l3.021-8.508l-3.021-8.508
	c-3.635-10.223-13.278-17.092-23.996-17.092c-10.718,0-20.352,6.869-23.996,17.092l-3.021,8.508L270.404,277.043z"/>
<g>
	<path style="fill:#573A32;" d="M294.4,230.135c-16.691,0-30.763,10.718-36.053,25.6H128v25.6h130.347
		c5.291,14.882,19.354,25.6,36.053,25.6s30.763-10.718,36.053-25.6H384v-25.6h-53.547
		C325.163,240.853,311.091,230.135,294.4,230.135z M294.4,281.336c-7.057,0-12.8-5.743-12.8-12.8c0-7.057,5.743-12.8,12.8-12.8
		s12.8,5.743,12.8,12.8C307.2,275.593,301.457,281.336,294.4,281.336z"/>
	<path style="fill:#573A32;" d="M192,306.936c-16.691,0-30.763,10.718-36.053,25.6H128v25.6h27.947
		c5.291,14.882,19.354,25.6,36.053,25.6s30.763-10.718,36.053-25.6H384v-25.6H228.053C222.763,317.653,208.691,306.936,192,306.936z
		 M192,358.135c-7.057,0-12.8-5.743-12.8-12.8s5.743-12.8,12.8-12.8c7.057,0,12.8,5.743,12.8,12.8S199.057,358.135,192,358.135z"/>
	<path style="fill:#573A32;" d="M391.305,155.298C374.98,94.814,320.162,51.465,256,51.465S137.028,94.814,120.695,155.298
		C52.54,165.086,0,223.855,0,294.665c0,77.636,63.164,140.8,140.8,140.8h143.386c5.436,14.592,19.328,25.071,35.814,25.071
		c16.486,0,30.379-10.479,35.814-25.071H371.2c77.636,0,140.8-63.164,140.8-140.8C512,223.855,459.46,165.086,391.305,155.298z
		 M320,434.936c-7.057,0-12.8-5.743-12.8-12.8c0-7.057,5.743-12.8,12.8-12.8c7.057,0,12.8,5.743,12.8,12.8
		C332.8,429.193,327.057,434.936,320,434.936z M371.2,409.865c-4.702,0-9.822,0-15.147,0v-0.538
		c-5.291-14.882-19.354-25.6-36.053-25.6s-30.763,10.718-36.053,25.6v0.538c-51.379,0-107.008,0-143.147,0
		c-63.625,0-115.2-51.575-115.2-115.2s51.575-115.2,115.2-115.2c0.435,0,0.845,0.119,1.28,0.128
		C148.463,122.018,196.719,77.065,256,77.065s107.537,44.945,113.92,102.528c0.435-0.009,0.845-0.128,1.28-0.128
		c63.625,0,115.2,51.575,115.2,115.2S434.825,409.865,371.2,409.865z"/>
</g>
<g>
</g>
<g>
</g>
<g>
</g>
<g>
</g>
<g>
</g>
<g>
</g>
<g>
</g>
<g>
</g>
<g>
</g>
<g>
</g>
<g>
</g>
<g>
</g>
<g>
</g>
<g>
</g>
<g>
</g>
</svg>
