<svg width="24" height="24" viewBox="0 0 24 24" fill="none" xmlns="http://www.w3.org/2000/svg">
<g clip-path="url(#clip0_994_7)">
<path d="M22.5525 18.54L18.4425 14.43C19.11 13.14 19.5 11.6775 19.5 10.125C19.5 4.9575 15.2925 0.75 10.125 0.75C4.9575 0.75 0.75 4.9575 0.75 10.125C0.75 15.2925 4.9575 19.5 10.125 19.5C11.6775 19.5 13.14 19.1175 14.43 18.4425L18.54 22.5525C19.005 23.0175 19.6125 23.25 20.2275 23.25C20.8425 23.25 21.45 23.0175 21.9075 22.5525L22.5525 21.9075C23.4825 20.9775 23.4825 19.47 22.5525 18.54ZM2.25 10.125C2.25 5.7825 5.7825 2.25 10.125 2.25C14.4675 2.25 18 5.7825 18 10.125C18 14.4675 14.4675 18 10.125 18C5.7825 18 2.25 14.4675 2.25 10.125ZM17.9175 19.8075L15.7275 17.6175C16.4475 17.0775 17.085 16.44 17.6175 15.7275L19.8075 17.9175L17.9175 19.8075ZM21.495 20.8425L20.85 21.4875C20.505 21.8325 19.95 21.8325 19.605 21.4875L18.9825 20.865L20.8725 18.975L21.495 19.5975C21.84 19.9425 21.84 20.4975 21.495 20.8425Z" fill="#71C5AB"/>
<path d="M11.25 10.875H9C8.5875 10.875 8.25 11.2125 8.25 11.625C8.25 12.0375 8.5875 12.375 9 12.375H11.25C11.6625 12.375 12 12.0375 12 11.625C12 11.2125 11.6625 10.875 11.25 10.875Z" fill="#71C5AB"/>
<path d="M13.125 5.625H7.125C6.09 5.625 5.25 6.465 5.25 7.5V9.375C5.25 9.6525 5.4075 9.8775 5.625 10.0125V12.75C5.625 13.785 6.465 14.625 7.5 14.625H12.75C13.785 14.625 14.625 13.785 14.625 12.75V10.0125C14.8425 9.885 15 9.6525 15 9.375V7.5C15 6.465 14.16 5.625 13.125 5.625ZM6.75 7.5C6.75 7.29 6.915 7.125 7.125 7.125H13.125C13.335 7.125 13.5 7.29 13.5 7.5V8.625H6.75V7.5ZM12.75 13.125H7.5C7.29 13.125 7.125 12.96 7.125 12.75V10.125H13.125V12.75C13.125 12.96 12.96 13.125 12.75 13.125Z" fill="#71C5AB"/>
</g>
<defs>
<clipPath id="clip0_994_7">
<rect width="24" height="24" fill="white"/>
</clipPath>
</defs>
</svg>
