<?xml version="1.0" encoding="iso-8859-1"?>
<!-- Generator: Adobe Illustrator 18.0.0, SVG Export Plug-In . SVG Version: 6.00 Build 0)  -->
<!DOCTYPE svg PUBLIC "-//W3C//DTD SVG 1.1//EN" "http://www.w3.org/Graphics/SVG/1.1/DTD/svg11.dtd">
<svg version="1.1" id="Capa_1" xmlns="http://www.w3.org/2000/svg" xmlns:xlink="http://www.w3.org/1999/xlink" x="0px" y="0px"
	 viewBox="0 0 423.614 423.614" style="enable-background:new 0 0 423.614 423.614;" xml:space="preserve">
<g>
	<path style="fill:none;" d="M218.575,218.571c34.699-34.701,34.699-91.162,0-125.862c-16.81-16.81-39.16-26.066-62.931-26.066
		c-23.772,0-46.121,9.257-62.929,26.065c-16.81,16.811-26.067,39.16-26.067,62.932c0,23.772,9.258,46.121,26.066,62.931
		c16.81,16.81,39.158,26.067,62.93,26.067C179.416,244.638,201.765,235.381,218.575,218.571z M107.291,119.75
		c-4.687-4.687-4.687-12.284,0-16.971c12.915-12.914,30.086-20.027,48.351-20.027c0.001,0,0,0,0.001,0
		c18.266,0,35.438,7.113,48.354,20.03c4.686,4.687,4.686,12.285-0.002,16.971c-2.342,2.343-5.414,3.515-8.484,3.515
		c-3.071,0-6.143-1.171-8.486-3.515c-8.381-8.383-19.526-13-31.381-13c-11.855,0-23,4.616-31.382,12.998
		C119.575,124.436,111.978,124.436,107.291,119.75z"/>
	<path style="fill:none;" d="M291.483,231.642l98.461,98.591V71.944H286.872C317.694,120.257,319.237,181.993,291.483,231.642z"/>
	<path style="fill:none;" d="M155.644,311.282c-30.12,0-58.93-8.504-83.699-24.366v103.026h258.257l-98.647-98.356
		C208.618,304.44,182.657,311.282,155.644,311.282z M254.715,351.987c0,6.628-5.373,12-12,12H107.589c-6.627,0-12-5.372-12-12
		c0-6.628,5.373-12,12-12h135.126C249.342,339.987,254.715,345.36,254.715,351.987z"/>
	<path style="fill:#73D0F4;" d="M394.434,368.692L277.879,251.984c-3.746,4.748-7.801,9.332-12.18,13.712
		c-4.393,4.392-9.006,8.484-13.809,12.276l116.778,116.434c0.091,0.081,0.179,0.164,0.269,0.249c7.086,6.79,18.5,6.667,25.441-0.276
		c6.941-6.942,7.064-18.357,0.275-25.449C394.581,368.851,394.506,368.772,394.434,368.692z"/>
	<path style="fill:#73D0F4;" d="M248.729,248.725c51.324-51.327,51.324-134.842,0-186.169C223.864,37.692,190.806,24,155.644,24
		c-35.163,0-68.221,13.692-93.083,38.556C37.696,87.42,24.002,120.478,24.002,155.64c0,35.163,13.694,68.221,38.558,93.085
		c24.862,24.864,57.921,38.557,93.083,38.557C190.807,287.282,223.864,273.589,248.729,248.725z M42.647,155.64
		c0-30.183,11.754-58.559,33.097-79.902c21.34-21.342,49.715-33.095,79.899-33.095c30.182,0,58.559,11.753,79.901,33.095
		c44.058,44.059,44.058,115.746,0,159.803c-21.341,21.343-49.717,33.097-79.901,33.097c-30.183,0-58.559-11.754-79.901-33.098
		C54.401,214.199,42.647,185.823,42.647,155.64z"/>
	<path style="fill:#3D6889;" d="M235.544,235.542c44.058-44.058,44.058-115.745,0-159.803
		c-21.342-21.342-49.719-33.095-79.901-33.095c-30.184,0-58.559,11.753-79.899,33.095c-21.343,21.343-33.097,49.719-33.097,79.902
		s11.754,58.559,33.095,79.9c21.342,21.344,49.718,33.098,79.901,33.098C185.827,268.638,214.203,256.884,235.544,235.542z
		 M66.647,155.64c0-23.771,9.258-46.121,26.067-62.932c16.808-16.809,39.156-26.065,62.929-26.065
		c23.771,0,46.121,9.257,62.931,26.066c34.699,34.7,34.699,91.161,0,125.862c-16.81,16.81-39.159,26.067-62.931,26.067
		c-23.771,0-46.12-9.257-62.93-26.067C75.905,201.761,66.647,179.412,66.647,155.64z"/>
	<path style="fill:#3D6889;" d="M187.024,119.752c2.343,2.344,5.415,3.515,8.486,3.515c3.07,0,6.143-1.171,8.484-3.515
		c4.688-4.686,4.688-12.284,0.002-16.971c-12.916-12.916-30.088-20.03-48.354-20.03c-0.001,0,0,0-0.001,0
		c-18.265,0-35.437,7.113-48.351,20.027c-4.687,4.687-4.687,12.284,0,16.971c4.687,4.686,12.284,4.686,16.971,0
		c8.382-8.382,19.526-12.998,31.382-12.998C167.498,106.752,178.644,111.369,187.024,119.752z"/>
	<path style="fill:#3D6889;" d="M413.944,354.526V59.944c0-6.627-5.373-12-12-12H267.999c-0.758-0.792-1.522-1.58-2.299-2.358
		C236.301,16.188,197.216,0,155.644,0C114.069,0,74.985,16.188,45.59,45.585C16.192,74.981,0.002,114.066,0.002,155.64
		c0,41.574,16.19,80.659,45.587,110.056c0.777,0.777,1.563,1.54,2.354,2.298v133.949c0,6.627,5.373,12,12,12h294.589
		c7.762,6.452,17.367,9.673,26.973,9.672c10.842-0.001,21.68-4.099,29.846-12.267C426.751,395.948,427.676,371.053,413.944,354.526z
		 M394.379,394.378c-6.941,6.943-18.355,7.066-25.441,0.276c-0.09-0.085-0.178-0.167-0.269-0.249L251.891,277.972
		c4.803-3.793,9.416-7.884,13.809-12.276c4.379-4.38,8.434-8.964,12.18-13.712l116.555,116.709c0.072,0.08,0.146,0.159,0.221,0.236
		C401.444,376.021,401.321,387.436,394.379,394.378z M389.944,71.944v258.289l-98.461-98.591
		c27.754-49.649,26.211-111.385-4.611-159.698H389.944z M24.002,155.64c0-35.162,13.694-68.22,38.558-93.084
		C87.423,37.692,120.48,24,155.644,24c35.162,0,68.22,13.692,93.085,38.556c51.324,51.327,51.324,134.843,0,186.169
		c-24.865,24.864-57.922,38.557-93.085,38.557c-35.162,0-68.221-13.693-93.083-38.557C37.696,223.861,24.002,190.803,24.002,155.64z
		 M71.944,389.942V286.916c24.77,15.862,53.579,24.366,83.699,24.366c27.014,0,52.975-6.842,75.912-19.696l98.647,98.356H71.944z"/>
</g>
<g>
</g>
<g>
</g>
<g>
</g>
<g>
</g>
<g>
</g>
<g>
</g>
<g>
</g>
<g>
</g>
<g>
</g>
<g>
</g>
<g>
</g>
<g>
</g>
<g>
</g>
<g>
</g>
<g>
</g>
</svg>
