<svg width="48" height="50" viewBox="0 0 48 50" fill="none" xmlns="http://www.w3.org/2000/svg">
<path d="M25.4998 14.9992C26.0998 14.3992 26.0998 13.4992 25.4998 12.8992L14.0998 1.39922C13.4998 0.799219 12.5998 0.799219 11.9998 1.39922L0.499805 12.8992C-0.100195 13.4992 -0.100195 14.3992 0.499805 14.9992L2.5998 17.0992C3.1998 17.6992 4.0998 17.6992 4.6998 17.0992L8.2998 13.4992C8.8998 12.8992 9.9998 13.2992 9.9998 14.1992V35.3992C9.9998 36.1992 10.6998 36.8992 11.4998 36.8992H14.4998C15.2998 36.8992 15.9998 36.0992 15.9998 35.3992V14.1992C15.9998 13.2992 17.0998 12.8992 17.6998 13.4992L21.2998 17.0992C21.8998 17.6992 22.7998 17.6992 23.3998 17.0992L25.4998 14.9992Z" fill="black"/>
<path d="M47.4998 35L45.3998 33C44.7998 32.4 43.8998 32.4 43.2998 33L39.6998 36.6C39.0998 37.2 37.9998 36.8 37.9998 35.9V14.5C37.9998 13.7 37.2998 13 36.4998 13H33.4998C32.6998 13 31.9998 13.8 31.9998 14.5V35.7C31.9998 36.6 30.8998 37 30.2998 36.4L26.6998 32.8C26.0998 32.2 25.1998 32.2 24.5998 32.8L22.4998 35C21.8998 35.6 21.8998 36.5 22.4998 37.1L33.9998 48.6C34.5998 49.2 35.4998 49.2 36.0998 48.6L47.5998 37.1C48.0998 36.5 48.0998 35.5 47.4998 35Z" fill="black"/>
</svg>
