<svg width="52" height="52" viewBox="0 0 52 52" fill="none" xmlns="http://www.w3.org/2000/svg">
<g clip-path="url(#clip0_293_475)">
<path d="M14.8701 2.54594C15.874 2.11924 16.7929 1.60136 17.7773 1.29262C19.2332 0.836039 20.7211 0.444684 22.2229 0.184162C23.3459 -0.0106383 24.5126 0.0500261 25.6593 -0.0120875C28.2607 -0.152994 30.834 0.11149 33.3095 0.875565C34.9882 1.39367 36.5969 2.16395 38.1952 2.91078C40.7266 4.09368 42.9217 5.78434 44.7986 7.82967C46.0506 9.19391 47.1652 10.7002 48.2159 12.2291C49.5752 14.2071 50.4586 16.437 51.1246 18.7303C51.4867 19.9771 51.7251 21.2817 51.8313 22.5756C51.9794 24.3795 52.0482 26.2021 51.967 28.0085C51.9065 29.3521 51.6329 30.7019 51.3102 32.0136C50.9641 33.4201 50.5521 34.8292 49.9816 36.1567C49.3159 37.7058 48.5267 39.1913 47.529 40.5941C46.4421 42.1223 45.2909 43.5654 43.9163 44.818C42.5167 46.0933 41.1002 47.3603 39.3655 48.2029C38.5059 48.6204 37.7224 49.2046 36.846 49.5752C35.7438 50.0413 34.5886 50.3879 33.4433 50.7444C32.5568 51.0203 31.6624 51.3023 30.7505 51.4584C28.5885 51.8285 26.4156 52.0886 24.2136 51.7557C23.2741 51.6137 22.2931 51.6693 21.3816 51.4367C19.7627 51.0236 18.1566 50.5275 16.594 49.9368C15.3076 49.4506 14.0114 48.9012 12.8646 48.1564C11.3197 47.153 9.8806 45.9756 8.45782 44.7983C6.97313 43.5698 5.73866 42.0844 4.70602 40.4679C3.67995 38.8617 2.6247 37.2542 2.08362 35.3867C1.54172 33.5163 0.744518 31.6853 0.48017 29.7786C0.193324 27.7097 0.323439 25.5708 0.405243 23.4676C0.453175 22.2352 0.698187 20.999 0.964948 19.7889C1.71075 16.4056 3.18488 13.3412 5.21954 10.5484C6.32706 9.02815 7.56234 7.60773 8.99981 6.39171C10.7826 4.88358 12.6595 3.50124 14.8701 2.54594ZM9.9064 12.9786C8.71036 14.2488 7.90536 15.7683 7.19699 17.3362C5.78214 20.4678 5.18703 23.7599 5.40027 27.1917C5.41013 27.3504 5.56649 27.6403 5.62638 27.6331C6.06179 27.581 6.52004 27.5301 6.90465 27.3425C7.04591 27.2736 7.05432 26.8346 7.04389 26.5675C6.9411 23.9339 7.4347 21.4063 8.33607 18.9427C8.49749 18.5015 8.73114 18.322 9.21919 18.3278C11.3515 18.3531 13.4844 18.3521 15.6167 18.3293C16.1504 18.3236 16.3327 18.5167 16.3121 19.0344C16.284 19.7441 16.326 20.4565 16.3016 21.1665C16.287 21.5934 16.4293 21.7626 16.8698 21.7464C17.6034 21.7196 18.339 21.7536 19.0731 21.7341C19.4691 21.7236 19.6263 21.8694 19.6167 22.27C19.5987 23.0278 19.587 23.7876 19.6231 24.5442C19.6477 25.0596 19.4384 25.1911 18.9577 25.1806C17.7498 25.1542 16.5397 25.2041 15.333 25.1585C14.7192 25.1354 14.5756 25.3595 14.5893 25.9323C14.6247 27.4243 14.639 28.9192 14.5764 30.4094C14.56 30.7975 14.3193 31.2679 14.0296 31.5368C12.8886 32.5959 11.6671 33.5678 10.5141 34.6146C9.5269 35.5109 9.39462 35.508 8.86006 34.2963C8.73628 34.0158 8.6428 33.7207 8.50457 33.4479C8.20979 32.8661 8.16705 32.3176 8.49457 31.7115C8.85465 31.0451 8.58993 30.1663 7.98417 29.7321C7.24667 29.2035 6.33076 29.3342 5.71324 30.056C5.19632 30.6603 5.27312 31.6139 5.84359 32.2451C6.15435 32.5889 6.49235 32.9552 6.65868 33.3746C7.55965 35.6461 8.73601 37.7682 10.3026 39.6284C12.0777 41.7363 14.2087 43.4649 16.6723 44.7277C20.097 46.4831 23.729 47.2649 27.5945 47.0448C30.3931 46.8854 33.0339 46.2212 35.5568 45.0241C37.6665 44.023 39.5534 42.6821 41.2039 41.0579C42.2208 40.0572 43.1093 38.8966 43.9067 37.708C46.1049 34.4316 47.3711 30.8197 47.4446 26.8455C47.466 25.6917 47.3768 24.5333 47.2837 23.3814C47.259 23.0767 47.0315 22.7884 46.8971 22.4925C46.4391 22.7046 45.7854 22.384 45.4793 23.0558C45.3938 23.2433 45.1044 23.4505 44.904 23.4551C43.4357 23.4895 41.966 23.4594 40.4972 23.4839C40.0161 23.4919 39.8874 23.3017 39.8983 22.8547C39.9219 21.8837 39.8782 20.9108 39.9157 19.9407C39.9375 19.3751 39.7347 19.201 39.1792 19.2095C37.3788 19.237 35.5742 19.1537 33.7782 19.2468C32.8304 19.296 32.301 18.9357 31.8638 18.1736C31.61 17.7312 31.5875 17.423 31.9738 17.0552C32.7972 16.271 33.6113 15.4741 34.3791 14.6364C34.6069 14.3878 34.7755 13.9892 34.7859 13.6536C34.83 12.2333 34.799 10.8107 34.8062 9.38906C34.8096 8.73834 35.0072 8.6014 35.5748 8.92248C36.3296 9.34948 37.0692 9.80974 37.7811 10.3048C39.8632 11.7527 41.5503 13.6015 42.8624 15.7478C43.4957 16.784 44.2903 17.8161 44.1954 19.1824C44.1349 20.0535 44.7309 20.7818 45.4672 20.8808C46.3294 20.9966 47.17 20.5251 47.4024 19.7952C47.6599 18.9861 47.2867 18.0588 46.4348 17.7832C45.7308 17.5555 45.4209 17.0857 45.1688 16.4852C45.0688 16.2469 44.9545 16.0123 44.8235 15.7897C43.5717 13.6625 42.0702 11.7572 40.2043 10.1084C38.553 8.64922 36.744 7.45758 34.7386 6.62543C31.5291 5.29371 28.187 4.59874 24.6696 4.98197C22.5017 5.21817 20.4186 5.68178 18.384 6.50241C15.2113 7.78207 12.6234 9.81738 10.3489 12.3101C10.1938 12.4801 10.0963 12.7027 9.9064 12.9786Z" fill="#F9FAFB"/>
<path d="M9.93896 12.9395C10.0961 12.7024 10.1936 12.4799 10.3488 12.3099C12.6232 9.81715 15.2111 7.78184 18.3838 6.50218C20.4184 5.68155 22.5015 5.21794 24.6694 4.98174C28.1868 4.59851 31.5289 5.29348 34.7384 6.6252C36.7438 7.45735 38.5528 8.64899 40.2041 10.1082C42.07 11.7569 43.5715 13.6622 44.8233 15.7894C44.9543 16.0121 45.0686 16.2467 45.1686 16.485C45.4207 17.0855 45.7306 17.5553 46.4346 17.783C47.2865 18.0586 47.6597 18.9859 47.4022 19.7949C47.1698 20.5248 46.3292 20.9964 45.467 20.8805C44.7307 20.7816 44.1347 20.0533 44.1952 19.1822C44.2901 17.8159 43.4955 16.7837 42.8622 15.7476C41.5501 13.6013 39.863 11.7524 37.7809 10.3046C37.069 9.80951 36.3294 9.34925 35.5746 8.92225C35.007 8.60117 34.8094 8.73811 34.806 9.38883C34.7988 10.8105 34.8298 12.2331 34.7857 13.6534C34.7753 13.989 34.6067 14.3876 34.3789 14.6362C33.6111 15.4738 32.797 16.2708 31.9736 17.0549C31.5873 17.4228 31.6098 17.7309 31.8636 18.1733C32.3008 18.9355 32.8302 19.2958 33.778 19.2466C35.574 19.1534 37.3786 19.2368 39.179 19.2093C39.7345 19.2008 39.9373 19.3749 39.9155 19.9405C39.878 20.9105 39.9217 21.8835 39.8981 22.8544C39.8872 23.3015 40.0159 23.4917 40.497 23.4837C41.9658 23.4592 43.4355 23.4893 44.9038 23.4549C45.1042 23.4502 45.3936 23.2431 45.4791 23.0555C45.7852 22.3838 46.4389 22.7044 46.8969 22.4923C47.0313 22.7881 47.2588 23.0764 47.2835 23.3811C47.3766 24.5331 47.4658 25.6914 47.4444 26.8453C47.3709 30.8195 46.1047 34.4314 43.9065 37.7078C43.1091 38.8964 42.2206 40.057 41.2037 41.0576C39.5532 42.6818 37.6663 44.0228 35.5566 45.0239C33.0337 46.221 30.3929 46.8852 27.5943 47.0445C23.7288 47.2647 20.0968 46.4828 16.6721 44.7274C14.2085 43.4647 12.0775 41.736 10.3024 39.6282C8.73581 37.768 7.55946 35.6459 6.65848 33.3743C6.49215 32.9549 6.15415 32.5886 5.8434 32.2448C5.27292 31.6137 5.19613 30.66 5.71304 30.0558C6.33056 29.3339 7.24648 29.2033 7.98397 29.7319C8.58974 30.166 8.85445 31.0449 8.49438 31.7113C8.16685 32.3174 8.20959 32.8659 8.50438 33.4477C8.6426 33.7205 8.73608 34.0156 8.85986 34.2961C9.39443 35.5078 9.5267 35.5106 10.5139 34.6144C11.6669 33.5676 12.8884 32.5957 14.0294 31.5365C14.3191 31.2677 14.5598 30.7973 14.5762 30.4091C14.6388 28.919 14.6245 27.424 14.5891 25.9321C14.5754 25.3593 14.719 25.1351 15.3328 25.1583C16.5395 25.2039 17.7496 25.1539 18.9575 25.1803C19.4382 25.1908 19.6475 25.0594 19.6229 24.5439C19.5868 23.7874 19.5985 23.0275 19.6165 22.2697C19.6261 21.8691 19.4689 21.7233 19.0729 21.7339C18.3388 21.7534 17.6032 21.7194 16.8696 21.7462C16.4291 21.7623 16.2868 21.5931 16.3014 21.1663C16.3258 20.4563 16.2838 19.7439 16.3119 19.0342C16.3325 18.5165 16.1502 18.3233 15.6165 18.3291C13.4842 18.3519 11.3513 18.3529 9.21899 18.3276C8.73094 18.3218 8.4973 18.5013 8.33587 18.9425C7.4345 21.4061 6.9409 23.9337 7.04369 26.5673C7.05412 26.8344 7.04571 27.2734 6.90445 27.3423C6.51984 27.5298 6.06159 27.5808 5.62618 27.6329C5.56629 27.6401 5.40994 27.3502 5.40007 27.1915C5.18683 23.7597 5.78195 20.4676 7.19679 17.336C7.90516 15.7681 8.71016 14.2486 9.93896 12.9395ZM30.026 45.0855C30.3711 45.0125 30.7212 44.9575 31.0607 44.8639C34.008 44.0512 36.6989 42.7723 39.0113 40.7125C39.5991 40.1889 39.5001 39.9603 39.0181 39.5412C37.7701 38.4565 36.5286 37.3636 35.3082 36.248C33.93 34.988 34.342 34.7178 32.6931 36.459C32.4533 36.7121 32.0499 36.9213 31.7078 36.9452C30.7647 37.0113 29.8137 36.9792 28.8662 36.9645C28.2759 36.9554 28.0498 37.2099 28.1315 37.7958C28.2368 38.5513 28.1296 38.6675 27.3688 38.6692C25.4259 38.6737 23.4831 38.6704 21.5402 38.6699C19.6255 38.6695 19.6379 38.669 19.5999 36.7709C19.5933 36.4415 19.5305 36.0237 19.3254 35.8031C18.3581 34.7626 17.347 33.7608 16.3117 32.7876C16.1542 32.6395 15.6818 32.5841 15.5343 32.7048C13.9634 33.9907 12.4278 35.3199 10.8845 36.6396C10.5522 36.9238 10.565 37.1999 10.8319 37.5582C12.0724 39.2232 13.5252 40.6789 15.2189 41.8659C19.6575 44.9764 24.5778 45.9817 30.026 45.0855ZM24.2008 30.2782C25.2669 30.278 26.3336 30.3009 27.3987 30.2685C27.9668 30.2511 28.1506 30.4736 28.1321 31.0203C28.1016 31.9195 28.1234 32.8205 28.1238 33.7207C28.1243 35.1191 28.1234 35.1274 29.4577 35.3049C29.8541 35.3576 30.2698 35.4162 30.6564 35.3512C31.0562 35.284 31.5164 35.1631 31.8016 34.9028C32.7631 34.0256 33.6695 33.0864 34.57 32.1451C34.7474 31.9597 34.8929 31.6624 34.9018 31.4114C34.9387 30.3703 34.9089 29.3271 34.9222 28.2849C34.9275 27.8671 34.7714 27.6774 34.338 27.6917C33.7464 27.7111 33.1536 27.698 32.5614 27.6942C31.3812 27.6866 31.5204 27.8122 31.5167 26.6136C31.5115 24.9316 31.53 23.2493 31.5024 21.5678C31.4969 21.2336 31.3909 20.8666 31.2237 20.5767C30.8708 19.9648 30.4824 19.3647 30.0355 18.8197C29.8415 18.5831 29.4722 18.3724 29.1738 18.3599C27.944 18.3084 26.71 18.3634 25.4793 18.325C24.9224 18.3077 24.7804 18.5234 24.812 19.0317C24.8473 19.5981 24.8219 20.1683 24.8207 20.7369C24.8186 21.7133 24.7803 21.7517 23.838 21.7484C23.2694 21.7464 22.6986 21.7763 22.1329 21.7358C21.5551 21.6945 21.3932 21.9422 21.4055 22.4836C21.433 23.6911 21.4029 24.8999 21.4192 26.1079C21.4265 26.6494 21.2213 26.8666 20.6602 26.8523C19.4291 26.8209 18.1963 26.8579 16.9648 26.835C16.467 26.8258 16.2861 27.02 16.3032 27.5052C16.3274 28.1914 16.2704 28.8826 16.3297 29.5646C16.3575 29.8843 16.506 30.2513 16.7206 30.4867C17.5493 31.3957 18.4252 32.2618 19.2899 33.1376C19.3414 33.1898 19.4491 33.1865 19.6129 33.2317C19.6129 32.4626 19.642 31.7548 19.6037 31.0506C19.5724 30.474 19.7575 30.2479 20.3632 30.2671C21.5939 30.306 22.8267 30.2784 24.2008 30.2782ZM23.2037 13.351C23.464 13.3507 23.7272 13.3752 23.9841 13.3452C24.6454 13.2682 24.8779 13.5498 24.8311 14.2005C24.7854 14.8363 24.8364 15.4784 24.8144 16.1167C24.7989 16.5635 24.9588 16.7398 25.4248 16.7629C29.6284 16.9707 29.628 16.9769 32.5652 13.9665C32.6313 13.8987 32.7272 13.8434 32.7598 13.7624C32.9212 13.3611 33.1787 12.9578 33.1958 12.5466C33.2509 11.2236 33.1878 9.89596 33.2268 8.57175C33.2449 7.95737 33.0034 7.65354 32.4299 7.52436C31.6045 7.33845 30.7941 7.06293 29.9604 6.94167C28.7278 6.76239 27.4775 6.56601 26.2401 6.59623C24.8836 6.62935 23.5357 6.93659 22.179 7.07345C21.6017 7.13167 21.4009 7.38596 21.4087 7.93646C21.4262 9.19058 21.4136 10.4451 21.4144 11.6995C21.4154 13.3527 21.4159 13.3527 23.2037 13.351ZM43.8415 34.4152C45.2337 31.6886 45.8408 28.7909 45.7495 25.7365C45.7371 25.3241 45.5986 25.1347 45.1639 25.1384C43.5769 25.1516 41.9898 25.1493 40.4028 25.1393C40.0436 25.1371 39.881 25.2642 39.8939 25.6358C39.9105 26.109 39.8727 26.5848 39.9035 27.0565C39.9368 27.5664 39.7132 27.7202 39.2327 27.7025C38.4994 27.6755 37.764 27.7095 37.0302 27.69C36.6332 27.6795 36.481 27.8277 36.4892 28.2275C36.5077 29.1272 36.4355 30.0327 36.5123 30.9263C36.5922 31.8543 36.3329 32.5955 35.6238 33.1747C35.1015 33.6012 35.1586 33.9465 35.6525 34.3709C37.2644 35.7561 38.8554 37.1657 40.4443 38.5772C40.7364 38.8367 40.9635 38.8847 41.1934 38.5285C42.0584 37.1883 42.9247 35.8489 43.8415 34.4152ZM17.4891 8.77572C17.2942 8.86057 17.0873 8.92531 16.9062 9.03334C14.7553 10.3164 12.886 11.9423 11.2584 13.8326C10.6799 14.5044 10.2485 15.3049 9.7679 16.0582C9.49998 16.4781 9.52075 16.7625 10.1393 16.7584C11.9857 16.746 13.8323 16.7454 15.6786 16.76C16.1305 16.7636 16.3277 16.606 16.3143 16.1417C16.2939 15.4321 16.3256 14.721 16.3035 14.0115C16.2881 13.5189 16.4922 13.3316 16.9785 13.3477C17.6879 13.3712 18.3987 13.3458 19.1088 13.3569C19.4708 13.3625 19.7053 13.2658 19.7038 12.8485C19.6983 11.3808 19.7047 9.91308 19.6984 8.44541C19.6964 7.98946 19.4923 7.85056 19.0604 8.05888C18.5739 8.29346 18.075 8.502 17.4891 8.77572ZM23.1131 17.1242C23.1122 16.6036 23.1124 16.0829 23.11 15.5623C23.1081 15.1421 22.9569 14.9182 22.4743 14.928C21.2035 14.9539 19.9316 14.9459 18.6604 14.9284C18.2187 14.9224 18.0034 15.0638 18.0082 15.5351C18.0219 16.8839 18.0208 18.233 18.0076 19.5818C18.0034 20.0144 18.1913 20.1666 18.6072 20.1626C19.885 20.1502 21.1631 20.1513 22.4409 20.1608C22.9265 20.1645 23.1237 19.9369 23.1168 19.4665C23.106 18.7331 23.1136 17.9994 23.1131 17.1242ZM33.3829 20.9165C33.2907 21.0902 33.1214 21.2626 33.1185 21.4376C33.0969 22.764 33.1067 24.0909 33.1095 25.4177C33.1104 25.8636 33.338 26.0371 33.7832 26.0315C35.0624 26.0153 36.3421 26.012 37.6211 26.0328C38.0857 26.0404 38.2476 25.8656 38.2412 25.4089C38.2226 24.1061 38.2193 22.8026 38.2431 21.5C38.2515 21.0385 38.1002 20.8737 37.633 20.882C36.2592 20.9062 34.8849 20.8933 33.3829 20.9165ZM21.4139 36.0148C21.414 37.0887 21.414 37.0876 22.5078 37.0863C23.5737 37.085 24.64 37.0683 25.7053 37.0942C26.2079 37.1065 26.4398 36.9656 26.4276 36.4171C26.3987 35.1149 26.4017 33.8115 26.4243 32.5091C26.433 32.0055 26.2311 31.8474 25.75 31.8558C24.5423 31.8768 23.3335 31.8851 22.1263 31.8526C21.5513 31.837 21.3887 32.0663 21.404 32.608C21.4348 33.6967 21.4136 34.7869 21.4139 36.0148Z" fill="#6EC5E3"/>
<path d="M29.9654 45.0926C24.5779 45.982 19.6575 44.9767 15.219 41.8662C13.5252 40.6792 12.0725 39.2235 10.832 37.5585C10.565 37.2002 10.5522 36.9241 10.8846 36.6399C12.4279 35.3202 13.9634 33.991 15.5344 32.7051C15.6818 32.5843 16.1542 32.6398 16.3117 32.7878C17.347 33.7611 18.3582 34.7628 19.3255 35.8034C19.5305 36.024 19.5934 36.4418 19.6 36.7712C19.6379 38.6693 19.6255 38.6697 21.5402 38.6702C23.4831 38.6707 25.426 38.6739 27.3689 38.6695C28.1297 38.6677 28.2369 38.5515 28.1316 37.7961C28.0499 37.2101 28.276 36.9556 28.8663 36.9648C29.8138 36.9795 30.7647 37.0116 31.7078 36.9455C32.0499 36.9215 32.4534 36.7124 32.6931 36.4592C34.3421 34.7181 33.9301 34.9883 35.3083 36.2482C36.5286 37.3639 37.7702 38.4567 39.0181 39.5415C39.5002 39.9605 39.5991 40.1892 39.0113 40.7128C36.699 42.7726 34.008 44.0515 31.0607 44.8641C30.7213 44.9577 30.3712 45.0128 29.9654 45.0926Z" fill="#F9FAFA"/>
<path d="M24.1298 30.2783C22.8268 30.2785 21.594 30.3062 20.3633 30.2672C19.7576 30.248 19.5725 30.4741 19.6039 31.0508C19.6421 31.7549 19.613 32.4628 19.613 33.2319C19.4492 33.1866 19.3415 33.1899 19.29 33.1377C18.4253 32.262 17.5494 31.3959 16.7207 30.4869C16.5061 30.2515 16.3577 29.8844 16.3298 29.5647C16.2705 28.8827 16.3275 28.1916 16.3033 27.5054C16.2862 27.0202 16.4672 26.8259 16.965 26.8352C18.1964 26.858 19.4292 26.821 20.6603 26.8524C21.2214 26.8668 21.4267 26.6495 21.4193 26.1081C21.403 24.9001 21.4331 23.6913 21.4056 22.4837C21.3933 21.9423 21.5552 21.6947 22.133 21.736C22.6987 21.7764 23.2695 21.7465 23.8381 21.7485C24.7804 21.7518 24.8187 21.7134 24.8208 20.737C24.822 20.1684 24.8474 19.5982 24.8121 19.0318C24.7805 18.5235 24.9225 18.3078 25.4794 18.3252C26.7101 18.3635 27.9441 18.3085 29.1739 18.36C29.4723 18.3725 29.8416 18.5833 30.0356 18.8198C30.4825 19.3649 30.8709 19.9649 31.2239 20.5769C31.391 20.8667 31.497 21.2337 31.5025 21.5679C31.5301 23.2495 31.5116 24.9318 31.5168 26.6138C31.5205 27.8123 31.3813 27.6868 32.5615 27.6944C33.1538 27.6982 33.7465 27.7113 34.3381 27.6918C34.7715 27.6775 34.9276 27.8672 34.9223 28.285C34.909 29.3272 34.9388 30.3705 34.9019 31.4115C34.893 31.6626 34.7475 31.9598 34.5701 32.1452C33.6696 33.0865 32.7632 34.0257 31.8017 34.903C31.5165 35.1632 31.0563 35.2841 30.6565 35.3513C30.27 35.4163 29.8543 35.3577 29.4578 35.305C28.1235 35.1275 28.1244 35.1193 28.1239 33.7209C28.1235 32.8206 28.1017 31.9196 28.1322 31.0204C28.1507 30.4737 27.9669 30.2513 27.3989 30.2686C26.3338 30.301 25.267 30.2782 24.1298 30.2783Z" fill="#F8FAFA"/>
<path d="M23.1344 13.3512C21.4161 13.3528 21.4157 13.3528 21.4146 11.6996C21.4139 10.4453 21.4265 9.19071 21.4089 7.93659C21.4012 7.38609 21.602 7.13181 22.1792 7.07359C23.536 6.93673 24.8839 6.62948 26.2404 6.59636C27.4777 6.56614 28.728 6.76253 29.9606 6.94181C30.7943 7.06307 31.6047 7.33859 32.4302 7.5245C33.0037 7.65368 33.2451 7.95751 33.227 8.57189C33.188 9.8961 33.2512 11.2237 33.196 12.5468C33.1789 12.958 32.9214 13.3612 32.76 13.7625C32.7275 13.8435 32.6315 13.8988 32.5654 13.9666C29.6283 16.977 29.6286 16.9708 25.4251 16.763C24.9591 16.74 24.7992 16.5637 24.8146 16.1168C24.8367 15.4786 24.7856 14.8364 24.8313 14.2007C24.8781 13.5499 24.6456 13.2683 23.9844 13.3454C23.7275 13.3753 23.4643 13.3508 23.1344 13.3512Z" fill="#F9FAFA"/>
<path d="M43.8159 34.4621C42.9246 35.8488 42.0583 37.1881 41.1934 38.5283C40.9634 38.8845 40.7364 38.8366 40.4443 38.5771C38.8554 37.1655 37.2643 35.756 35.6525 34.3708C35.1585 33.9463 35.1015 33.6011 35.6237 33.1745C36.3328 32.5953 36.5921 31.8541 36.5123 30.9261C36.4354 30.0326 36.5076 29.1271 36.4891 28.2273C36.4809 27.8275 36.6331 27.6793 37.0301 27.6899C37.7639 27.7093 38.4993 27.6753 39.2326 27.7023C39.7131 27.72 39.9367 27.5663 39.9034 27.0563C39.8727 26.5846 39.9104 26.1088 39.8939 25.6357C39.8809 25.2641 40.0436 25.137 40.4027 25.1392C41.9897 25.1492 43.5769 25.1515 45.1638 25.1382C45.5985 25.1346 45.7371 25.3239 45.7494 25.7364C45.8408 28.7908 45.2337 31.6884 43.8159 34.4621Z" fill="#F9FAFA"/>
<path d="M17.5353 8.74884C18.075 8.50205 18.574 8.29351 19.0604 8.05892C19.4923 7.85061 19.6965 7.9895 19.6984 8.44545C19.7047 9.91312 19.6983 11.3808 19.7038 12.8485C19.7054 13.2659 19.4708 13.3626 19.1088 13.3569C18.3988 13.3459 17.6879 13.3712 16.9785 13.3478C16.4922 13.3317 16.2882 13.5189 16.3035 14.0115C16.3256 14.721 16.2939 15.4322 16.3144 16.1417C16.3277 16.606 16.1305 16.7636 15.6786 16.7601C13.8323 16.7454 11.9857 16.746 10.1393 16.7584C9.52078 16.7626 9.50001 16.4781 9.76793 16.0582C10.2485 15.305 10.68 14.5044 11.2584 13.8326C12.886 11.9423 14.7553 10.3165 16.9062 9.03338C17.0873 8.92536 17.2942 8.86062 17.5353 8.74884Z" fill="#F6F8FA"/>
<path d="M23.113 17.195C23.1134 17.9994 23.1058 18.7331 23.1166 19.4666C23.1235 19.9369 22.9263 20.1645 22.4407 20.1609C21.1629 20.1513 19.8848 20.1503 18.607 20.1626C18.1911 20.1667 18.0032 20.0145 18.0074 19.5818C18.0206 18.233 18.0217 16.884 18.008 15.5352C18.0032 15.0638 18.2185 14.9224 18.6603 14.9285C19.9314 14.9459 21.2033 14.954 22.4741 14.928C22.9567 14.9182 23.1079 15.1421 23.1098 15.5624C23.1122 16.083 23.112 16.6036 23.113 17.195Z" fill="#F4F7F9"/>
<path d="M33.447 20.9059C34.885 20.8935 36.2594 20.9064 37.6331 20.8821C38.1004 20.8739 38.2516 21.0387 38.2432 21.5001C38.2195 22.8028 38.2228 24.1063 38.2413 25.4091C38.2478 25.8658 38.0859 26.0406 37.6212 26.033C36.3422 26.0121 35.0625 26.0155 33.7833 26.0316C33.3382 26.0372 33.1106 25.8638 33.1096 25.4178C33.1068 24.0911 33.0971 22.7642 33.1187 21.4378C33.1215 21.2627 33.2908 21.0903 33.447 20.9059Z" fill="#F7F9FA"/>
<path d="M21.4136 35.9459C21.4134 34.7872 21.4346 33.697 21.4038 32.6082C21.3885 32.0665 21.551 31.8373 22.1261 31.8528C23.3332 31.8854 24.5421 31.8771 25.7498 31.856C26.2309 31.8477 26.4328 32.0057 26.424 32.5093C26.4014 33.8117 26.3985 35.1152 26.4274 36.4173C26.4395 36.9658 26.2077 37.1067 25.7051 37.0945C24.6398 37.0685 23.5734 37.0852 22.5075 37.0865C21.4138 37.0879 21.4138 37.089 21.4136 35.9459Z" fill="#F6F9FA"/>
</g>
<defs>
<clipPath id="clip0_293_475">
<rect width="52" height="52" fill="white"/>
</clipPath>
</defs>
</svg>
