<svg width="71" height="28" viewBox="0 0 71 28" fill="none" xmlns="http://www.w3.org/2000/svg">
<g clip-path="url(#clip0_591_6)">
<mask id="mask0_591_6" style="mask-type:luminance" maskUnits="userSpaceOnUse" x="0" y="0" width="71" height="28">
<path d="M70.7027 0.313477H0V27.687H70.7027V0.313477Z" fill="white"/>
</mask>
<g mask="url(#mask0_591_6)">
<path d="M70.7007 0.313477H66.7953C65.7119 0.313477 64.6991 0.849965 64.0909 1.74716L58.8677 9.45205C58.7287 9.65637 58.4271 9.65637 58.2877 9.45205L53.0649 1.74716C52.4576 0.849965 51.4439 0.313477 50.3605 0.313477H46.4551L55.7591 14.0385L46.5064 27.687H50.4118C51.4952 27.687 52.508 27.1505 53.1162 26.2533L58.2877 18.6249C58.4271 18.4205 58.7287 18.4205 58.8677 18.6249L64.0391 26.2533C64.6465 27.1505 65.6606 27.687 66.744 27.687H70.6494L61.3963 14.0385L70.7007 0.313477Z" fill="black"/>
<path d="M38.4199 3.11349V27.687H40.2865C41.8334 27.687 43.0868 26.4336 43.0868 24.8869V0.313477H41.2203C39.6734 0.313477 38.4199 1.56681 38.4199 3.11349Z" fill="black"/>
<path d="M34.9986 0.313477H33.3375C31.5087 0.313477 29.9241 1.57822 29.5188 3.36119L25.8028 19.6967L22.5504 4.44787C21.9487 1.62959 19.057 -0.270955 16.0979 0.546336C14.2131 1.06684 12.8158 2.65919 12.4082 4.57114L9.18887 19.6762L5.47976 3.36233C5.07335 1.57936 3.48878 0.313477 1.65991 0.313477H0L6.22526 27.6858H8.58383C10.7244 27.6858 12.5738 26.1894 13.0201 24.0959L16.9998 5.4204C17.0489 5.18866 17.2567 5.02087 17.493 5.02087C17.7293 5.02087 17.9371 5.18866 17.9862 5.4204L21.9693 24.0971C22.4157 26.1905 24.2651 27.6858 26.4056 27.6858H28.7722L34.9986 0.313477Z" fill="black"/>
</g>
</g>
<defs>
<clipPath id="clip0_591_6">
<rect width="71" height="28" fill="white"/>
</clipPath>
</defs>
</svg>
