<svg width="172" height="33" viewBox="0 0 172 33" fill="none" xmlns="http://www.w3.org/2000/svg">
<g clip-path="url(#clip0_47_1321)">
<path d="M59.4882 27.0004H63.0882L56.6082 9.98438H52.7682L46.2402 27.0004H49.7442L51.1602 23.1124H58.0722L59.4882 27.0004ZM54.6162 13.6564L56.9682 20.0884H52.2642L54.6162 13.6564Z" fill="white"/>
<path d="M75.8061 9.62305H72.6621V16.367C72.3261 15.743 71.3661 14.903 69.3261 14.903C65.9901 14.903 63.6621 17.615 63.6621 21.071C63.6621 24.647 66.0621 27.287 69.4221 27.287C71.0061 27.287 72.2061 26.567 72.7341 25.631C72.7341 26.183 72.8061 26.759 72.8541 26.999H75.9021C75.8541 26.519 75.8061 25.655 75.8061 24.863V9.62305ZM66.8781 21.071C66.8781 18.959 68.1741 17.759 69.8061 17.759C71.4381 17.759 72.7101 18.935 72.7101 21.047C72.7101 23.183 71.4381 24.431 69.8061 24.431C68.1261 24.431 66.8781 23.183 66.8781 21.071Z" fill="white"/>
<path d="M82.2213 26.9995V20.0875C82.2213 18.7915 83.0373 17.7595 84.4293 17.7595C85.8693 17.7595 86.5173 18.7195 86.5173 19.9915V26.9995H89.6853V20.0875C89.6853 18.8155 90.5013 17.7595 91.8693 17.7595C93.3333 17.7595 93.9573 18.7195 93.9573 19.9915V26.9995H97.0533V19.3435C97.0533 16.1755 94.9653 14.8555 92.7813 14.8555C91.2213 14.8555 89.9733 15.3835 89.0373 16.8235C88.4373 15.5515 87.1413 14.8555 85.5333 14.8555C84.2373 14.8555 82.7253 15.4795 82.0773 16.6315V15.1915H79.0293V26.9995H82.2213Z" fill="white"/>
<path d="M103.238 26.9999V15.1919H100.046V26.9999H103.238ZM99.6621 11.3279C99.6621 12.3839 100.55 13.2719 101.63 13.2719C102.734 13.2719 103.598 12.3839 103.598 11.3279C103.598 10.2239 102.734 9.33594 101.63 9.33594C100.55 9.33594 99.6621 10.2239 99.6621 11.3279Z" fill="white"/>
<path d="M109.608 20.2089C109.608 18.8409 110.424 17.7609 111.816 17.7609C113.352 17.7609 114 18.7929 114 20.1129V27.0009H117.192V19.5609C117.192 16.9689 115.848 14.8809 112.92 14.8809C111.648 14.8809 110.232 15.4329 109.512 16.6569V15.1929H106.416V27.0009H109.608V20.2089Z" fill="white"/>
<path d="M139.416 27.0004V9.98438H134.904L129.912 22.2724L124.8 9.98438H120.432V27.0004H123.6V15.1684L128.496 27.0004H131.256L136.152 15.0724V27.0004H139.416Z" fill="white"/>
<path d="M142.061 23.784C142.061 25.632 143.597 27.336 146.117 27.336C147.869 27.336 148.997 26.52 149.597 25.584C149.597 26.04 149.645 26.688 149.717 27H152.645C152.573 26.592 152.501 25.752 152.501 25.128V19.32C152.501 16.944 151.109 14.832 147.365 14.832C144.197 14.832 142.493 16.872 142.301 18.72L145.133 19.32C145.229 18.288 145.997 17.4 147.389 17.4C148.733 17.4 149.381 18.096 149.381 18.936C149.381 19.344 149.165 19.68 148.493 19.776L145.589 20.208C143.621 20.496 142.061 21.672 142.061 23.784ZM146.789 24.96C145.757 24.96 145.253 24.288 145.253 23.592C145.253 22.68 145.901 22.224 146.717 22.104L149.381 21.696V22.224C149.381 24.312 148.133 24.96 146.789 24.96Z" fill="white"/>
<path d="M162.677 15.1437C162.437 15.1197 162.197 15.0957 161.933 15.0957C160.925 15.0957 159.293 15.3837 158.573 16.9437V15.1917H155.477V26.9997H158.669V21.5997C158.669 19.0557 160.085 18.2637 161.717 18.2637C162.005 18.2637 162.317 18.2877 162.677 18.3597V15.1437Z" fill="white"/>
<path d="M169.087 11.6641H166.207V13.3201C166.207 14.3761 165.631 15.1921 164.383 15.1921H163.783V18.0241H165.919V23.5201C165.919 25.8001 167.359 27.1681 169.663 27.1681C170.599 27.1681 171.175 27.0001 171.463 26.8801V24.2401C171.295 24.2881 170.863 24.3361 170.479 24.3361C169.567 24.3361 169.087 24.0001 169.087 22.9681V18.0241H171.463V15.1921H169.087V11.6641Z" fill="white"/>
<path d="M13.8671 2.36781C14.2861 1.6479 14.8886 1.05008 15.6141 0.634448C16.3397 0.218813 17.1627 0 18.0005 0C18.8383 0 19.6613 0.218813 20.3868 0.634448C21.1124 1.05008 21.7149 1.6479 22.1338 2.36781L35.3606 25.1008C35.7795 25.8207 36 26.6374 36 27.4688C36 28.3001 35.7795 29.1168 35.3606 29.8368C34.9417 30.5567 34.3392 31.1546 33.6136 31.5703C32.8881 31.986 32.065 32.2048 31.2272 32.2048H4.77281C3.93499 32.2048 3.11193 31.986 2.38637 31.5703C1.66082 31.1546 1.05831 30.5567 0.63941 29.8368C0.220513 29.1168 -5.3209e-06 28.3001 0 27.4688C5.32129e-06 26.6374 0.220532 25.8207 0.639439 25.1008L13.8671 2.36781Z" fill="#3772FF"/>
<path d="M17.8809 15.1811C18.4324 15.4879 18.8387 15.9993 19.0106 16.6032C19.1824 17.207 19.1057 17.8538 18.7973 18.4016L11.3191 32.2052H5.53906L14.6324 16.0894C14.7856 15.8181 14.9911 15.5794 15.2373 15.387C15.4834 15.1945 15.7654 15.052 16.0671 14.9677C16.3687 14.8833 16.6841 14.8587 16.9954 14.8954C17.3066 14.932 17.6075 15.029 17.8809 15.1811Z" fill="#90DBFB"/>
<path d="M18.9375 32.2112L23.2236 24.6155C23.3767 24.3442 23.5822 24.1054 23.8283 23.9128C24.0744 23.7203 24.3564 23.5777 24.658 23.4933C24.9597 23.4088 25.2751 23.3842 25.5864 23.4207C25.8976 23.4573 26.1986 23.5543 26.472 23.7062C26.7455 23.8581 26.9861 24.062 27.1802 24.3063C27.3743 24.5505 27.5179 24.8302 27.603 25.1295C27.6881 25.4289 27.713 25.7419 27.6761 26.0507C27.6393 26.3596 27.5416 26.6582 27.3885 26.9295L24.4121 32.2055" fill="white"/>
</g>
<defs>
<clipPath id="clip0_47_1321">
<rect width="172" height="33" fill="white"/>
</clipPath>
</defs>
</svg>
