<svg width="172" height="33" viewBox="0 0 172 33" fill="none" xmlns="http://www.w3.org/2000/svg">
<path d="M59.4882 27H63.0882L56.6082 9.984H52.7682L46.2402 27H49.7442L51.1602 23.112H58.0722L59.4882 27ZM54.6162 13.656L56.9682 20.088H52.2642L54.6162 13.656Z" fill="#1D354F"/>
<path d="M75.8062 9.624H72.6622V16.368C72.3262 15.744 71.3662 14.904 69.3262 14.904C65.9902 14.904 63.6622 17.616 63.6622 21.072C63.6622 24.648 66.0622 27.288 69.4222 27.288C71.0062 27.288 72.2062 26.568 72.7342 25.632C72.7342 26.184 72.8062 26.76 72.8542 27H75.9022C75.8542 26.52 75.8062 25.656 75.8062 24.864V9.624ZM66.8782 21.072C66.8782 18.96 68.1742 17.76 69.8062 17.76C71.4382 17.76 72.7102 18.936 72.7102 21.048C72.7102 23.184 71.4382 24.432 69.8062 24.432C68.1262 24.432 66.8782 23.184 66.8782 21.072Z" fill="#1D354F"/>
<path d="M82.2209 27V20.088C82.2209 18.792 83.0369 17.76 84.4289 17.76C85.8689 17.76 86.5169 18.72 86.5169 19.992V27H89.6849V20.088C89.6849 18.816 90.5009 17.76 91.8689 17.76C93.3329 17.76 93.9569 18.72 93.9569 19.992V27H97.0529V19.344C97.0529 16.176 94.9649 14.856 92.7809 14.856C91.2209 14.856 89.9729 15.384 89.0369 16.824C88.4369 15.552 87.1409 14.856 85.5329 14.856C84.2369 14.856 82.7249 15.48 82.0769 16.632V15.192H79.0289V27H82.2209Z" fill="#1D354F"/>
<path d="M103.239 27V15.192H100.047V27H103.239ZM99.6627 11.328C99.6627 12.384 100.551 13.272 101.631 13.272C102.735 13.272 103.599 12.384 103.599 11.328C103.599 10.224 102.735 9.336 101.631 9.336C100.551 9.336 99.6627 10.224 99.6627 11.328Z" fill="#1D354F"/>
<path d="M109.608 20.208C109.608 18.84 110.424 17.76 111.816 17.76C113.352 17.76 114 18.792 114 20.112V27H117.192V19.56C117.192 16.968 115.848 14.88 112.92 14.88C111.648 14.88 110.232 15.432 109.512 16.656V15.192H106.416V27H109.608V20.208Z" fill="#1D354F"/>
<path d="M139.416 27V9.984H134.904L129.912 22.272L124.8 9.984H120.432V27H123.6V15.168L128.496 27H131.256L136.152 15.072V27H139.416Z" fill="#1D354F"/>
<path d="M142.06 23.784C142.06 25.632 143.596 27.336 146.116 27.336C147.868 27.336 148.996 26.52 149.596 25.584C149.596 26.04 149.644 26.688 149.716 27H152.644C152.572 26.592 152.5 25.752 152.5 25.128V19.32C152.5 16.944 151.108 14.832 147.364 14.832C144.196 14.832 142.492 16.872 142.3 18.72L145.132 19.32C145.228 18.288 145.996 17.4 147.388 17.4C148.732 17.4 149.38 18.096 149.38 18.936C149.38 19.344 149.164 19.68 148.492 19.776L145.588 20.208C143.62 20.496 142.06 21.672 142.06 23.784ZM146.788 24.96C145.756 24.96 145.252 24.288 145.252 23.592C145.252 22.68 145.9 22.224 146.716 22.104L149.38 21.696V22.224C149.38 24.312 148.132 24.96 146.788 24.96Z" fill="#1D354F"/>
<path d="M162.677 15.144C162.437 15.12 162.197 15.096 161.933 15.096C160.925 15.096 159.293 15.384 158.573 16.944V15.192H155.477V27H158.669V21.6C158.669 19.056 160.085 18.264 161.717 18.264C162.005 18.264 162.317 18.288 162.677 18.36V15.144Z" fill="#1D354F"/>
<path d="M169.087 11.664H166.207V13.32C166.207 14.376 165.631 15.192 164.383 15.192H163.783V18.024H165.919V23.52C165.919 25.8 167.359 27.168 169.663 27.168C170.599 27.168 171.175 27 171.463 26.88V24.24C171.295 24.288 170.863 24.336 170.479 24.336C169.567 24.336 169.087 24 169.087 22.968V18.024H171.463V15.192H169.087V11.664Z" fill="#1D354F"/>
<path d="M13.8671 2.36781C14.2861 1.6479 14.8886 1.05008 15.6141 0.634448C16.3397 0.218813 17.1627 0 18.0005 0C18.8383 0 19.6613 0.218813 20.3868 0.634448C21.1124 1.05008 21.7149 1.6479 22.1338 2.36781L35.3606 25.1008C35.7795 25.8207 36 26.6374 36 27.4688C36 28.3001 35.7795 29.1168 35.3606 29.8368C34.9417 30.5567 34.3392 31.1546 33.6136 31.5703C32.8881 31.986 32.065 32.2048 31.2272 32.2048H4.77281C3.93499 32.2048 3.11193 31.986 2.38637 31.5703C1.66082 31.1546 1.05831 30.5567 0.63941 29.8368C0.220513 29.1168 -5.321e-06 28.3001 0 27.4688C5.32119e-06 26.6374 0.220532 25.8207 0.639439 25.1008L13.8671 2.36781Z" fill="#3772FF"/>
<path d="M17.8809 15.1807C18.4324 15.4875 18.8387 15.9989 19.0106 16.6028C19.1824 17.2066 19.1057 17.8534 18.7973 18.4012L11.3191 32.2048L5.53906 32.2048L14.6324 16.089C14.7856 15.8177 14.9911 15.579 15.2373 15.3866C15.4834 15.1941 15.7654 15.0516 16.0671 14.9673C16.3687 14.8829 16.6841 14.8583 16.9954 14.895C17.3066 14.9316 17.6075 15.0286 17.8809 15.1807Z" fill="#90DBFB"/>
<path d="M18.9375 32.2105L23.2236 24.6148C23.3767 24.3435 23.5822 24.1047 23.8283 23.9121C24.0744 23.7196 24.3564 23.577 24.658 23.4926C24.9597 23.4081 25.2751 23.3835 25.5864 23.42C25.8976 23.4566 26.1986 23.5536 26.472 23.7055C26.7455 23.8574 26.9861 24.0613 27.1802 24.3056C27.3743 24.5498 27.5179 24.8295 27.603 25.1288C27.6881 25.4282 27.713 25.7412 27.6761 26.05C27.6393 26.3589 27.5416 26.6575 27.3885 26.9288L24.4121 32.2048" fill="white"/>
</svg>
