<svg width="48" height="48" viewBox="0 0 48 48" fill="none" xmlns="http://www.w3.org/2000/svg">
<path d="M43.8826 20.2501C43.6394 20.1151 43.4259 19.9328 43.2545 19.7137C43.0832 19.4947 42.9575 19.2436 42.8851 18.9751C42.8125 18.7058 42.7957 18.4246 42.8356 18.1486C42.8756 17.8726 42.9716 17.6077 43.1176 17.3701C43.5154 16.7078 43.7286 15.9511 43.7351 15.1786C43.7417 14.406 43.5413 13.6458 43.1548 12.9769C42.7683 12.3079 42.2097 11.7547 41.5372 11.3745C40.8646 10.9944 40.1025 10.8012 39.3301 10.8151C38.7705 10.8206 38.2314 10.605 37.8301 10.2151C37.6339 10.0186 37.4796 9.78434 37.3765 9.52653C37.2734 9.26872 37.2236 8.99269 37.2301 8.71509C37.2439 7.94265 37.0508 7.18057 36.6706 6.508C36.2905 5.83543 35.7372 5.27689 35.0683 4.89037C34.3994 4.50386 33.6391 4.30347 32.8666 4.31002C32.0941 4.31656 31.3374 4.5298 30.6751 4.92759C30.4317 5.07663 30.1601 5.17372 29.8774 5.21277C29.5946 5.25181 29.3069 5.23198 29.0322 5.1545C28.7575 5.07703 28.5018 4.94359 28.2812 4.76256C28.0605 4.58154 27.8797 4.35685 27.7501 4.10259C27.3708 3.44249 26.8238 2.89435 26.1645 2.51367C25.5052 2.13299 24.757 1.9333 23.9957 1.93482C23.2344 1.93635 22.487 2.13903 21.8293 2.52234C21.1715 2.90565 20.6267 3.45598 20.2501 4.11759C20.1151 4.36073 19.9327 4.5743 19.7137 4.74564C19.4947 4.91699 19.2435 5.04262 18.9751 5.11509C18.7058 5.18768 18.4246 5.20451 18.1486 5.16453C17.8726 5.12455 17.6077 5.02861 17.3701 4.88259C16.7078 4.4848 15.9511 4.27156 15.1785 4.26502C14.406 4.25847 13.6458 4.45886 12.9768 4.84537C12.3079 5.23189 11.7546 5.79043 11.3745 6.463C10.9944 7.13557 10.8012 7.89765 10.8151 8.67009C10.8216 8.94769 10.7718 9.22372 10.6687 9.48153C10.5655 9.73934 10.4112 9.97357 10.2151 10.1701C9.81371 10.56 9.27461 10.7756 8.71507 10.7701C7.94262 10.7562 7.18055 10.9494 6.50797 11.3295C5.8354 11.7097 5.27686 12.2629 4.89035 12.9319C4.50384 13.6008 4.30345 14.361 4.30999 15.1336C4.31654 15.9061 4.52978 16.6628 4.92757 17.3251C5.0766 17.5685 5.17369 17.8401 5.21274 18.1228C5.25179 18.4055 5.23195 18.6933 5.15448 18.9679C5.077 19.2426 4.94356 19.4983 4.76254 19.719C4.58152 19.9396 4.35682 20.1204 4.10257 20.2501C3.42552 20.6231 2.86097 21.1709 2.46778 21.8365C2.0746 22.502 1.86719 23.2608 1.86719 24.0338C1.86719 24.8068 2.0746 25.5657 2.46778 26.2312C2.86097 26.8967 3.42552 27.4446 4.10257 27.8176C4.3457 27.9525 4.55927 28.1349 4.73062 28.3539C4.90196 28.573 5.02759 28.8241 5.10007 29.0926C5.17266 29.3619 5.18948 29.6431 5.1495 29.9191C5.10952 30.1951 5.01358 30.46 4.86757 30.6976C4.46978 31.3599 4.25654 32.1166 4.24999 32.8891C4.24345 33.6617 4.44384 34.4219 4.83035 35.0908C5.21686 35.7597 5.7754 36.313 6.44797 36.6932C7.12055 37.0733 7.88262 37.2665 8.65507 37.2526C9.21461 37.247 9.75371 37.4627 10.1551 37.8526C10.3512 38.0491 10.5055 38.2834 10.6087 38.5412C10.7118 38.799 10.7616 39.075 10.7551 39.3526C10.7412 40.125 10.9344 40.8871 11.3145 41.5597C11.6946 42.2323 12.2479 42.7908 12.9168 43.1773C13.5858 43.5638 14.346 43.7642 15.1185 43.7577C15.8911 43.7511 16.6478 43.5379 17.3101 43.1401C17.5499 42.986 17.8189 42.8832 18.1003 42.8379C18.3817 42.7927 18.6694 42.806 18.9454 42.8771C19.2214 42.9482 19.4798 43.0756 19.7043 43.2512C19.9288 43.4268 20.1146 43.6468 20.2501 43.8976C20.6231 44.5746 21.1709 45.1392 21.8365 45.5324C22.502 45.9256 23.2608 46.133 24.0338 46.133C24.8068 46.133 25.5657 45.9256 26.2312 45.5324C26.8967 45.1392 27.4446 44.5746 27.8176 43.8976C27.9525 43.6545 28.1349 43.4409 28.3539 43.2695C28.5729 43.0982 28.8241 42.9726 29.0926 42.9001C29.3616 42.8257 29.6432 42.808 29.9195 42.848C30.1957 42.888 30.4607 42.9849 30.6976 43.1326C31.3599 43.5304 32.1166 43.7436 32.8891 43.7502C33.6616 43.7567 34.4219 43.5563 35.0908 43.1698C35.7597 42.7833 36.313 42.2248 36.6931 41.5522C37.0733 40.8796 37.2664 40.1175 37.2526 39.3451C37.2461 39.0675 37.2959 38.7915 37.399 38.5337C37.5021 38.2758 37.6564 38.0416 37.8526 37.8451C38.0504 37.6507 38.2848 37.4975 38.5423 37.3945C38.7998 37.2915 39.0753 37.2407 39.3526 37.2451C40.125 37.259 40.8871 37.0658 41.5597 36.6857C42.2322 36.3055 42.7908 35.7522 43.1773 35.0833C43.5638 34.4144 43.7642 33.6542 43.7576 32.8816C43.7511 32.1091 43.5379 31.3524 43.1401 30.6901C42.998 30.4536 42.9045 30.1911 42.8654 29.9179C42.8262 29.6448 42.842 29.3666 42.9118 29.0997C42.9817 28.8328 43.1043 28.5825 43.2722 28.3636C43.4402 28.1447 43.6503 27.9616 43.8901 27.8251C44.5671 27.4521 45.1317 26.9042 45.5249 26.2387C45.918 25.5732 46.1255 24.8143 46.1255 24.0413C46.1255 23.2683 45.918 22.5095 45.5249 21.844C45.1317 21.1784 44.5671 20.6306 43.8901 20.2576L43.8826 20.2501ZM35.5876 20.1226L24.3376 31.3726C23.0745 32.6184 21.3717 33.3169 19.5976 33.3169C17.8235 33.3169 16.1207 32.6184 14.8576 31.3726L10.9126 27.4501C10.6171 27.1546 10.3827 26.8038 10.2228 26.4178C10.0629 26.0317 9.98059 25.618 9.98059 25.2001C9.98059 24.7822 10.0629 24.3685 10.2228 23.9824C10.3827 23.5963 10.6171 23.2456 10.9126 22.9501C11.208 22.6546 11.5588 22.4202 11.9449 22.2603C12.3309 22.1004 12.7447 22.0181 13.1626 22.0181C13.5804 22.0181 13.9942 22.1004 14.3803 22.2603C14.7663 22.4202 15.1171 22.6546 15.4126 22.9501L19.1626 26.7001C19.2722 26.8091 19.4205 26.8703 19.5751 26.8703C19.7297 26.8703 19.878 26.8091 19.9876 26.7001L31.0951 15.6001C31.6918 15.0034 32.5012 14.6681 33.3451 14.6681C34.189 14.6681 34.9983 15.0034 35.5951 15.6001C36.1918 16.1968 36.5271 17.0062 36.5271 17.8501C36.5271 18.694 36.1918 19.5034 35.5951 20.1001L35.5876 20.1226Z" fill="url(#paint0_linear_851_8751)"/>
<defs>
<linearGradient id="paint0_linear_851_8751" x1="46.1254" y1="23.975" x2="1.86719" y2="23.975" gradientUnits="userSpaceOnUse">
<stop stop-color="#00A8BF"/>
<stop offset="0.9969" stop-color="#009769"/>
</linearGradient>
</defs>
</svg>
