<svg width="56" height="56" viewBox="0 0 56 56" fill="none" xmlns="http://www.w3.org/2000/svg">
<path d="M17.3075 39.8127C18.2556 38.8219 18.8918 37.5745 19.1371 36.2252C19.3824 34.876 19.226 33.4844 18.6873 32.2233C18.1486 30.9622 17.2513 29.8871 16.1069 29.1315C14.9625 28.3759 13.6213 27.9731 12.25 27.9731C10.8787 27.9731 9.53751 28.3759 8.3931 29.1315C7.24869 29.8871 6.35142 30.9622 5.81272 32.2233C5.27401 33.4844 5.1176 34.876 5.36289 36.2252C5.60819 37.5745 6.24439 38.8219 7.1925 39.8127C5.54653 40.7174 4.17335 42.047 3.21609 43.663C2.25883 45.2789 1.75254 47.122 1.75 49.0002V52.5002C1.75 52.9644 1.93437 53.4095 2.26256 53.7377C2.59075 54.0659 3.03587 54.2502 3.5 54.2502H21C21.4641 54.2502 21.9092 54.0659 22.2374 53.7377C22.5656 53.4095 22.75 52.9644 22.75 52.5002V49.0002C22.7475 47.122 22.2412 45.2789 21.2839 43.663C20.3267 42.047 18.9535 40.7174 17.3075 39.8127ZM8.75 35.0002C8.75 34.308 8.95527 33.6313 9.33986 33.0557C9.72444 32.4802 10.2711 32.0316 10.9106 31.7667C11.5501 31.5018 12.2539 31.4324 12.9328 31.5675C13.6117 31.7025 14.2354 32.0359 14.7249 32.5254C15.2144 33.0149 15.5477 33.6385 15.6827 34.3174C15.8178 34.9964 15.7485 35.7001 15.4836 36.3396C15.2187 36.9792 14.7701 37.5258 14.1945 37.9104C13.6189 38.295 12.9422 38.5002 12.25 38.5002C11.3217 38.5002 10.4315 38.1315 9.77513 37.4751C9.11875 36.8187 8.75 35.9285 8.75 35.0002ZM19.25 50.7502H5.25V49.0002C5.25 47.1437 5.9875 45.3632 7.30025 44.0505C8.61301 42.7377 10.3935 42.0002 12.25 42.0002C14.1065 42.0002 15.887 42.7377 17.1997 44.0505C18.5125 45.3632 19.25 47.1437 19.25 49.0002V50.7502Z" fill="#71C5AB"/>
<path d="M52.5 33.25H28C27.5359 33.25 27.0908 33.4344 26.7626 33.7626C26.4344 34.0908 26.25 34.5359 26.25 35V52.5C26.25 52.9641 26.4344 53.4093 26.7626 53.7374C27.0908 54.0656 27.5359 54.25 28 54.25H52.5C52.9641 54.25 53.4093 54.0656 53.7374 53.7374C54.0656 53.4093 54.25 52.9641 54.25 52.5V35C54.25 34.5359 54.0656 34.0908 53.7374 33.7626C53.4093 33.4344 52.9641 33.25 52.5 33.25ZM50.75 50.75H29.75V36.75H50.75V50.75Z" fill="#C9E5DD"/>
<path d="M38.5 39.375H48.125V42.875H38.5V39.375Z" fill="#C9E5DD"/>
<path d="M32.375 39.375H36.75V42.875H32.375V39.375Z" fill="#C9E5DD"/>
<path d="M32.375 44.625H48.125V48.125H32.375V44.625Z" fill="#C9E5DD"/>
<path d="M48.8075 13.5627C49.7556 12.5719 50.3918 11.3245 50.6371 9.97525C50.8824 8.62601 50.726 7.23445 50.1873 5.97334C49.6486 4.71223 48.7513 3.63714 47.6069 2.88154C46.4625 2.12595 45.1213 1.72314 43.75 1.72314C42.3787 1.72314 41.0375 2.12595 39.8931 2.88154C38.7487 3.63714 37.8514 4.71223 37.3127 5.97334C36.774 7.23445 36.6176 8.62601 36.8629 9.97525C37.1082 11.3245 37.7444 12.5719 38.6925 13.5627C37.0465 14.4674 35.6733 15.797 34.7161 17.413C33.7588 19.0289 33.2525 20.872 33.25 22.7502V26.2502C33.25 26.7144 33.4344 27.1595 33.7626 27.4877C34.0908 27.8159 34.5359 28.0002 35 28.0002H52.5C52.9641 28.0002 53.4093 27.8159 53.7374 27.4877C54.0656 27.1595 54.25 26.7144 54.25 26.2502V22.7502C54.2475 20.872 53.7412 19.0289 52.7839 17.413C51.8267 15.797 50.4535 14.4674 48.8075 13.5627ZM40.25 8.75024C40.25 8.05801 40.4553 7.38132 40.8399 6.80574C41.2244 6.23017 41.7711 5.78157 42.4106 5.51666C43.0501 5.25176 43.7539 5.18244 44.4328 5.31749C45.1117 5.45254 45.7354 5.78588 46.2249 6.27537C46.7144 6.76485 47.0477 7.38849 47.1827 8.06742C47.3178 8.74636 47.2485 9.45009 46.9836 10.0896C46.7187 10.7292 46.2701 11.2758 45.6945 11.6604C45.1189 12.045 44.4422 12.2502 43.75 12.2502C42.8217 12.2502 41.9315 11.8815 41.2751 11.2251C40.6187 10.5687 40.25 9.6785 40.25 8.75024ZM50.75 24.5002H36.75V22.7502C36.75 20.8937 37.4875 19.1132 38.8003 17.8005C40.113 16.4877 41.8935 15.7502 43.75 15.7502C45.6065 15.7502 47.387 16.4877 48.6997 17.8005C50.0125 19.1132 50.75 20.8937 50.75 22.7502V24.5002Z" fill="#71C5AB"/>
<path d="M3.5 22.75H28C28.4641 22.75 28.9093 22.5656 29.2374 22.2374C29.5656 21.9092 29.75 21.4641 29.75 21V3.5C29.75 3.03587 29.5656 2.59075 29.2374 2.26256C28.9093 1.93437 28.4641 1.75 28 1.75H3.5C3.03587 1.75 2.59075 1.93437 2.26256 2.26256C1.93437 2.59075 1.75 3.03587 1.75 3.5V21C1.75 21.4641 1.93437 21.9092 2.26256 22.2374C2.59075 22.5656 3.03587 22.75 3.5 22.75ZM5.25 5.25H26.25V19.25H5.25V5.25Z" fill="#C9E5DD"/>
<path d="M7.875 7.875H17.5V11.375H7.875V7.875Z" fill="#C9E5DD"/>
<path d="M19.25 7.875H23.625V11.375H19.25V7.875Z" fill="#C9E5DD"/>
<path d="M7.875 13.125H23.625V16.625H7.875V13.125Z" fill="#C9E5DD"/>
</svg>
