<svg width="56" height="56" viewBox="0 0 56 56" fill="none" xmlns="http://www.w3.org/2000/svg">
<g clip-path="url(#clip0_1026_1970)">
<path d="M17.543 0.273472C11.7462 1.10472 6.69303 4.2766 3.40084 9.18753C1.92428 11.386 0.939903 13.7157 0.371153 16.3735C0.0211534 17.9703 -0.110097 21.4266 0.108653 23.1438C1.13678 31.325 7.17428 38.2594 15.1149 40.3485C17.1821 40.8953 18.5602 41.0485 20.9993 40.9828C22.5962 40.95 23.4274 40.8735 24.3352 40.6985C30.5258 39.4516 35.6555 35.6235 38.5868 30.0782C40.7852 25.9219 41.4524 20.9563 40.468 16.2094C39.6149 12.1407 37.2415 8.05003 34.1243 5.28284C31.368 2.83285 27.8571 1.10472 24.2696 0.426594C22.6399 0.120346 19.1837 0.0437813 17.543 0.273472ZM21.7102 4.81253C23.9087 5.02035 25.6696 5.51254 27.3977 6.36566C31.8712 8.60785 34.879 12.5235 35.9508 17.5C36.2352 18.8125 36.2352 22.3016 35.9508 23.625C35.5024 25.6922 34.7587 27.5078 33.654 29.1813C31.2805 32.7688 27.879 35.0875 23.6243 36.0391C22.3337 36.3235 19.4571 36.3782 17.9915 36.1485C11.3196 35.1094 6.15709 30.0344 4.84459 23.2422C4.59303 21.8969 4.59303 19.2282 4.84459 17.8828C5.80709 12.8953 8.85865 8.7391 13.179 6.54066C15.1149 5.55628 16.9415 5.00941 18.9212 4.82347C20.2774 4.69222 20.3868 4.69222 21.7102 4.81253Z" fill="url(#paint0_linear_1026_1970)"/>
<path d="M12.7414 12.2391C12.4242 12.3703 11.4945 13.3875 10.9476 14.2078C10.3351 15.1047 9.82105 16.2312 9.44917 17.4563C9.05542 18.7688 8.95698 21.3609 9.24136 22.7609C9.64605 24.7625 10.5976 26.6875 11.8992 28.1094C12.5664 28.8422 12.621 28.875 13.0804 28.875C13.7367 28.875 14.1085 28.525 14.1085 27.9125C14.1085 27.5406 14.0101 27.3656 13.4632 26.7094C12.5664 25.6375 11.9976 24.6312 11.582 23.4062C11.2757 22.5094 11.221 22.1813 11.1882 20.9453C11.0898 18.2984 11.8117 16.2859 13.5507 14.2953C14.021 13.7594 14.1085 13.5844 14.1085 13.2344C14.1085 12.5125 13.3757 11.9766 12.7414 12.2391Z" fill="#C9E5DD"/>
<path d="M37.625 34.7923C37.0125 35.5798 35.5906 37.0017 34.6172 37.822L34.0703 38.2814L36.1594 40.3814C38.2594 42.4923 38.2594 42.4923 38.3031 43.0392C38.3359 43.3345 38.4891 43.8814 38.6531 44.2533C38.9156 44.8439 39.4734 45.4345 44.1109 50.072C50.1266 56.0767 49.8094 55.8361 51.7344 55.8361C52.7516 55.8361 52.9484 55.8033 53.5172 55.5408C54.3922 55.1251 55.2453 54.283 55.6281 53.4517C55.9125 52.8392 55.9453 52.6642 55.9453 51.6251C55.9453 50.5533 55.9234 50.422 55.5844 49.7111C55.2453 49.0001 54.8953 48.6173 50.1703 43.9142C44.6469 38.4017 44.6687 38.4236 43.1375 38.172L42.3828 38.0408L40.3594 36.0283C39.2438 34.9236 38.3141 34.0158 38.2812 34.0267C38.2484 34.0267 37.9531 34.3658 37.625 34.7923Z" fill="url(#paint1_linear_1026_1970)"/>
</g>
<defs>
<linearGradient id="paint0_linear_1026_1970" x1="40.9113" y1="20.623" x2="0.00170776" y2="20.623" gradientUnits="userSpaceOnUse">
<stop stop-color="#00A8BF"/>
<stop offset="0.9969" stop-color="#009769"/>
</linearGradient>
<linearGradient id="paint1_linear_1026_1970" x1="55.9453" y1="44.9611" x2="34.0703" y2="44.9611" gradientUnits="userSpaceOnUse">
<stop stop-color="#00A8BF"/>
<stop offset="0.9969" stop-color="#009769"/>
</linearGradient>
<clipPath id="clip0_1026_1970">
<rect width="56" height="56" fill="white"/>
</clipPath>
</defs>
</svg>
