<svg width="56" height="56" viewBox="0 0 56 56" fill="none" xmlns="http://www.w3.org/2000/svg">
<path d="M40.7227 22.1716H15.2759V20.0528H40.7227V15.8928C40.7227 15.5896 40.6023 15.299 40.388 15.0846C40.1737 14.8703 39.883 14.7499 39.5799 14.7499H16.4187C16.1156 14.7499 15.8249 14.8703 15.6106 15.0846C15.3963 15.299 15.2759 15.5896 15.2759 15.8928L15.2461 39.0516C15.2455 39.2019 15.2747 39.3507 15.3319 39.4897C15.3891 39.6286 15.4733 39.7548 15.5795 39.8611C15.6858 39.9673 15.812 40.0515 15.9509 40.1087C16.0899 40.1659 16.2387 40.1951 16.389 40.1945H37.4473C37.5866 40.1944 37.7245 40.2219 37.8532 40.2751C37.9819 40.3284 38.0988 40.4065 38.1973 40.505C38.2958 40.6035 38.374 40.7204 38.4273 40.8491C38.4806 40.9778 38.508 41.1157 38.508 41.255C38.508 41.3943 38.4806 41.5323 38.4273 41.6609C38.374 41.7896 38.2958 41.9066 38.1973 42.005C38.0988 42.1035 37.9819 42.1816 37.8532 42.2349C37.7245 42.2882 37.5866 42.3156 37.4473 42.3156H15.413H15.4084C14.8026 42.315 14.2218 42.0739 13.7937 41.6453C13.3655 41.2167 13.125 40.6357 13.125 40.0299L13.1547 14.9122C13.1547 14.306 13.3955 13.7246 13.8242 13.2959C14.2528 12.8673 14.8342 12.6265 15.4404 12.6265H40.5559C41.1621 12.6265 41.7434 12.8673 42.1721 13.2959C42.6008 13.7246 42.8416 14.306 42.8416 14.9122V36.8893C42.8289 37.1618 42.7118 37.4189 42.5145 37.6072C42.3172 37.7956 42.0549 37.9007 41.7821 37.9007C41.5094 37.9007 41.2471 37.7956 41.0498 37.6072C40.8525 37.4189 40.7354 37.1618 40.7227 36.8893V22.1716ZM18.4576 18.7453C18.3143 18.752 18.1712 18.7295 18.0368 18.6793C17.9025 18.629 17.7798 18.5521 17.676 18.453C17.5723 18.354 17.4897 18.235 17.4333 18.1031C17.3769 17.9712 17.3478 17.8293 17.3478 17.6859C17.3478 17.5425 17.3769 17.4005 17.4333 17.2687C17.4897 17.1368 17.5723 17.0178 17.676 16.9188C17.7798 16.8197 17.9025 16.7428 18.0368 16.6925C18.1712 16.6423 18.3143 16.6198 18.4576 16.6265C18.73 16.6391 18.9872 16.7563 19.1755 16.9536C19.3638 17.1509 19.4689 17.4131 19.4689 17.6859C19.4689 17.9587 19.3638 18.2209 19.1755 18.4182C18.9872 18.6155 18.73 18.7327 18.4576 18.7453ZM24.8187 18.7453C24.6754 18.752 24.5323 18.7295 24.398 18.6793C24.2637 18.629 24.1409 18.5521 24.0372 18.453C23.9334 18.354 23.8508 18.235 23.7944 18.1031C23.738 17.9712 23.7089 17.8293 23.7089 17.6859C23.7089 17.5425 23.738 17.4005 23.7944 17.2687C23.8508 17.1368 23.9334 17.0178 24.0372 16.9188C24.1409 16.8197 24.2637 16.7428 24.398 16.6925C24.5323 16.6423 24.6754 16.6198 24.8187 16.6265C25.0912 16.6391 25.3483 16.7563 25.5366 16.9536C25.725 17.1509 25.8301 17.4131 25.8301 17.6859C25.8301 17.9587 25.725 18.2209 25.5366 18.4182C25.3483 18.6155 25.0912 18.7327 24.8187 18.7453ZM21.637 18.7453C21.4937 18.752 21.3506 18.7295 21.2163 18.6793C21.0819 18.629 20.9592 18.5521 20.8554 18.453C20.7517 18.354 20.6691 18.235 20.6127 18.1031C20.5563 17.9712 20.5272 17.8293 20.5272 17.6859C20.5272 17.5425 20.5563 17.4005 20.6127 17.2687C20.6691 17.1368 20.7517 17.0178 20.8554 16.9188C20.9592 16.8197 21.0819 16.7428 21.2163 16.6925C21.3506 16.6423 21.4937 16.6198 21.637 16.6265C21.9095 16.6391 22.1666 16.7563 22.3549 16.9536C22.5433 17.1509 22.6483 17.4131 22.6483 17.6859C22.6483 17.9587 22.5433 18.2209 22.3549 18.4182C22.1666 18.6155 21.9095 18.7327 21.637 18.7453ZM22.7273 26.5625C22.9513 26.3408 23.5433 26.3408 23.7673 26.5625C23.9913 26.7842 23.9913 27.4836 23.7673 27.7236L20.309 31.0859L23.6804 34.279C23.9044 34.5007 23.9341 35.1339 23.6804 35.383C23.3741 35.687 22.7479 35.639 22.5376 35.4333L18.5993 31.5019C18.4922 31.394 18.4322 31.2482 18.4322 31.0962C18.4322 30.9442 18.4922 30.7984 18.5993 30.6905L22.7273 26.5625ZM33.461 26.5625L37.589 30.6905C37.6968 30.7985 37.7573 30.9448 37.7573 31.0973C37.7573 31.2499 37.6968 31.3962 37.589 31.5042L33.6484 35.4333C33.4404 35.639 32.8484 35.7693 32.5056 35.4333C32.1833 35.1133 32.2839 34.455 32.5056 34.2333L35.893 31.0859L32.3959 27.6893C32.1719 27.4493 32.0987 26.8573 32.3959 26.5625C32.6861 26.2768 33.237 26.3408 33.461 26.5625ZM29.221 25.7396C29.3353 25.4425 29.8907 25.255 30.245 25.3876C30.5833 25.5133 30.7821 25.9819 30.6884 26.279L26.9444 36.5899C26.8301 36.887 26.2976 37.0036 25.9981 36.8939C25.6804 36.7819 25.3353 36.3453 25.4496 36.0482L29.221 25.7396Z" fill="#71C5AB"/>
<rect x="18" y="24" width="20.5" height="14" fill="#F4F7F7"/>
<rect x="16.5" y="16.5" width="20.5" height="3" fill="#F4F7F7"/>
<path d="M23.3864 35.1002L24.1626 34.3294C22.3096 32.4764 21.3421 31.5363 20.8064 30.9896L24.1626 27.6498C24.2136 27.5989 24.254 27.5384 24.2816 27.4718C24.3092 27.4052 24.3234 27.3338 24.3234 27.2617C24.3234 27.1897 24.3092 27.1183 24.2816 27.0517C24.254 26.9851 24.2136 26.9246 24.1626 26.8736C24.1116 26.8227 24.0511 26.7823 23.9845 26.7547C23.918 26.7271 23.8466 26.7129 23.7745 26.7129C23.7024 26.7129 23.6311 26.7271 23.5645 26.7547C23.4979 26.7823 23.4374 26.8227 23.3864 26.8736L19.6585 30.6015C19.5586 30.7063 19.502 30.8449 19.5 30.9896C19.5003 31.062 19.5149 31.1335 19.5431 31.2001C19.5712 31.2667 19.6123 31.3271 19.664 31.3777L23.3864 35.1002Z" fill="#A7A7A7"/>
<path d="M36.8322 30.6014C36.7775 30.5522 33.1043 26.8735 33.1043 26.8735L32.3336 27.6497C34.1811 29.4973 35.1486 30.4702 35.6843 30.9786L32.3336 34.3293C32.2568 34.4055 32.2044 34.5026 32.1828 34.6086C32.1613 34.7145 32.1717 34.8245 32.2126 34.9245C32.2536 35.0246 32.3233 35.1102 32.4129 35.1707C32.5025 35.2311 32.6081 35.2636 32.7162 35.264C32.7885 35.2637 32.8601 35.2491 32.9267 35.2209C32.9933 35.1928 33.0537 35.1517 33.1043 35.1001L36.8322 31.3776C36.8829 31.3265 36.9229 31.266 36.9501 31.1994C36.9773 31.1328 36.9911 31.0615 36.9907 30.9895C36.9911 30.9176 36.9773 30.8463 36.9501 30.7797C36.9229 30.7131 36.8829 30.6525 36.8322 30.6014Z" fill="#A7A7A7"/>
<path d="M26.7532 37.4998C26.8781 37.5034 27.0004 37.4642 27.0999 37.3886C27.1993 37.313 27.2699 37.2056 27.2998 37.0843L30.2679 25.1573C30.2965 25.0189 30.2704 24.8748 30.1951 24.7552C30.1198 24.6357 30.0011 24.5499 29.8639 24.516C29.7267 24.4821 29.5817 24.5026 29.4594 24.5732C29.337 24.6438 29.2467 24.7591 29.2075 24.8949L26.223 36.822C26.1877 36.9603 26.208 37.107 26.2795 37.2306C26.351 37.3542 26.4681 37.4449 26.6056 37.4834C26.6538 37.4955 26.7035 37.501 26.7532 37.4998Z" fill="#A7A7A7"/>
<circle cx="19" cy="17.5" r="1" fill="#A7A7A7"/>
<circle cx="22" cy="17.5" r="1" fill="#A7A7A7"/>
<circle cx="25" cy="17.5" r="1" fill="#A7A7A7"/>
</svg>
