<svg width="161" height="185" viewBox="0 0 161 185" fill="none" xmlns="http://www.w3.org/2000/svg">
<path d="M92.3188 6.49889C93.8152 6.49889 95.0282 5.28583 95.0282 3.78946C95.0282 2.2931 93.8152 1.08008 92.3188 1.08008C90.8224 1.08008 89.6094 2.2931 89.6094 3.78946C89.6094 5.28583 90.8224 6.49889 92.3188 6.49889Z" fill="#DEDEDE"/>
<path d="M110.593 22.0643C109.534 23.1227 107.827 23.1227 106.768 22.0643C105.71 21.0059 105.71 19.2984 106.768 18.2401C107.827 17.1817 109.534 17.1817 110.593 18.2401C111.651 19.2984 111.651 21.02 110.593 22.0643Z" fill="#DEDEDE"/>
<path d="M125.044 39.2235C126.541 39.2235 127.754 38.0105 127.754 36.5141C127.754 35.0177 126.541 33.8047 125.044 33.8047C123.548 33.8047 122.335 35.0177 122.335 36.5141C122.335 38.0105 123.548 39.2235 125.044 39.2235Z" fill="#DEDEDE"/>
<path d="M143.319 54.7889C142.261 55.8473 140.553 55.8473 139.495 54.7889C138.437 53.7305 138.437 52.023 139.495 50.9647C140.553 49.9063 142.261 49.9063 143.319 50.9647C144.378 52.023 144.378 53.7446 143.319 54.7889Z" fill="#DEDEDE"/>
<path d="M159.687 71.158C158.629 72.2164 156.921 72.2164 155.863 71.158C154.805 70.0997 154.805 68.3922 155.863 67.3338C156.921 66.2754 158.629 66.2754 159.687 67.3338C160.746 68.3922 160.746 70.0997 159.687 71.158Z" fill="#DEDEDE"/>
<path d="M59.8071 6.28702C61.3035 6.28702 62.5165 5.07395 62.5165 3.57757C62.5165 2.08119 61.3035 0.868164 59.8071 0.868164C58.3107 0.868164 57.0977 2.08119 57.0977 3.57757C57.0977 5.07395 58.3107 6.28702 59.8071 6.28702Z" fill="#DEDEDE"/>
<path d="M78.0819 21.8524C77.0235 22.9108 75.316 22.9108 74.2576 21.8524C73.1993 20.794 73.1993 19.0865 74.2576 18.0282C75.316 16.9698 77.0235 16.9698 78.0819 18.0282C79.1403 19.0865 79.1403 20.794 78.0819 21.8524Z" fill="#DEDEDE"/>
<path d="M92.5327 39.0126C94.0291 39.0126 95.2421 37.7995 95.2421 36.3032C95.2421 34.8068 94.0291 33.5938 92.5327 33.5938C91.0363 33.5938 89.8232 34.8068 89.8232 36.3032C89.8232 37.7995 91.0363 39.0126 92.5327 39.0126Z" fill="#DEDEDE"/>
<path d="M110.821 54.577C109.763 55.6354 108.055 55.6354 106.997 54.577C105.939 53.5186 105.939 51.8111 106.997 50.7528C108.055 49.6944 109.763 49.6944 110.821 50.7528C111.88 51.8111 111.865 53.5186 110.821 54.577Z" fill="#DEDEDE"/>
<path d="M127.177 70.9472C126.118 72.0056 124.411 72.0056 123.352 70.9472C122.294 69.8888 122.294 68.1813 123.352 67.1229C124.411 66.0645 126.118 66.0645 127.177 67.1229C128.235 68.1813 128.235 69.8888 127.177 70.9472Z" fill="#DEDEDE"/>
<path d="M141.626 88.1064C143.123 88.1064 144.336 86.8933 144.336 85.397C144.336 83.9006 143.123 82.6875 141.626 82.6875C140.13 82.6875 138.917 83.9006 138.917 85.397C138.917 86.8933 140.13 88.1064 141.626 88.1064Z" fill="#DEDEDE"/>
<path d="M29.2137 5.28503C28.1554 6.3434 26.4478 6.3434 25.3895 5.28503C24.3311 4.22667 24.3311 2.51914 25.3895 1.46077C26.4478 0.4024 28.1554 0.4024 29.2137 1.46077C30.2721 2.51914 30.2721 4.22667 29.2137 5.28503Z" fill="#DEDEDE"/>
<path d="M45.5829 21.6405C44.5245 22.6989 42.817 22.6989 41.7586 21.6405C40.7002 20.5821 40.7002 18.8746 41.7586 17.8162C42.817 16.7579 44.5245 16.7579 45.5829 17.8162C46.6271 18.8746 46.6271 20.5821 45.5829 21.6405Z" fill="#DEDEDE"/>
<path d="M61.9383 38.0106C60.8799 39.0689 59.1725 39.0689 58.1141 38.0106C57.0557 36.9522 57.0557 35.2447 58.1141 34.1864C59.1725 33.128 60.8799 33.128 61.9383 34.1864C62.9967 35.2447 62.9967 36.9522 61.9383 38.0106Z" fill="#DEDEDE"/>
<path d="M78.3084 54.3651C77.2501 55.4235 75.5426 55.4235 74.4842 54.3651C73.4258 53.3067 73.4258 51.5992 74.4842 50.5408C75.5426 49.4825 77.2501 49.4825 78.3084 50.5408C79.3527 51.5992 79.3527 53.3067 78.3084 54.3651Z" fill="#DEDEDE"/>
<path d="M94.6639 70.7342C93.6055 71.7926 91.898 71.7926 90.8397 70.7342C89.7813 69.6758 89.7813 67.9684 90.8397 66.91C91.898 65.8516 93.6055 65.8516 94.6639 66.91C95.7222 67.9684 95.7222 69.6758 94.6639 70.7342Z" fill="#DEDEDE"/>
<path d="M111.032 87.0907C109.974 88.1491 108.266 88.1491 107.208 87.0907C106.149 86.0323 106.149 84.3248 107.208 83.2664C108.266 82.2081 109.974 82.2081 111.032 83.2664C112.076 84.3248 112.076 86.0323 111.032 87.0907Z" fill="#DEDEDE"/>
<path d="M127.389 103.46C126.33 104.518 124.623 104.518 123.564 103.46C122.506 102.401 122.506 100.694 123.564 99.6356C124.623 98.5772 126.33 98.5772 127.389 99.6356C128.447 100.694 128.447 102.401 127.389 103.46Z" fill="#DEDEDE"/>
<path d="M11.1508 22.2333C12.6472 22.2333 13.8603 21.0203 13.8603 19.5239C13.8603 18.0275 12.6472 16.8145 11.1508 16.8145C9.65444 16.8145 8.44141 18.0275 8.44141 19.5239C8.44141 21.0203 9.65444 22.2333 11.1508 22.2333Z" fill="#DEDEDE"/>
<path d="M29.4247 37.7987C28.3663 38.857 26.6588 38.857 25.6004 37.7987C24.542 36.7403 24.542 35.0328 25.6004 33.9744C26.6588 32.9161 28.3663 32.9161 29.4247 33.9744C30.4831 35.0187 30.4831 36.7403 29.4247 37.7987Z" fill="#DEDEDE"/>
<path d="M43.8754 54.9589C45.3718 54.9589 46.5848 53.7459 46.5848 52.2495C46.5848 50.7531 45.3718 49.54 43.8754 49.54C42.379 49.54 41.166 50.7531 41.166 52.2495C41.166 53.7459 42.379 54.9589 43.8754 54.9589Z" fill="#DEDEDE"/>
<path d="M62.1493 70.5233C61.0909 71.5816 59.3834 71.5816 58.325 70.5233C57.2667 69.4649 57.2667 67.7574 58.325 66.699C59.3834 65.6407 61.0909 65.6407 62.1493 66.699C63.2077 67.7433 63.2077 69.4649 62.1493 70.5233Z" fill="#DEDEDE"/>
<path d="M76.6011 87.6825C78.0974 87.6825 79.3105 86.4695 79.3105 84.9731C79.3105 83.4767 78.0974 82.2637 76.6011 82.2637C75.1047 82.2637 73.8916 83.4767 73.8916 84.9731C73.8916 86.4695 75.1047 87.6825 76.6011 87.6825Z" fill="#DEDEDE"/>
<path d="M92.9702 104.038C94.4666 104.038 95.6796 102.825 95.6796 101.329C95.6796 99.8322 94.4666 98.6191 92.9702 98.6191C91.4738 98.6191 90.2607 99.8322 90.2607 101.329C90.2607 102.825 91.4738 104.038 92.9702 104.038Z" fill="#DEDEDE"/>
<path d="M111.244 119.604C110.186 120.663 108.478 120.663 107.42 119.604C106.361 118.546 106.361 116.838 107.42 115.78C108.478 114.722 110.186 114.722 111.244 115.78C112.288 116.838 112.288 118.546 111.244 119.604Z" fill="#DEDEDE"/>
<path d="M11.3618 54.746C12.8581 54.746 14.0712 53.5329 14.0712 52.0366C14.0712 50.5402 12.8581 49.3271 11.3618 49.3271C9.86537 49.3271 8.65234 50.5402 8.65234 52.0366C8.65234 53.5329 9.86537 54.746 11.3618 54.746Z" fill="#DEDEDE"/>
<path d="M29.6366 70.3114C28.5782 71.3698 26.8707 71.3698 25.8123 70.3114C24.754 69.253 24.754 67.5455 25.8123 66.4871C26.8707 65.4288 28.5782 65.4288 29.6366 66.4871C30.695 67.5314 30.695 69.253 29.6366 70.3114Z" fill="#DEDEDE"/>
<path d="M44.0873 87.4706C45.5837 87.4706 46.7968 86.2575 46.7968 84.7612C46.7968 83.2648 45.5837 82.0518 44.0873 82.0518C42.591 82.0518 41.3779 83.2648 41.3779 84.7612C41.3779 86.2575 42.591 87.4706 44.0873 87.4706Z" fill="#DEDEDE"/>
<path d="M62.3622 103.035C61.3038 104.093 59.5963 104.093 58.5379 103.035C57.4795 101.977 57.4795 100.269 58.5379 99.2108C59.5963 98.1524 61.3038 98.1524 62.3622 99.2108C63.4206 100.255 63.4206 101.977 62.3622 103.035Z" fill="#DEDEDE"/>
<path d="M78.7314 119.391C77.673 120.45 75.9654 120.45 74.9071 119.391C73.8487 118.333 73.8487 116.626 74.9071 115.567C75.9654 114.509 77.673 114.509 78.7314 115.567C79.7897 116.626 79.7897 118.333 78.7314 119.391Z" fill="#DEDEDE"/>
<path d="M93.1811 136.551C94.6775 136.551 95.8906 135.338 95.8906 133.841C95.8906 132.345 94.6775 131.132 93.1811 131.132C91.6848 131.132 90.4717 132.345 90.4717 133.841C90.4717 135.338 91.6848 136.551 93.1811 136.551Z" fill="#DEDEDE"/>
<path d="M13.492 86.4559C12.4337 87.5143 10.7262 87.5143 9.6678 86.4559C8.60943 85.3975 8.60943 83.69 9.6678 82.6317C10.7262 81.5733 12.4337 81.5733 13.492 82.6317C14.5504 83.69 14.5504 85.3975 13.492 86.4559Z" fill="#DEDEDE"/>
<path d="M27.9418 103.616C29.4382 103.616 30.6513 102.403 30.6513 100.907C30.6513 99.4103 29.4382 98.1973 27.9418 98.1973C26.4455 98.1973 25.2324 99.4103 25.2324 100.907C25.2324 102.403 26.4455 103.616 27.9418 103.616Z" fill="#DEDEDE"/>
<path d="M46.2166 119.18C45.1583 120.239 43.4508 120.239 42.3924 119.18C41.334 118.122 41.334 116.415 42.3924 115.356C43.4508 114.298 45.1583 114.298 46.2166 115.356C47.275 116.415 47.275 118.122 46.2166 119.18Z" fill="#DEDEDE"/>
<path d="M62.5721 135.551C61.5137 136.609 59.8062 136.609 58.7479 135.551C57.6895 134.492 57.6895 132.785 58.7479 131.726C59.8062 130.668 61.5137 130.668 62.5721 131.726C63.6305 132.771 63.6305 134.492 62.5721 135.551Z" fill="#DEDEDE"/>
<path d="M77.0219 152.71C78.5183 152.71 79.7313 151.497 79.7313 150C79.7313 148.504 78.5183 147.291 77.0219 147.291C75.5255 147.291 74.3125 148.504 74.3125 150C74.3125 151.497 75.5255 152.71 77.0219 152.71Z" fill="#DEDEDE"/>
<path d="M13.7049 118.969C12.6466 120.027 10.9391 120.027 9.8807 118.969C8.82232 117.91 8.82232 116.203 9.8807 115.144C10.9391 114.086 12.6466 114.086 13.7049 115.144C14.7633 116.203 14.7633 117.91 13.7049 118.969Z" fill="#DEDEDE"/>
<path d="M28.1557 136.128C29.6521 136.128 30.8651 134.915 30.8651 133.418C30.8651 131.922 29.6521 130.709 28.1557 130.709C26.6594 130.709 25.4463 131.922 25.4463 133.418C25.4463 134.915 26.6594 136.128 28.1557 136.128Z" fill="#DEDEDE"/>
<path d="M44.5112 152.498C46.0076 152.498 47.2206 151.285 47.2206 149.789C47.2206 148.292 46.0076 147.079 44.5112 147.079C43.0148 147.079 41.8018 148.292 41.8018 149.789C41.8018 151.285 43.0148 152.498 44.5112 152.498Z" fill="#DEDEDE"/>
<path d="M62.785 168.063C61.7267 169.122 60.0192 169.122 58.9608 168.063C57.9024 167.005 57.9024 165.297 58.9608 164.239C60.0192 163.181 61.7267 163.181 62.785 164.239C63.8434 165.283 63.8434 167.005 62.785 168.063Z" fill="#DEDEDE"/>
<path d="M13.9158 151.48C12.8575 152.539 11.15 152.539 10.0916 151.48C9.03326 150.422 9.03326 148.714 10.0916 147.656C11.15 146.598 12.8575 146.598 13.9158 147.656C14.9742 148.714 14.9742 150.422 13.9158 151.48Z" fill="#DEDEDE"/>
<path d="M30.2714 167.837C29.213 168.895 27.5055 168.895 26.4471 167.837C25.3887 166.778 25.3887 165.071 26.4471 164.013C27.5055 162.954 29.213 162.954 30.2714 164.013C31.3297 165.071 31.3297 166.792 30.2714 167.837Z" fill="#DEDEDE"/>
<path d="M46.6405 184.206C45.5821 185.264 43.8746 185.264 42.8162 184.206C41.7579 183.148 41.7579 181.44 42.8162 180.382C43.8746 179.323 45.5821 179.323 46.6405 180.382C47.6988 181.44 47.6988 183.148 46.6405 184.206Z" fill="#DEDEDE"/>
</svg>
